<svg xmlns="http://www.w3.org/2000/svg" xmlns:xlink="http://www.w3.org/1999/xlink" width="500" zoomAndPan="magnify" viewBox="0 0 375 374.999991" height="500" preserveAspectRatio="xMidYMid meet" version="1.0"><defs><g/><clipPath id="b4cb798731"><path d="M 190 106.5 L 201 106.5 L 201 114 L 190 114 Z M 190 106.5 " clip-rule="nonzero"/></clipPath><clipPath id="0908dcbaa2"><path d="M 193.503906 157 L 232.457031 157 L 232.457031 188.21875 L 193.503906 188.21875 Z M 193.503906 157 " clip-rule="nonzero"/></clipPath><clipPath id="0ac4f784d8"><path d="M 142.457031 156.664062 L 181.152344 156.664062 L 181.152344 188.21875 L 142.457031 188.21875 Z M 142.457031 156.664062 " clip-rule="nonzero"/></clipPath></defs><g clip-path="url(#b4cb798731)"><path fill="#ffffff" d="M 192.222656 110.023438 L 197.992188 112.675781 C 198.234375 112.609375 198.46875 112.539062 198.699219 112.472656 C 199.757812 111.246094 199.789062 109.667969 199.625 108.542969 C 199.539062 107.960938 199.011719 107.699219 198.53125 107.699219 C 198.359375 107.699219 198.191406 107.730469 198.027344 107.792969 Z M 197.945312 113.886719 C 197.863281 113.886719 197.78125 113.867188 197.703125 113.832031 L 190.472656 110.507812 C 190.261719 110.410156 190.125 110.191406 190.132812 109.957031 C 190.140625 109.722656 190.289062 109.511719 190.507812 109.429688 L 197.613281 106.699219 C 197.90625 106.585938 198.214844 106.527344 198.53125 106.527344 C 199.695312 106.527344 200.617188 107.285156 200.777344 108.371094 C 200.984375 109.789062 200.925781 111.808594 199.445312 113.386719 C 199.375 113.464844 199.289062 113.519531 199.1875 113.546875 C 198.84375 113.652344 198.476562 113.757812 198.101562 113.863281 C 198.050781 113.878906 197.996094 113.886719 197.945312 113.886719 " fill-opacity="1" fill-rule="nonzero"/></g><path fill="#ffffff" d="M 194.621094 168.949219 L 194.835938 168.78125 C 195.226562 169.421875 195.609375 170.066406 195.992188 170.707031 Z M 195.738281 168.070312 L 195.917969 167.933594 C 196.027344 167.847656 196.191406 167.875 196.265625 167.996094 C 196.839844 168.949219 197.402344 169.90625 197.953125 170.851562 C 198.011719 170.953125 197.988281 171.082031 197.894531 171.15625 L 197.722656 171.289062 C 197.609375 171.378906 197.449219 171.347656 197.378906 171.222656 C 196.820312 170.277344 196.261719 169.328125 195.683594 168.378906 C 195.621094 168.277344 195.644531 168.144531 195.738281 168.070312 Z M 196.871094 167.199219 L 196.867188 167.1875 L 197.0625 167.03125 C 197.175781 166.945312 197.335938 166.972656 197.410156 167.09375 C 197.519531 167.277344 197.628906 167.460938 197.738281 167.640625 L 198.777344 169.359375 C 198.894531 169.550781 199.007812 169.738281 199.121094 169.929688 C 199.179688 170.03125 199.15625 170.164062 199.0625 170.238281 L 199.007812 170.28125 C 198.898438 170.367188 198.734375 170.335938 198.664062 170.214844 C 198.078125 169.214844 197.484375 168.207031 196.871094 167.199219 Z M 198.660156 166.117188 C 199.214844 167.054688 199.78125 168.007812 200.351562 168.960938 C 200.414062 169.066406 200.386719 169.195312 200.296875 169.269531 L 200.175781 169.363281 C 200.0625 169.453125 199.902344 169.421875 199.828125 169.296875 C 199.746094 169.15625 199.660156 169.011719 199.574219 168.871094 L 198.535156 167.15625 C 198.398438 166.925781 198.261719 166.695312 198.121094 166.464844 C 198.058594 166.363281 198.082031 166.230469 198.175781 166.15625 L 198.3125 166.050781 C 198.425781 165.964844 198.585938 165.992188 198.660156 166.117188 Z M 199.789062 165.234375 C 200.355469 166.199219 200.914062 167.148438 201.464844 168.089844 C 201.527344 168.191406 201.5 168.324219 201.410156 168.394531 C 201.296875 168.484375 201.136719 168.453125 201.0625 168.332031 C 200.488281 167.375 199.925781 166.421875 199.371094 165.484375 C 199.308594 165.378906 199.332031 165.25 199.425781 165.175781 L 199.441406 165.167969 C 199.550781 165.078125 199.714844 165.109375 199.789062 165.234375 Z M 201.007812 164.257812 C 201.617188 165.179688 202.210938 166.105469 202.792969 167.039062 C 202.859375 167.140625 202.832031 167.277344 202.738281 167.351562 L 202.523438 167.519531 C 202.410156 167.609375 202.25 167.578125 202.175781 167.457031 C 201.621094 166.515625 201.0625 165.5625 200.496094 164.597656 C 200.4375 164.496094 200.460938 164.363281 200.554688 164.292969 L 200.667969 164.203125 C 200.777344 164.117188 200.933594 164.144531 201.007812 164.257812 Z M 202.285156 163.265625 C 202.84375 164.203125 203.410156 165.152344 203.980469 166.109375 C 204.042969 166.214844 204.019531 166.34375 203.925781 166.417969 L 203.851562 166.476562 C 203.738281 166.566406 203.582031 166.535156 203.507812 166.417969 C 202.925781 165.488281 202.335938 164.566406 201.726562 163.648438 C 201.65625 163.546875 201.679688 163.40625 201.777344 163.332031 L 201.941406 163.203125 C 202.050781 163.113281 202.214844 163.144531 202.285156 163.265625 Z M 203.503906 162.308594 C 204.078125 163.253906 204.65625 164.191406 205.230469 165.125 C 205.292969 165.230469 205.269531 165.363281 205.175781 165.4375 L 205.039062 165.542969 C 204.929688 165.632812 204.765625 165.601562 204.691406 165.480469 C 204.117188 164.519531 203.554688 163.570312 202.996094 162.632812 C 202.9375 162.53125 202.960938 162.402344 203.054688 162.328125 L 203.160156 162.246094 C 203.269531 162.15625 203.429688 162.1875 203.503906 162.308594 Z M 204.765625 161.320312 C 205.328125 162.261719 205.894531 163.210938 206.464844 164.164062 C 206.523438 164.265625 206.5 164.394531 206.40625 164.46875 L 206.289062 164.5625 C 206.175781 164.652344 206.015625 164.621094 205.941406 164.503906 C 205.367188 163.566406 204.789062 162.625 204.214844 161.683594 C 204.152344 161.578125 204.179688 161.445312 204.273438 161.371094 L 204.421875 161.253906 C 204.53125 161.167969 204.695312 161.195312 204.765625 161.320312 Z M 206.09375 160.277344 C 206.671875 161.21875 207.25 162.15625 207.824219 163.089844 C 207.886719 163.191406 207.863281 163.328125 207.769531 163.402344 L 207.519531 163.59375 C 207.410156 163.683594 207.246094 163.652344 207.175781 163.53125 C 206.605469 162.578125 206.039062 161.628906 205.476562 160.6875 C 205.417969 160.582031 205.441406 160.453125 205.535156 160.378906 L 205.746094 160.214844 C 205.859375 160.125 206.019531 160.15625 206.09375 160.277344 Z M 207.0625 159.179688 C 207.175781 159.09375 207.335938 159.125 207.410156 159.246094 C 207.789062 159.882812 208.171875 160.523438 208.546875 161.15625 C 208.734375 161.464844 208.917969 161.777344 209.105469 162.089844 C 209.164062 162.191406 209.140625 162.324219 209.046875 162.398438 L 208.882812 162.527344 C 208.769531 162.613281 208.609375 162.585938 208.535156 162.464844 C 207.960938 161.53125 207.382812 160.59375 206.804688 159.648438 C 206.742188 159.546875 206.765625 159.414062 206.859375 159.339844 Z M 208.273438 158.230469 C 208.382812 158.144531 208.546875 158.171875 208.617188 158.292969 C 209.21875 159.289062 209.816406 160.285156 210.414062 161.285156 L 210.429688 161.3125 L 210.160156 161.523438 C 210.050781 161.609375 209.886719 161.578125 209.816406 161.457031 C 209.660156 161.195312 209.503906 160.933594 209.347656 160.671875 C 208.941406 159.992188 208.53125 159.300781 208.121094 158.613281 C 208.058594 158.511719 208.082031 158.378906 208.175781 158.304688 Z M 209.503906 157.261719 C 209.617188 157.175781 209.777344 157.207031 209.851562 157.328125 C 210.339844 158.164062 210.851562 159.003906 211.398438 159.824219 L 211.589844 160.136719 C 211.648438 160.238281 211.625 160.371094 211.53125 160.445312 L 211.378906 160.566406 C 211.265625 160.652344 211.105469 160.625 211.03125 160.503906 C 210.46875 159.554688 209.898438 158.605469 209.328125 157.664062 C 209.269531 157.5625 209.292969 157.429688 209.386719 157.355469 Z M 210.792969 156.253906 C 210.902344 156.164062 211.0625 156.195312 211.136719 156.316406 C 211.171875 156.375 211.210938 156.4375 211.246094 156.5 C 211.777344 157.375 212.3125 158.257812 212.851562 159.144531 C 212.910156 159.246094 212.886719 159.382812 212.792969 159.453125 L 212.644531 159.570312 C 212.535156 159.660156 212.371094 159.628906 212.300781 159.507812 L 212.183594 159.320312 C 211.605469 158.453125 211.074219 157.570312 210.558594 156.695312 C 210.5 156.59375 210.523438 156.460938 210.617188 156.386719 Z M 212.292969 155.410156 C 212.851562 156.359375 213.414062 157.308594 213.976562 158.261719 C 214.039062 158.367188 214.015625 158.496094 213.921875 158.570312 L 213.90625 158.582031 C 213.796875 158.667969 213.632812 158.636719 213.5625 158.515625 C 212.988281 157.570312 212.414062 156.625 211.847656 155.6875 C 211.867188 155.574219 211.882812 155.492188 211.902344 155.378906 L 211.949219 155.34375 C 212.058594 155.257812 212.222656 155.289062 212.292969 155.410156 Z M 213.660156 154.335938 C 214.21875 155.261719 214.78125 156.203125 215.359375 157.179688 C 215.417969 157.28125 215.394531 157.414062 215.300781 157.488281 L 215.035156 157.695312 C 214.921875 157.78125 214.761719 157.75 214.6875 157.628906 C 214.121094 156.675781 213.5625 155.726562 213.003906 154.773438 C 212.945312 154.671875 212.96875 154.542969 213.0625 154.46875 L 213.3125 154.269531 C 213.425781 154.183594 213.585938 154.214844 213.660156 154.335938 Z M 198.441406 174.8125 L 218.554688 159.023438 C 218.675781 158.925781 218.753906 158.785156 218.773438 158.628906 C 218.792969 158.476562 218.75 158.320312 218.65625 158.199219 L 214.160156 152.417969 C 214.082031 152.316406 213.933594 152.296875 213.832031 152.378906 L 193.445312 168.386719 C 193.257812 168.53125 193.1875 168.773438 193.238281 168.988281 C 193.257812 169.066406 193.292969 169.140625 193.347656 169.207031 L 197.625 174.714844 C 197.71875 174.835938 197.859375 174.914062 198.011719 174.933594 C 198.164062 174.953125 198.320312 174.910156 198.441406 174.8125 " fill-opacity="1" fill-rule="nonzero"/><g clip-path="url(#0908dcbaa2)"><path fill="#ffffff" d="M 217.140625 160.195312 C 217.15625 160.140625 217.191406 160.09375 217.234375 160.058594 L 217.867188 159.5625 C 218.082031 159.394531 218.378906 159.601562 218.296875 159.863281 C 215.570312 168.507812 213.191406 177.265625 210.882812 185.753906 C 210.824219 185.816406 210.753906 185.886719 210.695312 185.945312 C 210.453125 186.019531 210.214844 186.089844 209.96875 186.15625 C 209.761719 186.214844 209.570312 186.019531 209.632812 185.8125 C 212.253906 176.542969 214.71875 168.136719 217.140625 160.195312 Z M 219.882812 159.367188 L 220.304688 159.898438 C 220.359375 159.96875 220.378906 160.0625 220.351562 160.152344 C 218 168.015625 215.503906 176.449219 213.070312 185.054688 C 213.042969 185.144531 212.976562 185.214844 212.894531 185.242188 C 212.722656 185.300781 212.554688 185.359375 212.386719 185.414062 C 212.175781 185.484375 211.976562 185.289062 212.035156 185.078125 C 214.320312 176.660156 216.6875 167.996094 219.402344 159.457031 C 219.46875 159.246094 219.746094 159.195312 219.882812 159.367188 Z M 221.429688 161.316406 L 221.816406 161.804688 C 221.875 161.875 221.890625 161.96875 221.867188 162.054688 C 220.15625 167.902344 218.539062 173.773438 216.964844 179.511719 C 216.550781 181.019531 216.132812 182.539062 215.710938 184.070312 C 215.6875 184.152344 215.625 184.222656 215.546875 184.253906 C 215.238281 184.375 214.933594 184.5 214.625 184.617188 C 214.414062 184.695312 214.199219 184.5 214.261719 184.277344 C 216.5 176.394531 218.78125 168.667969 220.949219 161.40625 C 221.015625 161.191406 221.289062 161.140625 221.429688 161.316406 Z M 222.949219 163.230469 L 223.496094 163.917969 C 223.554688 163.988281 223.570312 164.082031 223.546875 164.167969 C 222.226562 168.816406 220.882812 173.445312 219.5625 177.984375 C 219.078125 179.65625 218.585938 181.34375 218.09375 183.042969 C 218.074219 183.121094 218.015625 183.1875 217.945312 183.21875 C 217.730469 183.320312 217.515625 183.414062 217.296875 183.511719 C 217.085938 183.605469 216.859375 183.410156 216.921875 183.183594 C 217.238281 182.039062 217.550781 180.894531 217.863281 179.757812 C 219.347656 174.355469 220.867188 168.832031 222.46875 163.324219 C 222.53125 163.109375 222.808594 163.054688 222.949219 163.230469 Z M 224.632812 165.347656 L 224.964844 165.765625 C 225.023438 165.835938 225.039062 165.929688 225.015625 166.015625 C 224.804688 166.757812 224.597656 167.503906 224.390625 168.238281 C 223.320312 172.035156 222.210938 175.960938 221.078125 179.863281 C 220.890625 180.527344 220.703125 181.191406 220.515625 181.855469 C 220.492188 181.925781 220.441406 181.988281 220.375 182.027344 C 220.167969 182.132812 219.960938 182.242188 219.75 182.347656 C 219.535156 182.457031 219.296875 182.253906 219.363281 182.019531 C 219.730469 180.753906 220.097656 179.496094 220.457031 178.246094 C 221.679688 174.039062 222.925781 169.753906 224.152344 165.445312 C 224.214844 165.226562 224.492188 165.171875 224.632812 165.347656 Z M 226.105469 167.199219 L 226.570312 167.789062 C 226.625 167.855469 226.644531 167.945312 226.625 168.03125 C 226.164062 169.84375 225.617188 171.617188 225.082031 173.332031 C 224.460938 175.328125 223.816406 177.394531 223.316406 179.523438 L 223.058594 180.433594 C 223.039062 180.5 222.992188 180.558594 222.933594 180.59375 C 222.691406 180.738281 222.453125 180.878906 222.210938 181.019531 C 221.996094 181.140625 221.742188 180.9375 221.808594 180.703125 C 221.863281 180.507812 221.917969 180.316406 221.972656 180.125 C 223.109375 176.21875 224.214844 172.292969 225.285156 168.496094 C 225.398438 168.097656 225.511719 167.699219 225.625 167.296875 C 225.683594 167.082031 225.964844 167.023438 226.105469 167.199219 Z M 227.71875 169.234375 L 228.101562 169.714844 C 228.15625 169.785156 228.175781 169.878906 228.152344 169.964844 C 227.535156 172.144531 226.921875 174.316406 226.3125 176.460938 C 226.097656 177.230469 225.878906 178 225.660156 178.773438 C 225.640625 178.839844 225.601562 178.894531 225.546875 178.929688 C 225.105469 179.230469 224.65625 179.527344 224.203125 179.8125 L 224.21875 179.757812 C 224.71875 177.644531 225.355469 175.59375 225.972656 173.609375 C 226.40625 172.21875 226.84375 170.789062 227.242188 169.332031 C 227.300781 169.117188 227.578125 169.054688 227.71875 169.234375 Z M 229.238281 171.144531 L 229.597656 171.59375 C 229.613281 171.683594 229.628906 171.757812 229.644531 171.847656 C 229.132812 173.5625 228.617188 175.289062 228.101562 177.023438 C 228.085938 177.078125 228.050781 177.128906 228.003906 177.164062 C 227.832031 177.296875 227.660156 177.425781 227.488281 177.550781 C 227.277344 177.710938 226.988281 177.511719 227.058594 177.253906 C 227.109375 177.074219 227.160156 176.894531 227.210938 176.71875 C 227.722656 174.90625 228.238281 173.078125 228.757812 171.242188 C 228.820312 171.027344 229.097656 170.96875 229.238281 171.144531 Z M 210.144531 166.261719 C 207.800781 173.980469 206.050781 179.890625 204.109375 186.675781 C 204.050781 186.886719 203.984375 187.054688 203.847656 186.878906 L 203.480469 186.566406 C 203.425781 186.496094 203.40625 186.402344 203.429688 186.320312 C 203.90625 184.734375 203.96875 184.355469 204.382812 182.753906 C 204.609375 181.925781 204.839844 181.105469 205.070312 180.289062 C 206.023438 176.890625 207.015625 173.546875 207.972656 170.3125 C 208.34375 169.0625 208.71875 167.792969 209.09375 166.515625 C 209.109375 166.460938 209.144531 166.410156 209.1875 166.375 L 209.714844 165.964844 C 209.925781 165.796875 210.226562 166.003906 210.144531 166.261719 Z M 201.988281 186.382812 L 201.480469 185.738281 C 201.425781 185.667969 201.40625 185.578125 201.433594 185.492188 L 201.582031 184.957031 C 201.78125 184.238281 201.980469 183.523438 202.183594 182.8125 C 202.292969 182.429688 202.019531 180.859375 200.5 181.421875 C 200.398438 181.457031 200.257812 181.417969 200.191406 181.332031 L 198.960938 179.746094 C 198.90625 179.675781 198.886719 179.582031 198.914062 179.496094 C 198.992188 179.277344 199.21875 178.902344 199.691406 178.535156 C 200.152344 178.171875 200.558594 178.035156 200.792969 178.011719 C 200.886719 178 200.980469 178.042969 201.039062 178.117188 L 201.84375 179.152344 C 201.902344 179.230469 201.996094 179.269531 202.09375 179.257812 L 202.300781 179.234375 C 202.691406 179.1875 202.996094 178.925781 203.332031 178.722656 C 203.394531 178.6875 203.4375 178.632812 203.460938 178.5625 C 203.703125 177.765625 203.945312 176.957031 204.179688 176.128906 L 204.886719 173.636719 C 205.34375 172.015625 205.8125 170.375 206.285156 168.722656 C 206.300781 168.667969 206.332031 168.617188 206.378906 168.582031 L 207.175781 167.957031 C 207.386719 167.789062 207.6875 167.996094 207.609375 168.253906 C 207.433594 168.855469 207.253906 169.453125 207.078125 170.046875 C 206.121094 173.28125 205.128906 176.628906 204.171875 180.035156 C 203.941406 180.851562 203.710938 181.675781 203.484375 182.511719 C 203.15625 183.765625 202.824219 185.039062 202.46875 186.289062 C 202.410156 186.503906 202.128906 186.558594 201.988281 186.382812 Z M 200.003906 183.863281 C 199.949219 183.792969 199.933594 183.699219 199.957031 183.613281 C 200.035156 183.34375 200.117188 183.074219 200.195312 182.808594 C 200.230469 182.695312 200.332031 182.617188 200.449219 182.613281 C 200.558594 182.609375 200.675781 182.59375 200.796875 182.570312 C 200.96875 182.535156 201.148438 182.476562 201.332031 182.398438 C 201.316406 182.449219 201.300781 182.5 201.289062 182.550781 C 201.082031 183.265625 200.882812 183.984375 200.683594 184.703125 L 200.679688 184.71875 Z M 198.882812 182.4375 L 198.445312 181.882812 C 198.390625 181.8125 198.375 181.722656 198.398438 181.636719 C 198.460938 181.417969 198.742188 181.367188 198.878906 181.542969 L 199.371094 182.175781 C 199.378906 182.1875 199.390625 182.199219 199.398438 182.207031 C 199.386719 182.253906 199.375 182.296875 199.359375 182.34375 C 199.296875 182.558594 199.019531 182.613281 198.882812 182.4375 Z M 197.085938 180.15625 C 197.03125 180.085938 197.015625 179.996094 197.039062 179.910156 C 197.527344 178.226562 198 176.542969 198.460938 174.867188 C 198.480469 174.808594 198.511719 174.761719 198.558594 174.722656 L 199.070312 174.320312 C 199.28125 174.152344 199.582031 174.359375 199.507812 174.617188 C 199.21875 175.597656 198.925781 176.570312 198.640625 177.53125 C 198.59375 177.6875 198.546875 177.84375 198.5 178 C 198.488281 178.039062 198.46875 178.074219 198.441406 178.105469 C 198.21875 178.347656 198.039062 178.609375 197.917969 178.867188 C 197.730469 179.253906 197.679688 179.628906 197.757812 179.949219 C 197.796875 180.113281 197.882812 180.253906 197.972656 180.394531 C 197.6875 180.605469 197.816406 180.511719 197.53125 180.71875 Z M 195.957031 178.722656 L 195.722656 178.425781 C 195.667969 178.359375 195.652344 178.265625 195.671875 178.183594 C 195.800781 177.710938 195.925781 177.242188 196.046875 176.769531 C 196.0625 176.710938 196.097656 176.65625 196.144531 176.621094 L 196.589844 176.269531 C 196.796875 176.105469 197.097656 176.304688 197.023438 176.5625 C 196.832031 177.25 196.636719 177.9375 196.4375 178.625 C 196.375 178.84375 196.097656 178.898438 195.957031 178.722656 Z M 201.078125 172.746094 L 202.5625 171.578125 L 202.488281 171.839844 C 202.03125 173.460938 201.554688 175.066406 201.078125 176.648438 C 201.042969 176.761719 200.941406 176.839844 200.820312 176.839844 C 200.699219 176.84375 200.574219 176.855469 200.441406 176.886719 C 200.375 176.898438 200.308594 176.914062 200.242188 176.933594 C 200.027344 176.996094 199.828125 176.804688 199.894531 176.59375 C 200.257812 175.371094 200.625 174.132812 200.980469 172.886719 C 201 172.832031 201.03125 172.78125 201.078125 172.746094 Z M 203.871094 170.550781 L 204.390625 170.144531 C 204.601562 169.976562 204.898438 170.179688 204.824219 170.4375 C 204.542969 171.425781 204.265625 172.40625 203.988281 173.378906 L 203.28125 175.871094 C 203.105469 176.496094 202.925781 177.097656 202.746094 177.703125 C 202.683594 177.917969 202.402344 177.96875 202.265625 177.792969 L 201.863281 177.277344 C 202.375 175.578125 202.890625 173.847656 203.386719 172.09375 L 203.777344 170.695312 C 203.792969 170.636719 203.828125 170.585938 203.871094 170.550781 Z M 229.414062 177.558594 C 229.667969 177.359375 229.710938 176.992188 229.511719 176.738281 C 229.472656 176.6875 229.429688 176.644531 229.378906 176.613281 C 229.285156 176.550781 229.253906 176.421875 229.285156 176.316406 C 229.605469 175.242188 229.925781 174.167969 230.242188 173.105469 C 230.308594 172.890625 230.582031 172.835938 230.722656 173.011719 L 231.242188 173.664062 C 231.292969 173.730469 231.3125 173.824219 231.289062 173.90625 L 231.269531 173.988281 C 231.132812 174.484375 231.726562 174.851562 232.105469 174.503906 C 232.527344 174.121094 232.578125 173.472656 232.222656 173.023438 L 219.753906 157.328125 C 219.554688 157.078125 219.191406 157.035156 218.9375 157.234375 L 193.824219 176.953125 C 193.703125 177.050781 193.625 177.191406 193.605469 177.34375 C 193.597656 177.417969 193.601562 177.488281 193.617188 177.558594 C 193.636719 177.636719 193.675781 177.710938 193.726562 177.777344 L 201.296875 187.394531 C 201.777344 188.003906 202.546875 188.308594 203.308594 188.191406 L 203.335938 188.1875 C 204.167969 188.0625 204.847656 187.464844 205.082031 186.652344 C 207.070312 179.730469 209.246094 172.410156 211.65625 164.5 C 211.675781 164.445312 211.707031 164.398438 211.75 164.367188 C 211.863281 164.273438 212.121094 164.074219 212.378906 163.871094 C 212.59375 163.703125 212.894531 163.921875 212.800781 164.179688 C 212.777344 164.25 212.753906 164.320312 212.726562 164.390625 C 211.921875 166.621094 211.089844 168.929688 210.554688 171.339844 C 209.351562 176.773438 207.777344 182.089844 206.203125 187.261719 C 206.140625 187.464844 206.316406 187.65625 206.523438 187.613281 L 206.949219 187.519531 C 207.046875 187.5 207.128906 187.429688 207.15625 187.332031 C 208.714844 182.207031 210.269531 176.9375 211.464844 171.542969 C 211.984375 169.195312 212.808594 166.914062 213.605469 164.707031 C 213.890625 163.917969 214.171875 163.113281 214.449219 162.300781 C 214.46875 162.25 214.5 162.207031 214.539062 162.171875 L 215.199219 161.65625 C 215.410156 161.492188 215.710938 161.695312 215.628906 161.953125 C 213.332031 169.550781 210.984375 177.589844 208.492188 186.417969 C 208.429688 186.484375 208.378906 186.539062 208.316406 186.601562 C 207.894531 186.761719 207.742188 187.375 208.289062 187.730469 C 208.351562 187.769531 208.425781 187.78125 208.496094 187.761719 C 216.191406 185.859375 223.226562 182.425781 229.414062 177.558594 " fill-opacity="1" fill-rule="nonzero"/></g><path fill="#ffffff" d="M 178.640625 170.496094 C 179.019531 169.855469 179.40625 169.214844 179.796875 168.570312 L 180.007812 168.738281 Z M 178.949219 168.171875 C 178.371094 169.121094 177.808594 170.070312 177.253906 171.015625 C 177.183594 171.136719 177.019531 171.167969 176.90625 171.078125 L 176.738281 170.945312 C 176.644531 170.871094 176.621094 170.742188 176.679688 170.640625 C 177.230469 169.695312 177.792969 168.738281 178.367188 167.785156 C 178.441406 167.664062 178.601562 167.636719 178.714844 167.722656 L 178.890625 167.863281 C 178.984375 167.933594 179.007812 168.066406 178.949219 168.171875 Z M 175.96875 170.003906 C 175.898438 170.128906 175.734375 170.15625 175.621094 170.070312 L 175.570312 170.027344 C 175.476562 169.953125 175.449219 169.824219 175.511719 169.722656 C 175.625 169.53125 175.738281 169.339844 175.855469 169.148438 L 176.890625 167.429688 C 177 167.25 177.109375 167.066406 177.222656 166.886719 C 177.292969 166.765625 177.457031 166.734375 177.566406 166.820312 L 177.765625 166.976562 L 177.757812 166.988281 C 177.148438 167.996094 176.550781 169.003906 175.96875 170.003906 Z M 176.316406 165.839844 L 176.453125 165.949219 C 176.546875 166.023438 176.570312 166.15625 176.511719 166.257812 C 176.371094 166.488281 176.230469 166.71875 176.09375 166.945312 L 175.058594 168.660156 C 174.972656 168.804688 174.886719 168.945312 174.800781 169.089844 C 174.730469 169.210938 174.566406 169.242188 174.457031 169.152344 L 174.335938 169.058594 C 174.242188 168.988281 174.21875 168.855469 174.28125 168.75 C 174.851562 167.796875 175.417969 166.847656 175.972656 165.90625 C 176.042969 165.785156 176.207031 165.753906 176.316406 165.839844 Z M 175.191406 164.957031 L 175.203125 164.964844 C 175.296875 165.039062 175.324219 165.171875 175.261719 165.273438 C 174.707031 166.214844 174.140625 167.164062 173.570312 168.121094 C 173.496094 168.242188 173.335938 168.273438 173.222656 168.183594 C 173.128906 168.113281 173.105469 167.980469 173.164062 167.878906 C 173.71875 166.941406 174.277344 165.988281 174.84375 165.023438 C 174.914062 164.898438 175.078125 164.867188 175.191406 164.957031 Z M 173.964844 163.992188 L 174.074219 164.082031 C 174.167969 164.152344 174.195312 164.285156 174.132812 164.386719 C 173.566406 165.355469 173.007812 166.304688 172.457031 167.246094 C 172.382812 167.367188 172.21875 167.398438 172.109375 167.308594 L 171.894531 167.140625 C 171.796875 167.066406 171.773438 166.929688 171.839844 166.828125 C 172.417969 165.894531 173.011719 164.96875 173.621094 164.046875 C 173.699219 163.933594 173.855469 163.90625 173.964844 163.992188 Z M 172.691406 162.992188 L 172.855469 163.121094 C 172.953125 163.199219 172.972656 163.335938 172.90625 163.4375 C 172.296875 164.355469 171.703125 165.28125 171.125 166.207031 C 171.050781 166.328125 170.890625 166.355469 170.78125 166.269531 L 170.707031 166.207031 C 170.613281 166.136719 170.585938 166.003906 170.648438 165.898438 C 171.222656 164.941406 171.789062 163.992188 172.34375 163.058594 C 172.417969 162.933594 172.578125 162.90625 172.691406 162.992188 Z M 171.472656 162.035156 L 171.578125 162.117188 C 171.671875 162.191406 171.695312 162.324219 171.636719 162.425781 C 171.078125 163.363281 170.511719 164.308594 169.9375 165.269531 C 169.867188 165.390625 169.703125 165.421875 169.589844 165.335938 L 169.453125 165.226562 C 169.359375 165.152344 169.335938 165.019531 169.402344 164.917969 C 169.976562 163.980469 170.550781 163.042969 171.125 162.097656 C 171.199219 161.980469 171.359375 161.949219 171.472656 162.035156 Z M 170.210938 161.042969 L 170.359375 161.160156 C 170.453125 161.234375 170.476562 161.367188 170.414062 161.472656 C 169.839844 162.417969 169.265625 163.355469 168.6875 164.292969 C 168.613281 164.410156 168.453125 164.441406 168.34375 164.355469 L 168.222656 164.261719 C 168.128906 164.1875 168.105469 164.054688 168.167969 163.953125 C 168.738281 163 169.304688 162.050781 169.863281 161.109375 C 169.9375 160.988281 170.097656 160.957031 170.210938 161.042969 Z M 168.882812 160.003906 L 169.09375 160.171875 C 169.1875 160.242188 169.214844 160.375 169.152344 160.476562 C 168.59375 161.421875 168.027344 162.371094 167.457031 163.320312 C 167.382812 163.441406 167.222656 163.472656 167.109375 163.386719 L 166.863281 163.191406 C 166.765625 163.117188 166.742188 162.984375 166.804688 162.882812 C 167.382812 161.949219 167.960938 161.007812 168.539062 160.066406 C 168.613281 159.945312 168.773438 159.917969 168.882812 160.003906 Z M 167.769531 159.128906 C 167.867188 159.203125 167.890625 159.339844 167.828125 159.441406 C 167.246094 160.382812 166.667969 161.324219 166.09375 162.257812 C 166.019531 162.375 165.859375 162.402344 165.75 162.316406 L 165.582031 162.1875 C 165.488281 162.113281 165.464844 161.980469 165.527344 161.878906 C 165.710938 161.566406 165.898438 161.253906 166.082031 160.945312 C 166.460938 160.3125 166.839844 159.671875 167.222656 159.035156 C 167.292969 158.914062 167.457031 158.882812 167.566406 158.96875 Z M 166.453125 158.09375 C 166.546875 158.167969 166.574219 158.300781 166.511719 158.402344 C 166.101562 159.09375 165.691406 159.78125 165.28125 160.464844 C 165.128906 160.722656 164.972656 160.984375 164.816406 161.246094 C 164.742188 161.367188 164.582031 161.398438 164.46875 161.3125 L 164.203125 161.101562 L 164.21875 161.074219 C 164.8125 160.074219 165.414062 159.078125 166.011719 158.082031 C 166.085938 157.960938 166.246094 157.933594 166.359375 158.019531 Z M 165.246094 157.144531 C 165.339844 157.21875 165.363281 157.351562 165.300781 157.453125 C 164.734375 158.398438 164.164062 159.34375 163.597656 160.292969 C 163.527344 160.414062 163.363281 160.445312 163.253906 160.355469 L 163.097656 160.234375 C 163.003906 160.160156 162.980469 160.03125 163.042969 159.925781 L 163.230469 159.613281 C 163.78125 158.792969 164.289062 157.957031 164.78125 157.121094 C 164.851562 156.996094 165.015625 156.964844 165.128906 157.054688 Z M 164.011719 156.179688 C 164.105469 156.25 164.132812 156.382812 164.070312 156.484375 C 163.558594 157.363281 163.023438 158.242188 162.445312 159.109375 L 162.332031 159.296875 C 162.257812 159.417969 162.097656 159.449219 161.984375 159.363281 L 161.835938 159.246094 C 161.742188 159.171875 161.71875 159.039062 161.78125 158.9375 C 162.316406 158.046875 162.855469 157.164062 163.382812 156.289062 C 163.421875 156.226562 163.457031 156.167969 163.496094 156.105469 C 163.570312 155.984375 163.730469 155.957031 163.839844 156.042969 Z M 162.683594 155.136719 L 162.726562 155.167969 C 162.75 155.28125 162.761719 155.363281 162.785156 155.476562 C 162.214844 156.414062 161.644531 157.359375 161.070312 158.308594 C 160.996094 158.425781 160.835938 158.457031 160.726562 158.371094 L 160.710938 158.359375 C 160.617188 158.285156 160.59375 158.15625 160.652344 158.054688 C 161.21875 157.101562 161.78125 156.148438 162.335938 155.199219 C 162.410156 155.078125 162.570312 155.046875 162.683594 155.136719 Z M 161.316406 154.0625 L 161.570312 154.257812 C 161.664062 154.332031 161.6875 154.464844 161.628906 154.566406 C 161.070312 155.515625 160.507812 156.464844 159.945312 157.421875 C 159.871094 157.542969 159.707031 157.574219 159.597656 157.484375 L 159.332031 157.277344 C 159.238281 157.203125 159.214844 157.070312 159.273438 156.96875 C 159.851562 155.992188 160.410156 155.050781 160.972656 154.125 C 161.042969 154.003906 161.207031 153.972656 161.316406 154.0625 Z M 176.617188 174.722656 C 176.773438 174.707031 176.910156 174.625 177.007812 174.503906 L 181.285156 168.996094 C 181.335938 168.929688 181.371094 168.855469 181.390625 168.78125 C 181.445312 168.5625 181.371094 168.324219 181.183594 168.175781 L 160.800781 152.167969 C 160.699219 152.089844 160.550781 152.105469 160.46875 152.210938 L 155.976562 157.988281 C 155.882812 158.113281 155.839844 158.265625 155.859375 158.421875 C 155.875 158.574219 155.957031 158.714844 156.078125 158.8125 L 176.1875 174.605469 C 176.3125 174.699219 176.464844 174.742188 176.617188 174.722656 " fill-opacity="1" fill-rule="nonzero"/><g clip-path="url(#0ac4f784d8)"><path fill="#ffffff" d="M 155.722656 158.46875 L 155.738281 158.480469 C 155.890625 158.601562 155.914062 158.828125 155.785156 158.976562 C 155.714844 159.058594 155.648438 159.140625 155.578125 159.21875 C 155.285156 159.558594 154.773438 159.136719 155.042969 158.78125 L 155.238281 158.527344 C 155.355469 158.378906 155.570312 158.351562 155.722656 158.46875 Z M 164.847656 165.632812 L 165.285156 165.976562 C 165.503906 166.148438 165.519531 166.386719 165.378906 166.535156 C 161.613281 170.488281 157.792969 174.367188 154.042969 178.171875 C 153.453125 178.765625 152.863281 179.363281 152.273438 179.964844 C 152.121094 180.121094 151.886719 180.148438 151.703125 180.035156 C 151.621094 179.988281 151.542969 179.9375 151.464844 179.890625 C 151.214844 179.734375 151.175781 179.382812 151.378906 179.171875 C 151.59375 178.949219 151.808594 178.730469 152.019531 178.507812 L 153.785156 176.683594 C 156.050781 174.273438 158.285156 171.960938 160.820312 169.398438 C 161.402344 168.789062 161.988281 168.179688 162.574219 167.570312 C 163.195312 166.917969 163.800781 166.285156 164.390625 165.667969 C 164.511719 165.539062 164.710938 165.523438 164.847656 165.632812 Z M 166.625 167.027344 L 166.769531 167.140625 C 166.929688 167.269531 166.945312 167.507812 166.804688 167.65625 C 164.175781 170.394531 161.558594 173.132812 158.980469 175.828125 C 157.347656 177.535156 155.695312 179.265625 154.03125 181.003906 C 153.886719 181.15625 153.65625 181.1875 153.472656 181.085938 C 153.4375 181.066406 153.398438 181.042969 153.363281 181.023438 C 153.097656 180.871094 153.046875 180.511719 153.261719 180.292969 C 153.746094 179.804688 154.226562 179.316406 154.703125 178.828125 C 158.496094 174.984375 162.355469 171.0625 166.164062 167.0625 C 166.285156 166.933594 166.484375 166.917969 166.625 167.027344 Z M 168.050781 168.148438 L 168.410156 168.429688 C 168.570312 168.558594 168.589844 168.796875 168.445312 168.945312 L 163.042969 174.550781 C 161.617188 176.1875 160.09375 177.695312 158.625 179.152344 C 157.703125 180.070312 156.761719 181.007812 155.835938 181.980469 C 155.695312 182.128906 155.476562 182.167969 155.292969 182.074219 C 155.257812 182.054688 155.21875 182.035156 155.179688 182.015625 C 154.90625 181.871094 154.847656 181.503906 155.058594 181.28125 C 156.601562 179.667969 158.136719 178.0625 159.65625 176.476562 C 162.269531 173.742188 164.921875 170.964844 167.59375 168.183594 C 167.714844 168.054688 167.914062 168.039062 168.050781 168.148438 Z M 169.695312 169.441406 L 170.023438 169.699219 C 170.183594 169.824219 170.203125 170.0625 170.0625 170.210938 C 169.601562 170.691406 169.144531 171.167969 168.6875 171.644531 L 166.894531 173.519531 C 166.328125 174.113281 165.761719 174.703125 165.199219 175.292969 C 162.710938 177.851562 160.238281 180.4375 157.828125 182.960938 C 157.691406 183.105469 157.480469 183.144531 157.300781 183.0625 C 157.21875 183.023438 157.136719 182.984375 157.054688 182.945312 C 156.769531 182.808594 156.695312 182.429688 156.917969 182.199219 C 157.707031 181.386719 158.5 180.59375 159.28125 179.820312 C 160.761719 178.351562 162.296875 176.832031 163.730469 175.1875 L 169.234375 169.472656 C 169.359375 169.34375 169.554688 169.332031 169.695312 169.441406 Z M 171.308594 170.707031 L 171.625 170.953125 C 171.785156 171.082031 171.800781 171.320312 171.660156 171.46875 C 169.648438 173.550781 167.636719 175.625 165.660156 177.660156 C 163.699219 179.683594 161.710938 181.734375 159.714844 183.796875 C 159.582031 183.933594 159.382812 183.976562 159.207031 183.902344 C 159.179688 183.890625 159.152344 183.878906 159.125 183.867188 C 158.828125 183.742188 158.746094 183.355469 158.96875 183.121094 C 161.230469 180.753906 163.542969 178.339844 165.867188 175.941406 C 166.433594 175.351562 167 174.761719 167.566406 174.167969 L 169.359375 172.292969 C 169.851562 171.777344 170.351562 171.261719 170.847656 170.738281 C 170.96875 170.613281 171.167969 170.597656 171.308594 170.707031 Z M 172.910156 171.964844 L 173.195312 172.1875 C 173.355469 172.316406 173.375 172.550781 173.234375 172.699219 C 171.695312 174.328125 170.167969 175.949219 168.65625 177.554688 C 166.441406 179.902344 164.199219 182.285156 161.929688 184.667969 C 161.804688 184.800781 161.609375 184.847656 161.4375 184.78125 C 161.320312 184.738281 161.207031 184.695312 161.09375 184.652344 C 160.78125 184.535156 160.6875 184.136719 160.921875 183.894531 C 162.734375 182.019531 164.542969 180.15625 166.328125 178.316406 C 168.34375 176.238281 170.398438 174.121094 172.449219 171.996094 C 172.574219 171.867188 172.769531 171.855469 172.910156 171.964844 Z M 174.480469 173.195312 L 175.003906 173.609375 C 175.164062 173.734375 175.179688 173.976562 175.039062 174.121094 C 171.277344 178.058594 167.523438 181.929688 163.855469 185.679688 C 163.792969 185.617188 163.71875 185.566406 163.628906 185.539062 C 163.546875 185.511719 163.464844 185.484375 163.378906 185.460938 C 163.058594 185.351562 162.957031 184.945312 163.191406 184.695312 C 165.261719 182.519531 167.308594 180.34375 169.332031 178.195312 C 170.878906 176.554688 172.441406 174.894531 174.019531 173.230469 C 174.140625 173.101562 174.339844 173.089844 174.480469 173.195312 Z M 176.289062 174.617188 L 176.523438 174.804688 C 176.683594 174.929688 176.703125 175.164062 176.5625 175.3125 C 176.117188 175.789062 175.667969 176.269531 175.21875 176.746094 C 175.121094 176.851562 174.964844 176.886719 174.832031 176.828125 C 174.730469 176.78125 174.628906 176.742188 174.53125 176.707031 C 174.292969 176.625 174.226562 176.324219 174.398438 176.144531 C 174.875 175.648438 175.351562 175.148438 175.828125 174.652344 C 175.949219 174.523438 176.148438 174.507812 176.289062 174.617188 Z M 178.199219 176.117188 C 178.359375 176.246094 178.375 176.484375 178.234375 176.632812 C 177.78125 177.109375 177.328125 177.578125 176.875 178.050781 C 176.734375 178.195312 176.496094 178.1875 176.367188 178.027344 C 176.277344 177.917969 176.179688 177.808594 176.070312 177.699219 C 175.9375 177.566406 175.933594 177.351562 176.0625 177.214844 C 176.488281 176.757812 176.917969 176.300781 177.34375 175.84375 C 177.523438 175.832031 177.628906 175.824219 177.804688 175.808594 Z M 155.273438 156.847656 C 155.121094 156.867188 154.980469 156.949219 154.886719 157.070312 L 142.554688 173.140625 C 142.40625 173.328125 142.429688 173.597656 142.601562 173.761719 C 142.660156 173.816406 142.71875 173.875 142.78125 173.933594 C 142.980469 174.117188 143.296875 174.089844 143.460938 173.875 L 144.9375 171.949219 C 144.949219 171.9375 144.960938 171.925781 144.972656 171.910156 C 149.132812 168 152.960938 163.707031 156.542969 159.527344 C 156.664062 159.390625 156.871094 159.371094 157.015625 159.484375 L 157.328125 159.726562 C 157.480469 159.851562 157.503906 160.082031 157.371094 160.230469 C 152.621094 165.691406 148.355469 170.078125 143.992188 173.980469 C 143.921875 174.050781 143.851562 174.117188 143.785156 174.183594 C 143.59375 174.375 143.601562 174.683594 143.800781 174.863281 L 143.808594 174.871094 C 143.988281 175.03125 144.265625 175.027344 144.4375 174.855469 C 144.5 174.792969 144.5625 174.730469 144.628906 174.664062 C 149.027344 170.730469 153.339844 166.296875 158.132812 160.777344 C 158.253906 160.640625 158.460938 160.621094 158.605469 160.730469 L 158.875 160.945312 C 159.070312 161.097656 159.089844 161.335938 158.953125 161.484375 C 154.289062 166.566406 149.832031 171.195312 145.398438 175.566406 C 145.203125 175.761719 145.21875 176.085938 145.429688 176.257812 L 145.4375 176.265625 C 145.621094 176.414062 145.882812 176.402344 146.050781 176.238281 C 150.523438 171.828125 155.019531 167.152344 159.730469 162.019531 C 159.851562 161.886719 160.054688 161.871094 160.195312 161.980469 L 160.460938 162.1875 C 160.621094 162.3125 160.636719 162.550781 160.496094 162.699219 C 159.121094 164.148438 157.757812 165.621094 156.433594 167.058594 C 153.453125 170.292969 150.367188 173.636719 147.085938 176.6875 L 146.960938 176.816406 C 146.765625 177.015625 146.789062 177.339844 147.007812 177.511719 L 147.015625 177.515625 C 147.199219 177.660156 147.460938 177.640625 147.625 177.472656 L 147.734375 177.359375 C 151.027344 174.300781 154.125 170.941406 157.117188 167.695312 C 158.472656 166.226562 159.871094 164.714844 161.28125 163.230469 C 161.40625 163.101562 161.605469 163.085938 161.746094 163.195312 L 162.007812 163.402344 C 162.167969 163.527344 162.183594 163.765625 162.042969 163.914062 C 161.878906 164.085938 161.714844 164.261719 161.554688 164.433594 C 159.96875 166.054688 158.363281 167.765625 156.8125 169.417969 C 154.347656 172.042969 151.796875 174.757812 149.167969 177.296875 L 148.519531 177.964844 C 148.320312 178.167969 148.351562 178.503906 148.585938 178.667969 L 148.589844 178.675781 C 148.777344 178.804688 149.027344 178.78125 149.183594 178.617188 L 149.820312 177.964844 C 152.460938 175.417969 155.015625 172.695312 157.488281 170.0625 C 159.039062 168.410156 160.640625 166.707031 162.222656 165.085938 C 162.425781 164.871094 162.625 164.660156 162.828125 164.445312 C 162.949219 164.3125 163.148438 164.300781 163.289062 164.410156 L 163.566406 164.625 C 163.726562 164.753906 163.742188 164.988281 163.601562 165.136719 C 163.050781 165.71875 162.484375 166.308594 161.902344 166.917969 C 161.316406 167.527344 160.734375 168.136719 160.152344 168.742188 C 157.617188 171.304688 155.378906 173.625 153.113281 176.035156 L 151.351562 177.855469 C 151.039062 178.179688 150.722656 178.507812 150.40625 178.835938 C 150.238281 178.871094 150.113281 178.898438 149.949219 178.933594 C 149.585938 178.816406 149.15625 179.074219 149.179688 179.59375 C 149.183594 179.734375 149.269531 179.855469 149.382812 179.933594 C 153.667969 182.8125 158.339844 185.074219 163.273438 186.65625 C 163.582031 186.753906 163.910156 186.585938 164.007812 186.277344 C 164.007812 186.273438 164.007812 186.269531 164.011719 186.265625 L 164.011719 186.269531 C 164.285156 186.355469 164.578125 186.28125 164.777344 186.078125 C 166.722656 184.085938 168.6875 182.066406 170.667969 180.019531 C 170.851562 179.832031 171.15625 179.902344 171.246094 180.144531 C 171.285156 180.253906 171.335938 180.359375 171.398438 180.46875 C 171.46875 180.597656 171.449219 180.761719 171.347656 180.867188 C 169.601562 182.714844 167.839844 184.566406 166.0625 186.410156 C 165.90625 186.570312 165.980469 186.839844 166.195312 186.898438 C 166.324219 186.933594 166.453125 186.964844 166.585938 187 C 166.6875 187.027344 166.792969 186.996094 166.867188 186.917969 C 168.644531 185.074219 170.40625 183.226562 172.144531 181.378906 C 172.21875 181.449219 172.296875 181.515625 172.382812 181.578125 C 172.484375 181.660156 172.585938 181.734375 172.6875 181.800781 C 172.871094 181.921875 172.894531 182.183594 172.742188 182.339844 C 171.222656 183.90625 169.734375 185.441406 168.265625 186.945312 C 168.105469 187.109375 168.1875 187.386719 168.410156 187.433594 C 168.542969 187.464844 168.675781 187.492188 168.808594 187.523438 C 168.90625 187.542969 169.007812 187.511719 169.078125 187.441406 C 171.027344 185.414062 173.609375 182.675781 173.648438 182.617188 C 173.796875 182.402344 173.835938 182.183594 173.808594 181.972656 C 173.757812 181.800781 173.691406 181.632812 173.609375 181.472656 C 173.441406 181.207031 172.910156 180.769531 172.890625 180.753906 C 172.875 180.746094 172.289062 180.242188 172.25 179.859375 C 172.242188 179.765625 172.273438 179.675781 172.324219 179.601562 C 172.328125 179.535156 172.351562 179.46875 172.394531 179.410156 L 173.582031 177.882812 C 173.660156 177.78125 173.785156 177.734375 173.914062 177.753906 C 174.152344 177.792969 174.53125 177.9375 174.957031 178.269531 C 175.386719 178.609375 175.859375 179.28125 175.933594 179.34375 C 176.90625 180.175781 178.378906 177.835938 179.066406 177.117188 C 179.164062 177.015625 179.324219 177.003906 179.4375 177.089844 C 179.554688 177.183594 179.578125 177.355469 179.488281 177.476562 L 177.492188 180.144531 C 177.480469 180.15625 177.472656 180.167969 177.464844 180.179688 C 175.800781 181.898438 173.050781 184.941406 171.542969 186.625 C 171.074219 187.148438 171.363281 187.984375 172.054688 188.101562 C 172.382812 188.160156 172.652344 188.203125 172.726562 188.214844 C 172.832031 188.230469 172.933594 188.183594 173 188.097656 L 180.925781 177.503906 C 180.972656 177.4375 181.007812 177.367188 181.027344 177.292969 C 181.078125 177.074219 181.007812 176.835938 180.820312 176.6875 L 155.707031 156.96875 C 155.582031 156.871094 155.429688 156.828125 155.273438 156.847656 " fill-opacity="1" fill-rule="nonzero"/></g><path fill="#ffffff" d="M 165.082031 133.230469 C 164.847656 133.410156 164.082031 134.613281 164.257812 135.996094 C 164.402344 137.148438 165.945312 139.710938 167.527344 141.542969 L 167.671875 140.332031 C 167.691406 140.167969 167.777344 140.023438 167.910156 139.925781 C 168.042969 139.832031 168.207031 139.792969 168.367188 139.828125 L 171.949219 140.574219 C 174.441406 140.980469 175.910156 140.613281 176.476562 139.429688 C 176.59375 139.1875 176.945312 138.457031 176 137.722656 C 175.960938 137.691406 175.9375 137.671875 175.925781 137.660156 C 175.742188 137.484375 175.691406 137.210938 175.796875 136.984375 C 175.90625 136.753906 176.144531 136.621094 176.394531 136.652344 C 176.425781 136.65625 179.53125 137.027344 180.851562 137.027344 C 181.128906 137.027344 181.21875 137.007812 181.234375 137.007812 C 182.820312 136.664062 183.652344 135.9375 183.710938 134.835938 C 183.734375 134.472656 183.671875 134.054688 183.527344 133.601562 C 183.472656 133.421875 183.503906 133.230469 183.613281 133.078125 C 183.71875 132.929688 183.894531 132.839844 184.078125 132.835938 C 185.140625 132.832031 186.328125 131.785156 186.398438 130.109375 C 186.464844 128.636719 186.246094 128.367188 185.722656 127.710938 C 185.640625 127.609375 185.550781 127.5 185.460938 127.378906 C 185.285156 127.15625 185.300781 126.839844 185.488281 126.628906 C 185.5 126.617188 186.714844 125.234375 186.566406 123.605469 C 186.425781 122.058594 185.324219 120.527344 184.34375 119.597656 C 183.984375 119.664062 183.625 119.695312 183.28125 119.695312 C 180.921875 119.695312 179.328125 118.203125 178.402344 116.949219 C 178.054688 116.476562 177.917969 115.941406 178.003906 115.398438 C 178.117188 114.691406 178.621094 113.988281 179.417969 113.425781 L 179.828125 113.117188 C 174.609375 113.457031 171.804688 113.902344 171.386719 114.195312 C 170.945312 114.605469 170.082031 115.898438 170.121094 116.785156 C 170.136719 117.121094 170.289062 117.273438 170.398438 117.359375 C 170.640625 117.539062 170.703125 117.871094 170.546875 118.128906 C 170.394531 118.386719 170.074219 118.484375 169.800781 118.355469 C 169.53125 118.226562 169.164062 118.15625 168.773438 118.15625 C 167.90625 118.15625 166.804688 118.519531 166.320312 119.539062 C 165.792969 120.648438 165.074219 122.167969 167.164062 124.613281 L 167.300781 124.703125 C 167.523438 124.863281 167.609375 125.152344 167.507812 125.40625 C 167.402344 125.660156 167.136719 125.808594 166.871094 125.765625 C 166.839844 125.757812 166.804688 125.757812 166.769531 125.757812 C 165.988281 125.757812 164.535156 126.648438 164.296875 127.269531 C 164.289062 127.285156 164.28125 127.304688 164.273438 127.324219 C 164.230469 127.410156 163.226562 129.570312 165.214844 132.246094 C 165.367188 132.375 165.445312 132.570312 165.421875 132.769531 C 165.398438 132.972656 165.265625 133.148438 165.082031 133.230469 Z M 167.953125 143.441406 C 167.804688 143.441406 167.660156 143.386719 167.550781 143.277344 C 165.675781 141.457031 163.324219 137.945312 163.101562 136.144531 C 162.929688 134.785156 163.457031 133.367188 164.054688 132.628906 C 162.023438 129.628906 163.074219 127.136719 163.21875 126.828125 C 163.558594 125.972656 164.75 125.132812 165.804688 124.773438 C 163.835938 122.0625 164.757812 120.117188 165.269531 119.035156 C 165.988281 117.523438 167.550781 116.984375 168.773438 116.984375 C 168.839844 116.984375 168.90625 116.988281 168.96875 116.988281 C 168.964844 116.941406 168.960938 116.890625 168.957031 116.839844 C 168.894531 115.484375 170.003906 113.878906 170.613281 113.320312 C 171.296875 112.695312 175.023438 112.195312 181.695312 111.832031 C 181.953125 111.816406 182.1875 111.972656 182.277344 112.214844 C 182.363281 112.457031 182.28125 112.730469 182.078125 112.882812 L 180.101562 114.371094 C 179.558594 114.757812 179.21875 115.195312 179.15625 115.585938 C 179.117188 115.816406 179.179688 116.035156 179.339844 116.253906 C 180.101562 117.289062 181.40625 118.527344 183.28125 118.527344 C 183.636719 118.527344 184.007812 118.480469 184.382812 118.394531 C 184.566406 118.351562 184.757812 118.398438 184.898438 118.523438 C 186.089844 119.566406 187.542969 121.492188 187.726562 123.496094 C 187.871094 125.0625 187.113281 126.386719 186.664062 127.019531 C 187.292969 127.808594 187.640625 128.367188 187.566406 130.160156 C 187.484375 131.988281 186.304688 133.527344 184.804688 133.914062 C 184.871094 134.257812 184.894531 134.589844 184.875 134.902344 C 184.785156 136.546875 183.578125 137.699219 181.480469 138.152344 C 181.332031 138.183594 181.132812 138.199219 180.851562 138.199219 C 180.046875 138.199219 178.675781 138.074219 177.636719 137.96875 C 177.886719 138.582031 177.855469 139.257812 177.527344 139.9375 C 176.902344 141.242188 175.609375 141.902344 173.6875 141.902344 C 173.105469 141.902344 172.472656 141.84375 171.75 141.726562 C 171.742188 141.726562 171.734375 141.722656 171.726562 141.722656 L 168.753906 141.105469 L 168.53125 142.925781 C 168.507812 143.148438 168.359375 143.332031 168.148438 143.40625 C 168.085938 143.429688 168.019531 143.441406 167.953125 143.441406 " fill-opacity="1" fill-rule="nonzero"/><path fill="#ffffff" d="M 185.921875 127.609375 C 184.386719 127.609375 182.902344 127.15625 181.625 126.300781 L 169.726562 118.3125 L 170.371094 117.339844 L 182.273438 125.324219 C 183.355469 126.050781 184.617188 126.4375 185.921875 126.4375 L 185.921875 127.609375 " fill-opacity="1" fill-rule="nonzero"/><path fill="#ffffff" d="M 185.703125 117.925781 C 184.855469 118.324219 184.042969 118.527344 183.28125 118.527344 C 181.40625 118.527344 180.105469 117.289062 179.339844 116.253906 C 179.179688 116.035156 179.117188 115.816406 179.15625 115.585938 C 179.164062 115.539062 179.175781 115.492188 179.191406 115.445312 C 179.625 115.566406 180.082031 115.949219 180.496094 116.296875 C 180.96875 116.695312 181.421875 117.074219 181.875 117.074219 C 181.972656 117.074219 182.070312 117.058594 182.167969 117.019531 C 184.539062 116.074219 185.171875 115.070312 185.28125 114.394531 C 185.363281 113.886719 185.171875 113.386719 184.75 113.03125 C 184.714844 113 184.675781 112.976562 184.628906 112.964844 L 182.757812 112.371094 L 185.863281 110.03125 C 186.339844 109.832031 186.949219 109.722656 187.628906 109.722656 C 188.148438 109.722656 188.675781 109.789062 189.164062 109.90625 L 196.261719 113.167969 C 193.03125 114.09375 190.554688 114.9375 185.703125 117.925781 Z M 180.101562 114.371094 L 182.066406 112.890625 L 184.347656 113.609375 C 184.496094 113.753906 184.640625 113.976562 184.589844 114.28125 C 184.535156 114.609375 184.167969 115.464844 181.910156 116.367188 C 181.746094 116.433594 181.261719 116.027344 180.945312 115.757812 C 180.542969 115.417969 180.078125 115.03125 179.570312 114.832031 C 179.714844 114.675781 179.894531 114.519531 180.101562 114.371094 Z M 198.1875 112.765625 L 189.601562 108.820312 C 189.566406 108.804688 189.535156 108.792969 189.5 108.785156 C 188.90625 108.632812 188.257812 108.554688 187.628906 108.554688 C 186.761719 108.554688 185.964844 108.703125 185.332031 108.984375 C 185.292969 109.003906 185.253906 109.027344 185.21875 109.050781 L 179.417969 113.425781 C 178.621094 113.988281 178.117188 114.691406 178.003906 115.398438 C 177.917969 115.941406 178.054688 116.476562 178.402344 116.949219 C 179.328125 118.203125 180.921875 119.699219 183.28125 119.699219 C 184.222656 119.699219 185.214844 119.453125 186.230469 118.972656 C 186.25 118.964844 186.269531 118.953125 186.285156 118.941406 C 191.484375 115.738281 193.890625 115.054688 197.535156 114.023438 L 198.105469 113.863281 C 198.339844 113.796875 198.507812 113.589844 198.527344 113.34375 C 198.546875 113.097656 198.410156 112.867188 198.1875 112.765625 " fill-opacity="1" fill-rule="nonzero"/><path fill="#ffffff" d="M 179.492188 131.976562 C 178.601562 132.394531 178.175781 134.25 178.425781 135.128906 C 178.542969 135.542969 179.027344 135.683594 179.394531 135.816406 C 180.128906 136.085938 181.144531 136.304688 181.90625 136.046875 C 182.570312 135.824219 183 135.050781 183.140625 134.402344 C 183.253906 133.886719 183.269531 133.105469 182.820312 132.753906 C 182.453125 132.464844 181.902344 132.28125 181.46875 132.125 C 180.871094 131.910156 180.199219 131.746094 179.578125 131.941406 C 179.148438 132.074219 179.332031 132.753906 179.761719 132.617188 C 180.53125 132.378906 181.46875 132.835938 182.144531 133.183594 C 182.234375 133.230469 182.375 133.28125 182.453125 133.351562 C 182.484375 133.382812 182.507812 133.417969 182.457031 133.355469 C 182.382812 133.253906 182.503906 133.746094 182.503906 133.722656 C 182.546875 134.273438 182.28125 135.070312 181.761719 135.335938 C 181.234375 135.601562 180.398438 135.390625 179.859375 135.230469 C 179.660156 135.171875 179.464844 135.101562 179.277344 135.011719 C 179.21875 134.984375 179.136719 134.957031 179.085938 134.914062 C 178.972656 134.8125 179.113281 135.035156 179.09375 134.890625 C 179.015625 134.269531 179.207031 132.882812 179.847656 132.582031 C 180.253906 132.390625 179.898438 131.785156 179.492188 131.976562 " fill-opacity="1" fill-rule="nonzero"/><path fill="#ffffff" d="M 173.542969 136.378906 C 172.582031 136.441406 172.121094 137.375 172.035156 138.242188 C 171.933594 139.242188 172.445312 139.699219 173.378906 139.929688 C 174.210938 140.132812 175.171875 140.214844 175.574219 139.308594 C 175.851562 138.683594 175.894531 137.910156 175.875 137.234375 C 175.871094 137.070312 175.769531 136.945312 175.621094 136.894531 C 174.957031 136.671875 174.246094 136.410156 173.542969 136.378906 C 173.09375 136.359375 173.09375 137.0625 173.542969 137.082031 C 174.175781 137.109375 174.835938 137.371094 175.433594 137.570312 C 175.347656 137.460938 175.261719 137.34375 175.175781 137.234375 C 175.1875 137.613281 175.167969 138.003906 175.109375 138.378906 C 175.066406 138.628906 175.019531 139.03125 174.832031 139.21875 C 174.652344 139.398438 174.382812 139.363281 174.144531 139.347656 C 173.640625 139.308594 172.746094 139.207031 172.714844 138.578125 C 172.691406 138.054688 172.90625 137.125 173.542969 137.082031 C 173.992188 137.054688 173.996094 136.351562 173.542969 136.378906 " fill-opacity="1" fill-rule="nonzero"/><path fill="#000000" d="M 166.964844 125.1875 L 176.726562 130.257812 L 184.082031 133.421875 " fill-opacity="1" fill-rule="nonzero"/><path fill="#ffffff" d="M 183.851562 133.960938 L 176.496094 130.792969 C 176.484375 130.789062 176.472656 130.785156 176.460938 130.777344 L 166.699219 125.707031 L 167.234375 124.667969 L 176.976562 129.726562 L 184.3125 132.882812 L 183.851562 133.960938 " fill-opacity="1" fill-rule="nonzero"/><path fill="#ffffff" d="M 182.917969 123.070312 C 182.867188 123.070312 182.800781 123.078125 182.761719 123.109375 C 182.632812 123.21875 182.40625 123.464844 182.0625 124.019531 C 181.929688 124.226562 181.890625 124.472656 181.949219 124.710938 C 182.007812 124.953125 182.15625 125.15625 182.367188 125.28125 C 184.074219 126.3125 184.609375 126.429688 184.75 126.4375 C 185.105469 126.148438 185.304688 125.765625 185.332031 125.292969 C 185.363281 124.773438 185.175781 124.355469 185.097656 124.277344 C 184.742188 123.925781 183.535156 123.070312 182.917969 123.070312 Z M 184.765625 127.140625 C 184.597656 127.140625 184.089844 127.140625 182.007812 125.882812 C 181.632812 125.660156 181.371094 125.300781 181.269531 124.875 C 181.167969 124.449219 181.238281 124.015625 181.46875 123.644531 C 181.785156 123.136719 182.070312 122.777344 182.3125 122.570312 C 182.472656 122.433594 182.675781 122.367188 182.917969 122.367188 C 183.855469 122.367188 185.269531 123.464844 185.585938 123.773438 C 185.832031 124.015625 186.074219 124.648438 186.03125 125.339844 C 186 125.820312 185.820312 126.507812 185.132812 127.027344 C 185.035156 127.101562 184.914062 127.140625 184.765625 127.140625 " fill-opacity="1" fill-rule="nonzero"/><path fill="#ffffff" d="M 182.847656 128.105469 C 182.730469 128.105469 182.640625 128.125 182.597656 128.160156 C 182.46875 128.269531 182.242188 128.519531 181.894531 129.074219 C 181.675781 129.421875 181.496094 130.003906 181.585938 130.386719 C 181.617188 130.507812 181.671875 130.59375 181.753906 130.644531 C 182.605469 131.15625 183.777344 131.625 184.210938 131.625 C 184.222656 131.625 184.230469 131.625 184.238281 131.625 C 184.90625 131.15625 185.105469 130.460938 185.164062 130.085938 C 185.25 129.550781 185.148438 129.15625 185.089844 129.082031 C 184.804688 128.800781 183.554688 128.105469 182.847656 128.105469 Z M 184.210938 132.328125 C 183.582031 132.328125 182.257812 131.765625 181.394531 131.246094 C 181.148438 131.097656 180.980469 130.859375 180.90625 130.550781 C 180.761719 129.945312 181 129.183594 181.304688 128.699219 C 181.621094 128.191406 181.902344 127.832031 182.148438 127.625 C 182.320312 127.476562 182.558594 127.402344 182.847656 127.402344 C 183.800781 127.402344 185.214844 128.222656 185.582031 128.585938 C 185.871094 128.867188 185.925781 129.5 185.882812 129.960938 C 185.800781 130.898438 185.335938 131.722656 184.605469 132.222656 C 184.503906 132.292969 184.371094 132.328125 184.210938 132.328125 " fill-opacity="1" fill-rule="nonzero"/><path fill="#000000" d="M 176.324219 137.234375 L 164.84375 132.699219 " fill-opacity="1" fill-rule="nonzero"/><path fill="#ffffff" d="M 176.113281 137.777344 L 164.632812 133.242188 L 165.058594 132.152344 L 176.539062 136.6875 L 176.113281 137.777344 " fill-opacity="1" fill-rule="nonzero"/><path fill="#ffffff" d="M 171.429688 118.378906 C 171.351562 117.707031 171.238281 117.042969 171.097656 116.382812 C 171.007812 115.941406 170.34375 116.171875 170.4375 116.609375 C 170.5625 117.207031 170.660156 117.816406 170.734375 118.425781 C 170.785156 118.871094 171.484375 118.828125 171.429688 118.378906 " fill-opacity="1" fill-rule="nonzero"/><path fill="#ffffff" d="M 172.453125 119.316406 C 172.332031 118.492188 172.203125 117.671875 172.058594 116.851562 C 171.980469 116.410156 171.285156 116.453125 171.359375 116.898438 C 171.503906 117.714844 171.632812 118.539062 171.753906 119.359375 C 171.816406 119.804688 172.515625 119.761719 172.453125 119.316406 " fill-opacity="1" fill-rule="nonzero"/><path fill="#ffffff" d="M 173.515625 119.722656 C 173.328125 119.019531 173.1875 118.308594 173.082031 117.589844 C 173.019531 117.144531 172.320312 117.1875 172.386719 117.632812 C 172.496094 118.414062 172.652344 119.1875 172.851562 119.945312 C 172.96875 120.386719 173.628906 120.160156 173.515625 119.722656 " fill-opacity="1" fill-rule="nonzero"/><path fill="#ffffff" d="M 174.421875 120.453125 C 174.257812 119.769531 174.125 119.078125 174.015625 118.378906 C 173.945312 117.933594 173.246094 117.976562 173.316406 118.425781 C 173.4375 119.183594 173.582031 119.933594 173.757812 120.679688 C 173.859375 121.121094 174.523438 120.890625 174.421875 120.453125 " fill-opacity="1" fill-rule="nonzero"/><path fill="#ffffff" d="M 175.441406 121.214844 C 175.28125 120.519531 175.144531 119.820312 175.035156 119.113281 C 174.964844 118.667969 174.265625 118.710938 174.335938 119.15625 C 174.457031 119.921875 174.605469 120.683594 174.777344 121.441406 C 174.878906 121.882812 175.539062 121.652344 175.441406 121.214844 " fill-opacity="1" fill-rule="nonzero"/><path fill="#ffffff" d="M 176.445312 121.835938 C 176.34375 121.144531 176.210938 120.460938 176.042969 119.78125 C 175.9375 119.34375 175.277344 119.570312 175.382812 120.007812 C 175.53125 120.625 175.652344 121.25 175.746094 121.878906 C 175.8125 122.324219 176.511719 122.28125 176.445312 121.835938 " fill-opacity="1" fill-rule="nonzero"/><path fill="#ffffff" d="M 177.339844 122.246094 C 177.253906 121.730469 177.148438 121.222656 177.027344 120.714844 C 176.921875 120.273438 176.261719 120.503906 176.367188 120.9375 C 176.472656 121.386719 176.566406 121.835938 176.644531 122.289062 C 176.71875 122.734375 177.417969 122.691406 177.339844 122.246094 " fill-opacity="1" fill-rule="nonzero"/><path fill="#ffffff" d="M 178.414062 122.855469 C 178.296875 122.363281 178.207031 121.867188 178.140625 121.367188 C 178.082031 120.921875 177.382812 120.964844 177.441406 121.414062 C 177.519531 121.972656 177.621094 122.53125 177.75 123.078125 C 177.855469 123.519531 178.519531 123.292969 178.414062 122.855469 " fill-opacity="1" fill-rule="nonzero"/><path fill="#ffffff" d="M 179.613281 123.855469 C 179.519531 123.246094 179.375 122.648438 179.179688 122.0625 C 179.035156 121.632812 178.371094 121.855469 178.515625 122.285156 C 178.695312 122.8125 178.828125 123.351562 178.917969 123.902344 C 178.988281 124.34375 179.683594 124.300781 179.613281 123.855469 " fill-opacity="1" fill-rule="nonzero"/><path fill="#ffffff" d="M 180.675781 124.761719 C 180.582031 124.191406 180.464844 123.625 180.324219 123.066406 C 180.210938 122.625 179.546875 122.851562 179.660156 123.289062 C 179.789062 123.789062 179.894531 124.296875 179.976562 124.804688 C 180.046875 125.25 180.746094 125.207031 180.675781 124.761719 " fill-opacity="1" fill-rule="nonzero"/><path fill="#ffffff" d="M 184.054688 119.359375 C 184.050781 119.84375 184 120.320312 183.90625 120.792969 C 183.824219 121.238281 184.507812 121.371094 184.59375 120.925781 C 184.695312 120.394531 184.746094 119.855469 184.753906 119.316406 C 184.757812 118.863281 184.058594 118.910156 184.054688 119.359375 " fill-opacity="1" fill-rule="nonzero"/><path fill="#ffffff" d="M 185.023438 120.0625 C 184.976562 120.675781 184.925781 121.292969 184.875 121.90625 C 184.839844 122.355469 185.523438 122.492188 185.5625 122.039062 C 185.613281 121.425781 185.660156 120.8125 185.710938 120.195312 C 185.746094 119.75 185.0625 119.609375 185.023438 120.0625 " fill-opacity="1" fill-rule="nonzero"/><path fill="#ffffff" d="M 185.832031 121.324219 C 185.808594 121.890625 185.769531 122.453125 185.714844 123.019531 C 185.671875 123.464844 186.355469 123.605469 186.398438 123.152344 C 186.460938 122.53125 186.503906 121.90625 186.527344 121.277344 C 186.546875 120.824219 185.847656 120.875 185.832031 121.324219 " fill-opacity="1" fill-rule="nonzero"/><path fill="#ffffff" d="M 167.992188 125.261719 C 167.757812 124.648438 167.578125 124.023438 167.449219 123.378906 C 167.359375 122.9375 166.699219 123.164062 166.785156 123.605469 C 166.914062 124.25 167.09375 124.875 167.332031 125.488281 C 167.492188 125.910156 168.15625 125.6875 167.992188 125.261719 " fill-opacity="1" fill-rule="nonzero"/><path fill="#ffffff" d="M 169.4375 126.195312 C 169.238281 125.507812 169.058594 124.816406 168.90625 124.117188 C 168.808594 123.675781 168.144531 123.902344 168.242188 124.339844 C 168.394531 125.039062 168.574219 125.734375 168.773438 126.417969 C 168.902344 126.855469 169.5625 126.628906 169.4375 126.195312 " fill-opacity="1" fill-rule="nonzero"/><path fill="#ffffff" d="M 170.839844 126.839844 C 170.691406 126.261719 170.484375 125.671875 170.394531 125.085938 C 170.332031 124.640625 169.632812 124.683594 169.699219 125.128906 C 169.792969 125.78125 170.011719 126.425781 170.175781 127.0625 C 170.289062 127.5 170.953125 127.273438 170.839844 126.839844 " fill-opacity="1" fill-rule="nonzero"/><path fill="#ffffff" d="M 172.199219 127.515625 C 172.039062 126.910156 171.882812 126.304688 171.726562 125.699219 C 171.609375 125.261719 170.949219 125.488281 171.0625 125.925781 C 171.21875 126.527344 171.378906 127.132812 171.535156 127.738281 C 171.648438 128.175781 172.3125 127.949219 172.199219 127.515625 " fill-opacity="1" fill-rule="nonzero"/><path fill="#ffffff" d="M 173.515625 128.1875 C 173.300781 127.578125 173.113281 126.96875 172.945312 126.347656 C 172.828125 125.910156 172.167969 126.136719 172.285156 126.570312 C 172.449219 127.191406 172.640625 127.804688 172.855469 128.410156 C 173.003906 128.835938 173.667969 128.613281 173.515625 128.1875 " fill-opacity="1" fill-rule="nonzero"/><path fill="#ffffff" d="M 175.34375 130.589844 C 175.1875 130.128906 175.011719 129.675781 174.816406 129.230469 C 174.796875 129.183594 174.765625 129.144531 174.734375 129.113281 C 174.761719 129.046875 174.769531 128.972656 174.746094 128.886719 C 174.621094 128.433594 174.496094 127.976562 174.371094 127.519531 C 174.25 127.082031 173.589844 127.308594 173.707031 127.742188 C 173.832031 128.199219 173.957031 128.65625 174.082031 129.113281 C 174.09375 129.160156 174.117188 129.195312 174.140625 129.230469 C 174.117188 129.292969 174.117188 129.371094 174.152344 129.457031 C 174.347656 129.902344 174.523438 130.355469 174.679688 130.816406 C 174.824219 131.242188 175.488281 131.019531 175.34375 130.589844 " fill-opacity="1" fill-rule="nonzero"/><path fill="#ffffff" d="M 173.195312 135.828125 C 173.007812 135.390625 172.835938 134.941406 172.683594 134.488281 C 172.542969 134.058594 171.878906 134.285156 172.023438 134.710938 C 172.175781 135.167969 172.34375 135.613281 172.535156 136.054688 C 172.710938 136.464844 173.375 136.246094 173.195312 135.828125 " fill-opacity="1" fill-rule="nonzero"/><path fill="#ffffff" d="M 174.519531 136.097656 C 174.230469 135.527344 173.980469 134.941406 173.765625 134.34375 C 173.609375 133.917969 172.949219 134.140625 173.101562 134.566406 C 173.335938 135.226562 173.621094 135.867188 173.941406 136.492188 C 174.148438 136.890625 174.726562 136.496094 174.519531 136.097656 " fill-opacity="1" fill-rule="nonzero"/><path fill="#ffffff" d="M 175.960938 136.828125 C 175.636719 136.15625 175.3125 135.480469 174.992188 134.808594 C 174.796875 134.40625 174.132812 134.628906 174.328125 135.035156 C 174.652344 135.707031 174.972656 136.378906 175.296875 137.050781 C 175.488281 137.453125 176.15625 137.234375 175.960938 136.828125 " fill-opacity="1" fill-rule="nonzero"/><path fill="#ffffff" d="M 177.125 136.945312 L 176.507812 135.394531 C 176.339844 134.976562 175.675781 135.199219 175.84375 135.617188 L 176.460938 137.167969 C 176.628906 137.585938 177.292969 137.363281 177.125 136.945312 " fill-opacity="1" fill-rule="nonzero"/><path fill="#ffffff" d="M 178.296875 137.089844 C 178.136719 136.71875 177.976562 136.351562 177.816406 135.980469 C 177.636719 135.570312 176.972656 135.789062 177.152344 136.207031 C 177.3125 136.574219 177.472656 136.941406 177.632812 137.3125 C 177.8125 137.722656 178.476562 137.503906 178.296875 137.089844 " fill-opacity="1" fill-rule="nonzero"/><path fill="#ffffff" d="M 165.082031 135.917969 C 164.757812 135.457031 164.425781 135 164.082031 134.550781 C 163.8125 134.191406 163.230469 134.582031 163.503906 134.941406 C 163.84375 135.394531 164.179688 135.851562 164.503906 136.3125 C 164.761719 136.679688 165.34375 136.289062 165.082031 135.917969 " fill-opacity="1" fill-rule="nonzero"/><path fill="#ffffff" d="M 165.863281 137.515625 C 165.320312 137.132812 164.785156 136.730469 164.261719 136.316406 C 163.910156 136.035156 163.453125 136.570312 163.808594 136.851562 C 164.332031 137.265625 164.863281 137.664062 165.410156 138.050781 C 165.773438 138.308594 166.234375 137.777344 165.863281 137.515625 " fill-opacity="1" fill-rule="nonzero"/><path fill="#ffffff" d="M 166.605469 138.671875 C 166.070312 138.5 165.535156 138.328125 165 138.15625 C 164.570312 138.015625 164.441406 138.707031 164.867188 138.84375 C 165.402344 139.015625 165.9375 139.191406 166.472656 139.363281 C 166.898438 139.5 167.027344 138.8125 166.605469 138.671875 " fill-opacity="1" fill-rule="nonzero"/><path fill="#ffffff" d="M 167.042969 139.8125 C 166.722656 139.75 166.421875 139.652344 166.128906 139.507812 C 165.722656 139.308594 165.421875 139.941406 165.824219 140.140625 C 166.167969 140.308594 166.53125 140.429688 166.910156 140.503906 C 167.351562 140.585938 167.484375 139.898438 167.042969 139.8125 " fill-opacity="1" fill-rule="nonzero"/><path fill="#ffffff" d="M 176.285156 130.820312 C 176.191406 130.527344 176.109375 130.222656 176.054688 129.917969 C 176.019531 129.730469 175.886719 129.578125 175.683594 129.589844 C 175.511719 129.601562 175.324219 129.777344 175.355469 129.964844 C 175.421875 130.332031 175.507812 130.691406 175.621094 131.046875 C 175.757812 131.476562 176.421875 131.253906 176.285156 130.820312 " fill-opacity="1" fill-rule="nonzero"/><path fill="#ffffff" d="M 177.113281 131.089844 C 177.066406 130.804688 176.996094 130.535156 176.890625 130.265625 C 176.824219 130.089844 176.632812 129.984375 176.449219 130.046875 C 176.277344 130.105469 176.160156 130.3125 176.230469 130.492188 C 176.308594 130.699219 176.378906 130.914062 176.417969 131.132812 C 176.449219 131.320312 176.585938 131.476562 176.789062 131.460938 C 176.960938 131.449219 177.148438 131.277344 177.113281 131.089844 " fill-opacity="1" fill-rule="nonzero"/><path fill="#ffffff" d="M 182.578125 117.710938 C 182.425781 117.996094 182.269531 118.285156 182.113281 118.570312 C 181.898438 118.96875 182.527344 119.273438 182.742188 118.875 C 182.898438 118.589844 183.054688 118.300781 183.207031 118.015625 C 183.425781 117.617188 182.792969 117.3125 182.578125 117.710938 " fill-opacity="1" fill-rule="nonzero"/><path fill="#ffffff" d="M 184.242188 117.554688 C 184.113281 117.441406 183.859375 117.4375 183.75 117.59375 C 183.539062 117.902344 183.351562 118.226562 183.203125 118.570312 C 183.023438 118.984375 183.652344 119.292969 183.832031 118.875 C 183.957031 118.589844 184.105469 118.308594 184.28125 118.050781 C 184.390625 117.894531 184.398438 117.6875 184.242188 117.554688 " fill-opacity="1" fill-rule="nonzero"/><path fill="#ffffff" d="M 185.492188 116.84375 C 185.335938 116.769531 185.085938 116.828125 185.023438 117.007812 C 184.902344 117.363281 184.742188 117.710938 184.53125 118.027344 C 184.429688 118.183594 184.414062 118.386719 184.570312 118.523438 C 184.699219 118.632812 184.957031 118.644531 185.0625 118.484375 C 185.308594 118.113281 185.511719 117.730469 185.65625 117.3125 C 185.71875 117.132812 185.675781 116.933594 185.492188 116.84375 " fill-opacity="1" fill-rule="nonzero"/><path fill="#ffffff" d="M 186.386719 116.421875 L 185.804688 117.789062 C 185.628906 118.203125 186.257812 118.511719 186.433594 118.09375 C 186.628906 117.640625 186.824219 117.183594 187.015625 116.726562 C 187.195312 116.3125 186.566406 116.007812 186.386719 116.421875 " fill-opacity="1" fill-rule="nonzero"/><path fill="#ffffff" d="M 187.765625 115.730469 C 187.691406 116.046875 187.597656 116.355469 187.472656 116.65625 C 187.300781 117.074219 187.933594 117.382812 188.101562 116.960938 C 188.246094 116.605469 188.367188 116.238281 188.449219 115.863281 C 188.554688 115.421875 187.867188 115.289062 187.765625 115.730469 " fill-opacity="1" fill-rule="nonzero"/><path fill="#ffffff" d="M 189.339844 114.828125 C 189.136719 114.789062 188.988281 114.921875 188.929688 115.105469 C 188.8125 115.46875 188.695312 115.832031 188.578125 116.195312 C 188.515625 116.378906 188.683594 116.578125 188.851562 116.609375 C 189.054688 116.648438 189.203125 116.511719 189.261719 116.332031 C 189.378906 115.96875 189.496094 115.601562 189.617188 115.238281 C 189.675781 115.058594 189.507812 114.859375 189.339844 114.828125 " fill-opacity="1" fill-rule="nonzero"/><path fill="#ffffff" d="M 190.390625 114.550781 C 190.230469 114.929688 190.058594 115.308594 189.878906 115.679688 C 189.679688 116.085938 190.308594 116.390625 190.507812 115.984375 C 190.691406 115.613281 190.859375 115.238281 191.023438 114.855469 C 191.199219 114.441406 190.570312 114.132812 190.390625 114.550781 " fill-opacity="1" fill-rule="nonzero"/><path fill="#ffffff" d="M 209.105469 139.246094 L 204.746094 144.679688 C 204.730469 144.703125 204.714844 144.726562 204.695312 144.75 C 204.46875 145.144531 204.167969 145.585938 203.832031 146.027344 L 203.832031 145.292969 C 203.832031 144.839844 203.136719 144.886719 203.136719 145.335938 L 203.136719 146.859375 C 203.136719 146.871094 203.136719 146.878906 203.140625 146.890625 C 202.996094 147.058594 202.851562 147.222656 202.707031 147.375 L 202.707031 146.113281 C 202.707031 145.65625 202.007812 145.707031 202.007812 146.15625 L 202.007812 148.0625 C 201.972656 148.097656 201.933594 148.132812 201.898438 148.160156 L 201.890625 148.164062 C 201.722656 148.308594 201.464844 148.1875 201.464844 147.964844 L 201.464844 147.359375 C 201.464844 146.90625 200.765625 146.957031 200.765625 147.40625 L 200.765625 148.984375 C 200.765625 149.0625 200.730469 149.140625 200.667969 149.191406 C 200.613281 149.238281 200.5625 149.28125 200.507812 149.328125 C 200.332031 149.472656 200.066406 149.347656 200.066406 149.121094 L 200.066406 148.335938 C 200.066406 147.882812 199.367188 147.933594 199.367188 148.382812 L 199.367188 150.144531 C 199.367188 150.226562 199.332031 150.300781 199.269531 150.355469 C 199.203125 150.410156 199.132812 150.464844 199.066406 150.519531 C 198.890625 150.664062 198.628906 150.539062 198.628906 150.3125 L 198.628906 149.546875 C 198.628906 149.09375 197.929688 149.144531 197.929688 149.59375 L 197.929688 151.28125 C 197.929688 151.394531 197.878906 151.5 197.792969 151.570312 L 197.753906 151.601562 C 197.511719 151.800781 197.152344 151.625 197.152344 151.3125 L 197.152344 149.898438 C 197.152344 149.445312 196.453125 149.496094 196.453125 149.945312 L 196.453125 152.667969 C 196.4375 152.679688 196.421875 152.695312 196.40625 152.707031 C 196.402344 152.707031 196.402344 152.710938 196.398438 152.710938 C 196.09375 152.960938 195.636719 152.734375 195.636719 152.339844 L 195.636719 150.40625 C 195.636719 149.953125 194.9375 150 194.9375 150.453125 L 194.9375 153.613281 C 194.9375 153.65625 194.945312 153.691406 194.957031 153.722656 C 194.902344 153.757812 194.847656 153.789062 194.796875 153.824219 C 194.578125 153.957031 194.300781 153.796875 194.300781 153.542969 L 194.300781 152.03125 C 194.300781 151.578125 193.601562 151.625 193.601562 152.074219 L 193.601562 154.378906 C 193.601562 154.421875 193.609375 154.460938 193.621094 154.496094 C 193.542969 154.535156 193.46875 154.578125 193.390625 154.613281 C 193.175781 154.726562 192.917969 154.570312 192.917969 154.324219 L 192.917969 152.710938 C 192.917969 152.257812 192.21875 152.304688 192.21875 152.757812 L 192.21875 155.058594 C 192.21875 155.09375 192.222656 155.121094 192.230469 155.148438 C 192.15625 155.179688 192.085938 155.210938 192.011719 155.242188 C 191.796875 155.332031 191.558594 155.175781 191.558594 154.941406 L 191.558594 153.414062 C 191.558594 152.960938 190.859375 153.007812 190.859375 153.460938 L 190.859375 155.644531 C 190.859375 155.675781 190.863281 155.703125 190.867188 155.730469 C 190.800781 155.757812 190.734375 155.785156 190.667969 155.8125 C 190.453125 155.90625 190.214844 155.746094 190.214844 155.511719 L 190.214844 154.390625 C 190.214844 153.9375 189.519531 153.984375 189.519531 154.433594 L 189.519531 156.152344 C 189.519531 156.207031 189.527344 156.257812 189.546875 156.296875 C 189.449219 156.339844 189.351562 156.382812 189.253906 156.421875 C 189.039062 156.515625 188.800781 156.359375 188.800781 156.125 L 188.800781 154.976562 C 188.800781 154.523438 188.101562 154.570312 188.101562 155.019531 L 188.101562 157.011719 C 188.101562 157.023438 188.105469 157.035156 188.105469 157.046875 C 187.996094 157.117188 187.886719 157.1875 187.78125 157.261719 C 187.570312 157.402344 187.285156 157.253906 187.285156 156.996094 L 187.285156 155.679688 C 187.285156 155.222656 186.585938 155.273438 186.585938 155.722656 L 186.585938 158.019531 C 186.585938 158.113281 186.542969 158.199219 186.472656 158.261719 C 186.371094 158.347656 186.277344 158.433594 186.183594 158.515625 C 185.976562 158.703125 185.652344 158.558594 185.652344 158.28125 L 185.652344 155.289062 C 185.652344 154.835938 184.953125 154.882812 184.953125 155.332031 L 184.953125 159.707031 C 184.953125 159.738281 184.957031 159.769531 184.964844 159.796875 C 184.746094 160.042969 184.515625 160.308594 184.265625 160.59375 C 184.070312 160.8125 183.710938 160.675781 183.710938 160.382812 L 183.707031 155.25 C 183.707031 154.796875 183.011719 154.84375 183.011719 155.292969 L 183.011719 161.894531 C 183.011719 161.972656 182.984375 162.046875 182.933594 162.105469 C 182.710938 162.355469 182.484375 162.613281 182.246094 162.882812 C 182.050781 163.101562 181.6875 162.964844 181.6875 162.671875 L 181.6875 156.617188 C 181.6875 156.160156 180.992188 156.210938 180.992188 156.660156 L 180.992188 164.175781 C 180.992188 164.253906 180.964844 164.332031 180.910156 164.390625 C 180.710938 164.613281 180.507812 164.84375 180.300781 165.078125 C 180.109375 165.296875 179.746094 165.160156 179.746094 164.863281 L 179.746094 158.097656 C 179.746094 157.644531 179.046875 157.695312 179.046875 158.144531 L 179.046875 165.304688 C 179.046875 165.570312 178.742188 165.722656 178.535156 165.554688 L 178 165.128906 C 177.925781 165.070312 177.882812 164.976562 177.882812 164.878906 L 177.882812 158.253906 C 177.882812 157.800781 177.183594 157.851562 177.183594 158.300781 L 177.183594 163.8125 C 177.183594 164.082031 176.875 164.230469 176.667969 164.066406 L 175.980469 163.515625 C 175.90625 163.453125 175.863281 163.363281 175.863281 163.265625 L 175.863281 157.59375 C 175.863281 157.136719 175.164062 157.1875 175.164062 157.636719 L 175.164062 162.199219 C 175.164062 162.46875 174.855469 162.617188 174.648438 162.449219 L 174.273438 162.148438 C 174.195312 162.089844 174.152344 161.996094 174.152344 161.898438 L 174.152344 156.773438 C 174.152344 156.316406 173.453125 156.367188 173.453125 156.816406 L 173.453125 160.835938 C 173.453125 161.101562 173.148438 161.25 172.9375 161.085938 L 172.484375 160.722656 C 172.410156 160.664062 172.367188 160.570312 172.367188 160.472656 L 172.367188 156.851562 C 172.367188 156.394531 171.667969 156.445312 171.667969 156.894531 L 171.667969 159.40625 C 171.667969 159.675781 171.359375 159.824219 171.152344 159.65625 L 170.914062 159.46875 C 170.839844 159.40625 170.796875 159.316406 170.796875 159.21875 L 170.796875 155.777344 C 170.796875 155.324219 170.097656 155.371094 170.097656 155.820312 L 170.097656 158.152344 C 170.097656 158.421875 169.792969 158.570312 169.582031 158.402344 L 169.167969 158.074219 C 169.09375 158.011719 169.050781 157.917969 169.050781 157.824219 L 169.050781 155.777344 C 169.050781 155.324219 168.351562 155.371094 168.351562 155.820312 L 168.351562 156.757812 C 168.351562 157.023438 168.042969 157.175781 167.835938 157.007812 L 167.433594 156.6875 C 167.359375 156.628906 167.316406 156.535156 167.316406 156.4375 L 167.316406 155.203125 C 167.316406 154.75 166.617188 154.796875 166.617188 155.246094 L 166.617188 155.371094 C 166.617188 155.640625 166.308594 155.789062 166.101562 155.621094 L 164.0625 153.992188 C 166.925781 149.71875 168.429688 145.992188 168.535156 142.910156 L 168.753906 141.105469 L 171.726562 141.722656 C 171.734375 141.722656 171.742188 141.726562 171.75 141.726562 C 172.472656 141.84375 173.105469 141.902344 173.6875 141.902344 C 175.609375 141.902344 176.902344 141.242188 177.527344 139.9375 C 177.855469 139.257812 177.886719 138.582031 177.636719 137.96875 C 178.675781 138.074219 180.046875 138.199219 180.851562 138.199219 C 181.132812 138.199219 181.332031 138.183594 181.480469 138.152344 C 183.578125 137.699219 184.785156 136.546875 184.875 134.902344 C 184.894531 134.589844 184.871094 134.257812 184.804688 133.914062 C 186.304688 133.527344 187.484375 131.988281 187.566406 130.160156 C 187.640625 128.367188 187.292969 127.808594 186.664062 127.019531 C 187.113281 126.386719 187.871094 125.0625 187.726562 123.496094 C 187.523438 121.265625 185.835938 119.351562 184.902344 118.527344 L 187.460938 117.855469 C 187.488281 117.84375 187.519531 117.835938 187.546875 117.824219 C 189.695312 116.878906 192.40625 115.65625 193.320312 115.109375 C 193.996094 114.945312 198.074219 113.945312 200.246094 113.214844 C 201.261719 112.871094 202.089844 112.699219 202.710938 112.699219 C 203.527344 112.699219 203.902344 112.984375 204.238281 113.445312 C 204.546875 113.871094 205.5625 115.414062 205.660156 117.492188 C 205.675781 117.800781 205.914062 118.058594 206.222656 118.070312 C 206.882812 118.089844 207.800781 118.648438 208.277344 119.671875 C 208.605469 120.378906 209.457031 123.402344 208.355469 124.621094 C 208.210938 124.78125 208.164062 125.007812 208.234375 125.207031 C 208.304688 125.410156 208.476562 125.558594 208.6875 125.59375 C 208.699219 125.597656 209.886719 125.8125 210.1875 126.886719 C 211.132812 130.230469 209.644531 131.792969 209.585938 131.851562 C 209.449219 131.988281 209.386719 132.179688 209.417969 132.367188 C 209.449219 132.558594 209.570312 132.71875 209.742188 132.800781 C 210.046875 132.945312 210.222656 133.117188 210.304688 133.34375 C 210.3125 133.375 211.230469 136.277344 209.105469 139.246094 Z M 211.402344 132.960938 C 211.285156 132.628906 211.097656 132.351562 210.835938 132.125 C 211.371094 131.265625 212.117188 129.429688 211.308594 126.566406 C 211.019531 125.535156 210.273438 124.988281 209.683594 124.707031 C 210.722656 122.546875 209.351562 119.214844 209.335938 119.175781 C 208.816406 118.066406 207.820312 117.21875 206.789062 116.972656 C 206.570312 114.867188 205.605469 113.339844 205.179688 112.753906 C 204.761719 112.183594 204.105469 111.527344 202.710938 111.527344 C 201.953125 111.527344 201.027344 111.714844 199.875 112.105469 C 198.90625 112.429688 197.515625 112.816406 196.238281 113.15625 L 196.261719 113.167969 C 193.03125 114.09375 190.554688 114.9375 185.703125 117.925781 C 184.855469 118.324219 184.042969 118.527344 183.28125 118.527344 C 183.230469 118.527344 183.179688 118.523438 183.128906 118.523438 C 183.167969 118.59375 183.214844 118.660156 183.277344 118.710938 C 183.648438 119.011719 183.867188 119.1875 183.867188 119.191406 C 183.875 119.195312 183.882812 119.199219 183.886719 119.203125 C 184.683594 119.808594 186.390625 121.675781 186.566406 123.605469 C 186.714844 125.234375 185.5 126.617188 185.488281 126.628906 C 185.300781 126.839844 185.285156 127.15625 185.460938 127.378906 C 185.550781 127.5 185.640625 127.609375 185.722656 127.710938 C 186.246094 128.367188 186.464844 128.636719 186.398438 130.109375 C 186.328125 131.785156 185.140625 132.832031 184.078125 132.835938 C 183.894531 132.839844 183.71875 132.929688 183.613281 133.078125 C 183.503906 133.230469 183.472656 133.421875 183.527344 133.601562 C 183.671875 134.054688 183.734375 134.472656 183.710938 134.835938 C 183.652344 135.9375 182.820312 136.664062 181.234375 137.007812 C 181.21875 137.007812 181.128906 137.027344 180.851562 137.027344 C 179.53125 137.027344 176.425781 136.65625 176.394531 136.652344 C 176.144531 136.621094 175.90625 136.753906 175.796875 136.984375 C 175.691406 137.210938 175.742188 137.484375 175.925781 137.660156 C 175.9375 137.671875 175.960938 137.691406 176 137.722656 C 176.945312 138.457031 176.59375 139.1875 176.476562 139.429688 C 175.910156 140.613281 174.441406 140.980469 171.949219 140.574219 L 168.367188 139.828125 C 168.207031 139.792969 168.042969 139.832031 167.910156 139.925781 C 167.777344 140.023438 167.691406 140.167969 167.671875 140.332031 L 167.378906 142.753906 C 167.375 142.78125 167.371094 142.808594 167.371094 142.835938 C 167.28125 145.804688 165.742188 149.488281 162.796875 153.78125 C 162.625 154.035156 162.675781 154.378906 162.914062 154.570312 L 179.027344 167.445312 C 179.132812 167.53125 179.261719 167.570312 179.390625 167.570312 C 179.550781 167.570312 179.710938 167.503906 179.824219 167.375 C 182.738281 164.089844 184.90625 161.636719 186.269531 160.082031 C 187.117188 159.113281 188.664062 157.957031 189.714844 157.5 C 190.75 157.050781 191.996094 156.519531 193.035156 156.078125 C 194.308594 155.539062 196.109375 154.457031 197.140625 153.617188 C 198.75 152.300781 201.042969 150.414062 202.644531 149.058594 C 203.628906 148.226562 204.957031 146.621094 205.679688 145.378906 L 210.019531 139.96875 C 210.027344 139.960938 210.035156 139.953125 210.039062 139.945312 C 212.523438 136.492188 211.457031 133.121094 211.402344 132.960938 " fill-opacity="1" fill-rule="nonzero"/><path fill="#ffffff" d="M 206.429688 157.449219 C 205.839844 157.910156 205.113281 158.160156 204.367188 158.160156 L 201.519531 158.160156 C 201.070312 158.160156 201.117188 158.863281 201.566406 158.863281 L 203.804688 158.863281 C 204.074219 158.863281 204.191406 159.207031 203.976562 159.371094 C 203.6875 159.601562 203.332031 159.722656 202.964844 159.722656 L 197.167969 159.722656 C 196.71875 159.722656 196.765625 160.425781 197.214844 160.425781 L 201.8125 160.425781 C 202.085938 160.425781 202.203125 160.769531 201.988281 160.933594 L 201.851562 161.042969 C 201.585938 161.25 201.257812 161.363281 200.921875 161.363281 L 192.691406 161.363281 C 192.597656 161.363281 192.503906 161.320312 192.445312 161.246094 C 192.140625 160.882812 191.84375 160.546875 191.585938 160.28125 C 191.578125 160.273438 191.566406 160.261719 191.558594 160.253906 L 191.472656 160.171875 C 191.253906 159.972656 191.398438 159.605469 191.695312 159.605469 L 195.347656 159.605469 C 195.800781 159.605469 195.75 158.902344 195.304688 158.902344 L 190.234375 158.902344 C 190.152344 158.902344 190.070312 158.871094 190.011719 158.816406 L 189.328125 158.179688 C 189.160156 158.027344 189.203125 157.75 189.402344 157.648438 C 189.511719 157.589844 189.617188 157.542969 189.714844 157.5 C 189.78125 157.472656 189.84375 157.441406 189.910156 157.414062 C 189.921875 157.417969 189.933594 157.417969 189.949219 157.417969 L 196.046875 157.417969 C 196.5 157.417969 196.449219 156.71875 196.003906 156.71875 L 193.140625 156.71875 C 192.785156 156.71875 192.683594 156.226562 193.011719 156.085938 L 193.035156 156.078125 C 194.308594 155.539062 196.109375 154.457031 197.140625 153.617188 C 198.75 152.300781 201.042969 150.414062 202.644531 149.058594 C 203.628906 148.226562 204.957031 146.621094 205.679688 145.378906 L 206.210938 144.722656 C 206.144531 145.519531 206.210938 145.996094 206.410156 146.292969 L 210.695312 153.050781 C 210.945312 153.445312 210.855469 153.972656 210.484375 154.261719 Z M 199 162.886719 L 193.882812 162.886719 C 193.78125 162.886719 193.683594 162.839844 193.621094 162.753906 C 193.582031 162.699219 193.542969 162.644531 193.503906 162.589844 C 193.339844 162.371094 193.492188 162.066406 193.761719 162.066406 L 199.726562 162.066406 C 199.996094 162.066406 200.113281 162.40625 199.902344 162.574219 C 199.644531 162.777344 199.328125 162.886719 199 162.886719 Z M 195.683594 165.886719 L 195.332031 165.34375 L 195.863281 165.34375 C 196.03125 165.34375 196.105469 165.558594 195.972656 165.660156 Z M 196.382812 164.644531 L 195.054688 164.644531 C 194.945312 164.644531 194.84375 164.585938 194.78125 164.496094 L 194.523438 164.09375 C 194.382812 163.875 194.535156 163.589844 194.796875 163.589844 L 197.785156 163.589844 C 198.054688 163.589844 198.171875 163.929688 197.960938 164.097656 C 197.511719 164.453125 196.957031 164.644531 196.382812 164.644531 Z M 212.40625 153.570312 L 207.394531 145.664062 C 207.335938 145.539062 207.25 145.007812 207.6875 142.792969 C 207.726562 142.589844 207.679688 142.371094 207.527344 142.230469 C 207.265625 141.984375 206.875 142.023438 206.667969 142.285156 L 204.746094 144.679688 C 204.730469 144.703125 204.714844 144.726562 204.695312 144.75 C 204.042969 145.878906 202.789062 147.410156 201.898438 148.160156 C 200.296875 149.511719 198.011719 151.394531 196.40625 152.707031 C 195.464844 153.476562 193.75 154.503906 192.582031 155 C 191.539062 155.441406 190.292969 155.972656 189.253906 156.421875 C 188.800781 156.621094 188.269531 156.925781 187.714844 157.304688 C 187.570312 157.40625 187.476562 157.566406 187.464844 157.746094 C 187.449219 157.921875 187.519531 158.097656 187.648438 158.21875 L 190.757812 161.105469 C 191.5 161.878906 192.570312 163.226562 193.148438 164.121094 L 195.054688 167.0625 C 195.140625 167.199219 195.285156 167.292969 195.445312 167.320312 C 195.476562 167.324219 195.507812 167.328125 195.542969 167.328125 C 195.671875 167.328125 195.796875 167.285156 195.898438 167.203125 L 212.273438 154.347656 C 212.507812 154.160156 212.566406 153.824219 212.40625 153.570312 " fill-opacity="1" fill-rule="nonzero"/><g fill="#ffffff" fill-opacity="1"><g transform="translate(144.555855, 230.449979)"><g><path d="M 0.699219 -20.410156 L 0.699219 -20.046875 C 1.960938 -20.046875 2.910156 -19.710938 3.582031 -18.589844 L 3.582031 -1.875 C 3.582031 -0.390625 2.941406 -0.363281 1.597656 -0.363281 L 1.597656 0 L 5.933594 0 L 5.933594 -0.363281 C 4.621094 -0.363281 3.949219 -0.390625 3.949219 -1.875 L 3.949219 -18.085938 L 16.910156 0 L 17.273438 0 L 17.246094 -18.675781 C 17.300781 -20.019531 17.945312 -20.046875 19.234375 -20.046875 L 19.234375 -20.410156 L 14.921875 -20.410156 L 14.921875 -20.046875 C 16.238281 -20.046875 16.882812 -20.019531 16.882812 -18.535156 L 16.910156 -5.292969 L 6.074219 -20.410156 Z M 0.699219 -20.410156 "/></g></g></g><g fill="#ffffff" fill-opacity="1"><g transform="translate(164.489138, 230.449979)"><g><path d="M 8.230469 0.335938 C 12.65625 0.335938 14.222656 -2.882812 14.308594 -6.132812 L 13.941406 -6.132812 C 13.941406 -4.703125 13.1875 -1.203125 9.324219 -1.203125 C 5.65625 -1.203125 3.917969 -4.03125 3.917969 -7.953125 C 3.917969 -8.203125 3.917969 -8.457031 3.949219 -8.707031 L 13.941406 -8.707031 C 13.941406 -11.675781 11.953125 -14.140625 8.566406 -14.140625 C 3.890625 -14.140625 1.121094 -10.527344 1.121094 -6.832031 C 1.121094 -2.6875 3.527344 0.335938 8.230469 0.335938 Z M 4.003906 -9.070312 C 4.367188 -11.785156 6.046875 -13.578125 8.289062 -13.578125 C 11.226562 -13.578125 11.589844 -11.113281 11.589844 -9.070312 Z M 4.003906 -9.070312 "/></g></g></g><g fill="#ffffff" fill-opacity="1"><g transform="translate(179.495088, 230.449979)"><g><path d="M 0.28125 -0.363281 L 0.28125 0 L 4.144531 0 L 4.144531 -0.363281 C 3.164062 -0.363281 2.773438 -0.699219 3.191406 -1.429688 L 6.46875 -5.878906 L 8.902344 -1.511719 C 9.324219 -0.671875 8.847656 -0.363281 7.671875 -0.363281 L 7.671875 0 L 14.25 0 L 14.25 -0.363281 C 12.851562 -0.363281 12.289062 -0.671875 11.816406 -1.511719 L 8.121094 -8.089844 L 11.5625 -12.792969 C 11.984375 -13.410156 12.738281 -13.4375 13.71875 -13.4375 L 13.71875 -13.804688 L 10.050781 -13.804688 L 10.050781 -13.4375 C 10.945312 -13.4375 11.507812 -13.242188 11.144531 -12.738281 L 7.921875 -8.425781 L 5.65625 -12.515625 C 5.292969 -13.269531 5.796875 -13.4375 6.777344 -13.4375 L 6.777344 -13.804688 L 0.757812 -13.804688 L 0.757812 -13.4375 C 1.792969 -13.4375 2.324219 -13.269531 2.773438 -12.488281 L 6.269531 -6.214844 L 2.800781 -1.539062 C 2.269531 -0.699219 1.289062 -0.363281 0.28125 -0.363281 Z M 0.28125 -0.363281 "/></g></g></g><g fill="#ffffff" fill-opacity="1"><g transform="translate(194.025101, 230.449979)"><g><path d="M 0.558594 -13.804688 L 0.558594 -13.4375 C 1.875 -13.4375 2.546875 -13.214844 2.546875 -11.898438 L 2.546875 -3.332031 C 2.546875 -0.253906 4.421875 0.335938 6.832031 0.335938 C 9.433594 0.335938 10.472656 -0.726562 11.226562 -1.820312 L 11.226562 0 L 16.351562 0 L 16.351562 -0.363281 C 14.753906 -0.363281 14.027344 -0.617188 14.027344 -2.492188 L 14.027344 -13.804688 L 9.238281 -13.804688 L 9.238281 -13.4375 C 10.75 -13.4375 11.226562 -13.214844 11.226562 -11.925781 L 11.226562 -2.6875 C 10.695312 -1.511719 9.660156 -0.390625 7.894531 -0.390625 C 5.824219 -0.390625 5.347656 -1.679688 5.347656 -3.386719 L 5.347656 -13.804688 Z M 0.558594 -13.804688 "/></g></g></g><g fill="#ffffff" fill-opacity="1"><g transform="translate(210.654831, 230.449979)"><g><path d="M 1.484375 0 C 1.484375 -0.363281 1.652344 -0.617188 1.960938 -0.671875 C 3.078125 -0.894531 3.667969 0.335938 6.355469 0.335938 C 9.183594 0.335938 11.085938 -1.34375 11.113281 -3.667969 C 11.113281 -8.960938 3.667969 -7.53125 3.722656 -11.648438 C 3.722656 -12.824219 4.5625 -13.605469 5.824219 -13.605469 C 8.203125 -13.605469 9.601562 -11.617188 9.601562 -9.238281 L 9.996094 -9.238281 L 9.96875 -13.804688 L 9.601562 -13.804688 C 9.601562 -13.4375 9.464844 -13.101562 9.070312 -13.101562 C 8.203125 -13.101562 7.363281 -14.140625 5.542969 -14.140625 C 2.910156 -14.140625 1.175781 -12.597656 1.175781 -10.164062 C 1.203125 -5.179688 8.566406 -6.859375 8.566406 -2.492188 C 8.566406 -1.175781 7.644531 -0.222656 5.738281 -0.222656 C 4.03125 -0.222656 1.484375 -1.457031 1.484375 -5.796875 L 1.121094 -5.796875 L 1.121094 0 Z M 1.484375 0 "/></g></g></g><g fill="#ffffff" fill-opacity="1"><g transform="translate(222.602728, 230.449979)"><g/></g></g></svg>