<svg xmlns="http://www.w3.org/2000/svg" xmlns:xlink="http://www.w3.org/1999/xlink" width="500" zoomAndPan="magnify" viewBox="0 0 375 374.999991" height="500" preserveAspectRatio="xMidYMid meet" version="1.0"><defs><g/><clipPath id="4ae9240b2d"><path d="M 125 159.242188 L 134 159.242188 L 134 165 L 125 165 Z M 125 159.242188 " clip-rule="nonzero"/></clipPath><clipPath id="ffb030e229"><path d="M 128.199219 194 L 155.140625 194 L 155.140625 215.46875 L 128.199219 215.46875 Z M 128.199219 194 " clip-rule="nonzero"/></clipPath><clipPath id="d12b60f5ba"><path d="M 92.890625 193.757812 L 119.652344 193.757812 L 119.652344 215.46875 L 92.890625 215.46875 Z M 92.890625 193.757812 " clip-rule="nonzero"/></clipPath></defs><rect x="-37.5" width="450" fill="#ffffff" y="-37.499999" height="449.999989" fill-opacity="1"/><rect x="-37.5" width="450" fill="#ffffff" y="-37.499999" height="449.999989" fill-opacity="1"/><rect x="-37.5" width="450" fill="#ffffff" y="-37.499999" height="449.999989" fill-opacity="1"/><g clip-path="url(#4ae9240b2d)"><path fill="#ffffff" d="M 127.3125 161.664062 L 131.304688 163.488281 C 131.46875 163.441406 131.632812 163.394531 131.789062 163.347656 C 132.523438 162.503906 132.546875 161.417969 132.429688 160.644531 C 132.371094 160.242188 132.007812 160.0625 131.675781 160.0625 C 131.554688 160.0625 131.4375 160.085938 131.328125 160.128906 Z M 131.269531 164.320312 C 131.210938 164.320312 131.15625 164.308594 131.101562 164.285156 L 126.101562 161.996094 C 125.953125 161.929688 125.863281 161.78125 125.867188 161.617188 C 125.871094 161.457031 125.972656 161.3125 126.125 161.253906 L 131.039062 159.375 C 131.242188 159.296875 131.457031 159.257812 131.675781 159.257812 C 132.480469 159.257812 133.117188 159.78125 133.226562 160.527344 C 133.371094 161.5 133.332031 162.890625 132.308594 163.980469 C 132.257812 164.03125 132.199219 164.066406 132.128906 164.089844 C 131.890625 164.160156 131.636719 164.234375 131.378906 164.304688 C 131.34375 164.316406 131.304688 164.320312 131.269531 164.320312 " fill-opacity="1" fill-rule="nonzero"/></g><path fill="#ffffff" d="M 128.972656 202.210938 L 129.117188 202.097656 C 129.386719 202.539062 129.65625 202.980469 129.917969 203.421875 Z M 129.742188 201.609375 L 129.867188 201.511719 C 129.945312 201.453125 130.054688 201.472656 130.105469 201.554688 C 130.503906 202.210938 130.894531 202.871094 131.273438 203.519531 C 131.316406 203.589844 131.296875 203.679688 131.234375 203.730469 L 131.117188 203.820312 C 131.039062 203.882812 130.925781 203.863281 130.875 203.777344 C 130.492188 203.125 130.105469 202.472656 129.707031 201.820312 C 129.664062 201.75 129.679688 201.660156 129.742188 201.609375 Z M 130.527344 201.007812 L 130.523438 201 L 130.660156 200.890625 C 130.738281 200.832031 130.847656 200.851562 130.898438 200.9375 C 130.976562 201.0625 131.050781 201.1875 131.128906 201.3125 L 131.84375 202.492188 C 131.925781 202.625 132.003906 202.753906 132.082031 202.886719 C 132.125 202.957031 132.105469 203.046875 132.042969 203.097656 L 132.003906 203.128906 C 131.925781 203.1875 131.816406 203.167969 131.765625 203.082031 C 131.363281 202.394531 130.949219 201.699219 130.527344 201.007812 Z M 131.761719 200.261719 C 132.148438 200.910156 132.539062 201.5625 132.933594 202.21875 C 132.976562 202.292969 132.960938 202.382812 132.894531 202.433594 L 132.8125 202.496094 C 132.734375 202.558594 132.621094 202.535156 132.570312 202.453125 C 132.515625 202.355469 132.457031 202.253906 132.394531 202.15625 L 131.679688 200.976562 C 131.582031 200.820312 131.488281 200.660156 131.390625 200.503906 C 131.347656 200.433594 131.363281 200.339844 131.429688 200.289062 L 131.523438 200.21875 C 131.601562 200.15625 131.710938 200.175781 131.761719 200.261719 Z M 132.542969 199.652344 C 132.933594 200.320312 133.320312 200.972656 133.703125 201.621094 C 133.746094 201.691406 133.730469 201.78125 133.664062 201.832031 C 133.585938 201.890625 133.476562 201.871094 133.425781 201.785156 C 133.03125 201.128906 132.636719 200.472656 132.253906 199.828125 C 132.214844 199.753906 132.230469 199.664062 132.292969 199.617188 L 132.304688 199.609375 C 132.382812 199.546875 132.492188 199.570312 132.542969 199.652344 Z M 133.390625 198.984375 C 133.808594 199.617188 134.21875 200.253906 134.625 200.898438 C 134.667969 200.96875 134.652344 201.058594 134.585938 201.113281 L 134.433594 201.230469 C 134.359375 201.289062 134.246094 201.269531 134.195312 201.183594 C 133.8125 200.539062 133.425781 199.882812 133.035156 199.21875 C 132.992188 199.148438 133.011719 199.054688 133.074219 199.007812 L 133.152344 198.945312 C 133.226562 198.886719 133.335938 198.902344 133.390625 198.984375 Z M 134.273438 198.300781 C 134.65625 198.945312 135.046875 199.597656 135.445312 200.257812 C 135.488281 200.328125 135.472656 200.417969 135.40625 200.46875 L 135.355469 200.511719 C 135.277344 200.570312 135.167969 200.550781 135.117188 200.46875 C 134.714844 199.832031 134.304688 199.195312 133.882812 198.5625 C 133.835938 198.492188 133.851562 198.398438 133.917969 198.347656 L 134.03125 198.257812 C 134.109375 198.195312 134.222656 198.21875 134.273438 198.300781 Z M 135.113281 197.640625 C 135.511719 198.292969 135.910156 198.9375 136.308594 199.582031 C 136.351562 199.652344 136.335938 199.742188 136.269531 199.792969 L 136.175781 199.867188 C 136.097656 199.929688 135.988281 199.90625 135.9375 199.824219 C 135.539062 199.164062 135.148438 198.511719 134.761719 197.867188 C 134.722656 197.796875 134.738281 197.707031 134.804688 197.65625 L 134.875 197.597656 C 134.953125 197.539062 135.0625 197.558594 135.113281 197.640625 Z M 135.988281 196.960938 C 136.375 197.609375 136.769531 198.261719 137.160156 198.917969 C 137.203125 198.988281 137.1875 199.078125 137.121094 199.128906 L 137.039062 199.195312 C 136.964844 199.253906 136.851562 199.234375 136.800781 199.152344 C 136.402344 198.507812 136.003906 197.859375 135.605469 197.210938 C 135.5625 197.140625 135.582031 197.046875 135.644531 196.996094 L 135.75 196.917969 C 135.824219 196.855469 135.9375 196.878906 135.988281 196.960938 Z M 136.902344 196.242188 C 137.304688 196.890625 137.707031 197.539062 138.101562 198.179688 C 138.144531 198.25 138.128906 198.34375 138.0625 198.394531 L 137.890625 198.527344 C 137.816406 198.589844 137.703125 198.566406 137.652344 198.484375 C 137.257812 197.828125 136.867188 197.175781 136.480469 196.527344 C 136.4375 196.457031 136.453125 196.363281 136.519531 196.316406 L 136.667969 196.199219 C 136.742188 196.140625 136.855469 196.160156 136.902344 196.242188 Z M 137.578125 195.488281 C 137.652344 195.429688 137.765625 195.449219 137.816406 195.535156 C 138.078125 195.972656 138.34375 196.414062 138.601562 196.847656 C 138.730469 197.0625 138.859375 197.277344 138.988281 197.492188 C 139.03125 197.5625 139.011719 197.652344 138.949219 197.703125 L 138.832031 197.792969 C 138.757812 197.851562 138.644531 197.832031 138.59375 197.75 C 138.199219 197.109375 137.796875 196.460938 137.398438 195.8125 C 137.351562 195.742188 137.371094 195.648438 137.433594 195.597656 Z M 138.414062 194.835938 C 138.488281 194.777344 138.601562 194.796875 138.652344 194.878906 C 139.066406 195.5625 139.480469 196.25 139.894531 196.9375 L 139.902344 196.957031 L 139.71875 197.101562 C 139.640625 197.160156 139.53125 197.140625 139.480469 197.054688 C 139.371094 196.875 139.265625 196.695312 139.15625 196.515625 C 138.875 196.046875 138.589844 195.574219 138.308594 195.097656 C 138.265625 195.027344 138.28125 194.9375 138.347656 194.886719 Z M 139.265625 194.171875 C 139.339844 194.109375 139.453125 194.132812 139.503906 194.214844 C 139.84375 194.789062 140.195312 195.367188 140.574219 195.933594 L 140.707031 196.148438 C 140.75 196.21875 140.730469 196.308594 140.667969 196.359375 L 140.5625 196.441406 C 140.484375 196.503906 140.371094 196.480469 140.320312 196.398438 C 139.929688 195.746094 139.535156 195.09375 139.144531 194.445312 C 139.101562 194.375 139.117188 194.285156 139.183594 194.234375 Z M 140.15625 193.472656 C 140.230469 193.414062 140.34375 193.433594 140.394531 193.519531 C 140.417969 193.558594 140.445312 193.601562 140.46875 193.644531 C 140.835938 194.246094 141.207031 194.855469 141.578125 195.464844 C 141.621094 195.535156 141.605469 195.628906 141.539062 195.679688 L 141.4375 195.757812 C 141.359375 195.820312 141.246094 195.796875 141.199219 195.714844 L 141.117188 195.585938 C 140.71875 194.988281 140.347656 194.382812 139.996094 193.777344 C 139.953125 193.707031 139.972656 193.617188 140.035156 193.566406 Z M 141.195312 192.894531 C 141.578125 193.546875 141.96875 194.203125 142.359375 194.859375 C 142.402344 194.929688 142.382812 195.019531 142.320312 195.070312 L 142.308594 195.078125 C 142.234375 195.136719 142.121094 195.117188 142.070312 195.03125 C 141.671875 194.378906 141.277344 193.730469 140.886719 193.085938 C 140.898438 193.007812 140.910156 192.953125 140.925781 192.875 L 140.953125 192.851562 C 141.03125 192.789062 141.144531 192.8125 141.195312 192.894531 Z M 142.136719 192.15625 C 142.527344 192.792969 142.914062 193.441406 143.3125 194.113281 C 143.355469 194.183594 143.339844 194.273438 143.273438 194.324219 L 143.089844 194.46875 C 143.011719 194.527344 142.898438 194.507812 142.847656 194.421875 C 142.460938 193.765625 142.070312 193.113281 141.683594 192.457031 C 141.644531 192.386719 141.660156 192.296875 141.726562 192.246094 L 141.898438 192.109375 C 141.976562 192.050781 142.089844 192.070312 142.136719 192.15625 Z M 131.613281 206.246094 L 145.523438 195.378906 C 145.609375 195.3125 145.664062 195.21875 145.675781 195.109375 C 145.6875 195.003906 145.660156 194.898438 145.59375 194.816406 L 142.484375 190.835938 C 142.429688 190.765625 142.328125 190.753906 142.257812 190.808594 L 128.15625 201.824219 C 128.027344 201.925781 127.976562 202.089844 128.015625 202.238281 C 128.027344 202.292969 128.050781 202.34375 128.089844 202.390625 L 131.046875 206.179688 C 131.113281 206.261719 131.210938 206.316406 131.316406 206.328125 C 131.421875 206.34375 131.527344 206.3125 131.613281 206.246094 " fill-opacity="1" fill-rule="nonzero"/><g clip-path="url(#ffb030e229)"><path fill="#ffffff" d="M 144.546875 196.1875 C 144.558594 196.148438 144.582031 196.117188 144.609375 196.09375 L 145.046875 195.75 C 145.195312 195.636719 145.402344 195.78125 145.347656 195.957031 C 143.460938 201.90625 141.8125 207.933594 140.21875 213.773438 C 140.179688 213.816406 140.128906 213.867188 140.089844 213.90625 C 139.921875 213.957031 139.753906 214.003906 139.585938 214.054688 C 139.445312 214.09375 139.3125 213.957031 139.351562 213.816406 C 141.167969 207.4375 142.871094 201.652344 144.546875 196.1875 Z M 146.441406 195.617188 L 146.734375 195.984375 C 146.773438 196.03125 146.785156 196.097656 146.769531 196.15625 C 145.140625 201.570312 143.414062 207.371094 141.730469 213.292969 C 141.714844 213.355469 141.667969 213.402344 141.609375 213.421875 C 141.492188 213.464844 141.375 213.503906 141.257812 213.539062 C 141.113281 213.589844 140.972656 213.457031 141.015625 213.308594 C 142.597656 207.519531 144.234375 201.554688 146.109375 195.679688 C 146.15625 195.535156 146.347656 195.5 146.441406 195.617188 Z M 147.511719 196.957031 L 147.78125 197.292969 C 147.820312 197.34375 147.832031 197.40625 147.816406 197.46875 C 146.628906 201.492188 145.511719 205.53125 144.425781 209.476562 C 144.136719 210.515625 143.847656 211.5625 143.558594 212.617188 C 143.542969 212.671875 143.5 212.71875 143.445312 212.742188 C 143.230469 212.828125 143.019531 212.910156 142.804688 212.992188 C 142.660156 213.046875 142.511719 212.910156 142.554688 212.761719 C 144.101562 207.335938 145.679688 202.015625 147.183594 197.019531 C 147.226562 196.875 147.417969 196.839844 147.511719 196.957031 Z M 148.5625 198.273438 L 148.945312 198.75 C 148.980469 198.796875 148.996094 198.863281 148.976562 198.921875 C 148.0625 202.121094 147.132812 205.304688 146.222656 208.429688 C 145.886719 209.578125 145.546875 210.742188 145.207031 211.910156 C 145.191406 211.964844 145.152344 212.007812 145.101562 212.03125 C 144.953125 212.097656 144.804688 212.167969 144.65625 212.234375 C 144.507812 212.296875 144.351562 212.160156 144.394531 212.007812 C 144.613281 211.21875 144.832031 210.429688 145.046875 209.648438 C 146.070312 205.933594 147.125 202.132812 148.230469 198.339844 C 148.273438 198.191406 148.46875 198.152344 148.5625 198.273438 Z M 149.730469 199.734375 L 149.960938 200.023438 C 149.996094 200.070312 150.011719 200.132812 149.992188 200.191406 C 149.847656 200.703125 149.703125 201.214844 149.558594 201.722656 C 148.820312 204.335938 148.054688 207.035156 147.269531 209.722656 C 147.140625 210.179688 147.007812 210.632812 146.878906 211.09375 C 146.863281 211.140625 146.832031 211.183594 146.785156 211.210938 C 146.640625 211.285156 146.496094 211.359375 146.351562 211.429688 C 146.203125 211.507812 146.035156 211.367188 146.082031 211.207031 C 146.335938 210.335938 146.589844 209.46875 146.839844 208.609375 C 147.6875 205.714844 148.546875 202.765625 149.398438 199.800781 C 149.4375 199.652344 149.632812 199.613281 149.730469 199.734375 Z M 150.746094 201.007812 L 151.070312 201.410156 C 151.105469 201.460938 151.121094 201.523438 151.105469 201.578125 C 150.789062 202.828125 150.410156 204.046875 150.039062 205.226562 C 149.609375 206.601562 149.164062 208.023438 148.820312 209.488281 L 148.636719 210.113281 C 148.625 210.160156 148.59375 210.199219 148.550781 210.226562 C 148.386719 210.324219 148.21875 210.421875 148.054688 210.515625 C 147.90625 210.601562 147.730469 210.460938 147.777344 210.296875 C 147.8125 210.164062 147.851562 210.03125 147.886719 209.902344 C 148.675781 207.214844 149.441406 204.511719 150.179688 201.898438 C 150.257812 201.625 150.335938 201.351562 150.414062 201.074219 C 150.457031 200.925781 150.648438 200.886719 150.746094 201.007812 Z M 151.863281 202.40625 L 152.128906 202.738281 C 152.167969 202.785156 152.179688 202.851562 152.164062 202.910156 C 151.734375 204.410156 151.3125 205.902344 150.890625 207.382812 C 150.742188 207.910156 150.589844 208.441406 150.4375 208.972656 C 150.425781 209.015625 150.398438 209.054688 150.363281 209.078125 C 150.054688 209.285156 149.746094 209.488281 149.433594 209.6875 L 149.441406 209.648438 C 149.785156 208.195312 150.226562 206.78125 150.65625 205.417969 C 150.953125 204.460938 151.257812 203.480469 151.53125 202.476562 C 151.574219 202.328125 151.765625 202.285156 151.863281 202.40625 Z M 152.914062 203.722656 L 153.160156 204.03125 C 153.171875 204.09375 153.183594 204.144531 153.195312 204.207031 C 152.839844 205.386719 152.484375 206.574219 152.128906 207.765625 C 152.117188 207.804688 152.09375 207.839844 152.058594 207.867188 C 151.941406 207.957031 151.824219 208.042969 151.703125 208.132812 C 151.558594 208.242188 151.355469 208.101562 151.40625 207.925781 C 151.441406 207.804688 151.476562 207.679688 151.511719 207.558594 C 151.867188 206.3125 152.222656 205.054688 152.582031 203.789062 C 152.625 203.640625 152.816406 203.601562 152.914062 203.722656 Z M 139.707031 200.363281 C 138.085938 205.671875 136.875 209.738281 135.535156 214.40625 C 135.492188 214.554688 135.445312 214.667969 135.351562 214.550781 L 135.097656 214.332031 C 135.058594 214.285156 135.046875 214.222656 135.0625 214.164062 C 135.390625 213.074219 135.4375 212.8125 135.722656 211.710938 C 135.878906 211.140625 136.039062 210.574219 136.195312 210.015625 C 136.859375 207.675781 137.542969 205.375 138.207031 203.152344 C 138.460938 202.289062 138.722656 201.414062 138.980469 200.539062 C 138.992188 200.5 139.015625 200.464844 139.046875 200.441406 L 139.410156 200.15625 C 139.554688 200.042969 139.761719 200.183594 139.707031 200.363281 Z M 134.066406 214.207031 L 133.714844 213.765625 C 133.675781 213.714844 133.664062 213.652344 133.679688 213.59375 L 133.785156 213.226562 C 133.921875 212.730469 134.058594 212.238281 134.199219 211.75 C 134.277344 211.488281 134.089844 210.40625 133.035156 210.792969 C 132.964844 210.820312 132.871094 210.789062 132.824219 210.730469 L 131.972656 209.640625 C 131.933594 209.59375 131.917969 209.527344 131.941406 209.46875 C 131.992188 209.316406 132.152344 209.0625 132.476562 208.804688 C 132.796875 208.554688 133.078125 208.464844 133.238281 208.449219 C 133.304688 208.441406 133.367188 208.46875 133.410156 208.519531 L 133.964844 209.234375 C 134.007812 209.285156 134.074219 209.3125 134.140625 209.304688 L 134.28125 209.289062 C 134.550781 209.253906 134.761719 209.074219 134.996094 208.9375 C 135.039062 208.914062 135.070312 208.875 135.082031 208.828125 C 135.25 208.277344 135.417969 207.722656 135.582031 207.152344 L 136.070312 205.4375 C 136.386719 204.320312 136.710938 203.191406 137.039062 202.054688 C 137.046875 202.019531 137.070312 201.984375 137.101562 201.957031 L 137.65625 201.527344 C 137.800781 201.414062 138.007812 201.554688 137.953125 201.734375 C 137.832031 202.144531 137.710938 202.558594 137.585938 202.964844 C 136.921875 205.191406 136.238281 207.496094 135.574219 209.839844 C 135.417969 210.402344 135.257812 210.96875 135.101562 211.542969 C 134.875 212.40625 134.644531 213.28125 134.398438 214.140625 C 134.355469 214.292969 134.164062 214.328125 134.066406 214.207031 Z M 132.695312 212.476562 C 132.65625 212.425781 132.644531 212.359375 132.660156 212.300781 C 132.714844 212.117188 132.769531 211.933594 132.824219 211.75 C 132.847656 211.667969 132.917969 211.617188 133 211.613281 C 133.078125 211.609375 133.160156 211.601562 133.242188 211.585938 C 133.363281 211.558594 133.488281 211.519531 133.613281 211.464844 C 133.601562 211.5 133.589844 211.535156 133.582031 211.570312 C 133.441406 212.0625 133.300781 212.558594 133.164062 213.050781 L 133.160156 213.0625 Z M 131.917969 211.492188 L 131.613281 211.113281 C 131.578125 211.0625 131.566406 211 131.582031 210.941406 C 131.625 210.792969 131.820312 210.757812 131.914062 210.878906 L 132.253906 211.3125 C 132.261719 211.320312 132.269531 211.328125 132.277344 211.335938 C 132.265625 211.367188 132.257812 211.398438 132.25 211.429688 C 132.203125 211.574219 132.011719 211.613281 131.917969 211.492188 Z M 130.675781 209.925781 C 130.636719 209.875 130.625 209.8125 130.640625 209.753906 C 130.980469 208.59375 131.308594 207.4375 131.628906 206.285156 C 131.636719 206.246094 131.660156 206.210938 131.691406 206.183594 L 132.046875 205.90625 C 132.195312 205.792969 132.402344 205.933594 132.347656 206.113281 C 132.148438 206.785156 131.949219 207.457031 131.75 208.117188 C 131.71875 208.222656 131.6875 208.332031 131.652344 208.4375 C 131.644531 208.464844 131.632812 208.492188 131.613281 208.511719 C 131.460938 208.679688 131.335938 208.859375 131.25 209.035156 C 131.121094 209.300781 131.085938 209.558594 131.140625 209.78125 C 131.167969 209.894531 131.226562 209.992188 131.289062 210.085938 C 131.09375 210.230469 131.179688 210.167969 130.980469 210.3125 Z M 129.894531 208.9375 L 129.734375 208.734375 C 129.695312 208.6875 129.683594 208.625 129.699219 208.566406 C 129.785156 208.242188 129.871094 207.917969 129.957031 207.589844 C 129.96875 207.550781 129.992188 207.515625 130.023438 207.488281 L 130.332031 207.25 C 130.476562 207.136719 130.683594 207.273438 130.632812 207.449219 C 130.5 207.921875 130.363281 208.398438 130.226562 208.871094 C 130.183594 209.019531 129.992188 209.058594 129.894531 208.9375 Z M 133.433594 204.824219 L 134.460938 204.023438 L 134.414062 204.199219 C 134.097656 205.316406 133.765625 206.421875 133.4375 207.507812 C 133.414062 207.585938 133.339844 207.640625 133.257812 207.640625 C 133.175781 207.644531 133.085938 207.652344 132.996094 207.671875 C 132.949219 207.679688 132.902344 207.691406 132.855469 207.707031 C 132.710938 207.75 132.574219 207.617188 132.617188 207.472656 C 132.871094 206.628906 133.121094 205.777344 133.371094 204.921875 C 133.382812 204.882812 133.402344 204.847656 133.433594 204.824219 Z M 135.371094 203.3125 L 135.726562 203.03125 C 135.871094 202.917969 136.078125 203.058594 136.027344 203.238281 C 135.832031 203.914062 135.640625 204.589844 135.449219 205.257812 L 134.960938 206.976562 C 134.839844 207.402344 134.714844 207.820312 134.589844 208.234375 C 134.546875 208.382812 134.351562 208.417969 134.257812 208.296875 L 133.980469 207.941406 C 134.335938 206.773438 134.691406 205.582031 135.03125 204.375 L 135.304688 203.410156 C 135.3125 203.371094 135.335938 203.339844 135.371094 203.3125 Z M 153.035156 208.136719 C 153.210938 208 153.242188 207.746094 153.105469 207.570312 C 153.078125 207.535156 153.046875 207.507812 153.011719 207.484375 C 152.945312 207.441406 152.921875 207.355469 152.945312 207.28125 C 153.167969 206.542969 153.386719 205.804688 153.609375 205.070312 C 153.652344 204.921875 153.84375 204.886719 153.941406 205.007812 L 154.296875 205.457031 C 154.335938 205.503906 154.347656 205.566406 154.332031 205.625 L 154.316406 205.679688 C 154.222656 206.019531 154.636719 206.273438 154.898438 206.035156 C 155.1875 205.769531 155.222656 205.324219 154.980469 205.015625 L 146.355469 194.214844 C 146.214844 194.042969 145.964844 194.011719 145.789062 194.148438 L 128.417969 207.71875 C 128.335938 207.785156 128.28125 207.882812 128.269531 207.988281 C 128.261719 208.039062 128.265625 208.085938 128.277344 208.132812 C 128.289062 208.1875 128.316406 208.242188 128.351562 208.285156 L 133.589844 214.902344 C 133.921875 215.324219 134.453125 215.53125 134.980469 215.453125 L 134.996094 215.449219 C 135.570312 215.363281 136.042969 214.953125 136.207031 214.394531 C 137.582031 209.628906 139.085938 204.59375 140.753906 199.148438 C 140.765625 199.113281 140.785156 199.082031 140.816406 199.058594 C 140.898438 198.996094 141.074219 198.855469 141.253906 198.714844 C 141.402344 198.601562 141.609375 198.75 141.546875 198.929688 C 141.527344 198.976562 141.511719 199.027344 141.492188 199.074219 C 140.9375 200.609375 140.359375 202.199219 139.992188 203.855469 C 139.15625 207.59375 138.070312 211.253906 136.980469 214.8125 C 136.9375 214.953125 137.058594 215.085938 137.203125 215.054688 L 137.5 214.992188 C 137.566406 214.976562 137.621094 214.925781 137.640625 214.859375 C 138.71875 211.335938 139.792969 207.707031 140.621094 203.996094 C 140.980469 202.378906 141.550781 200.8125 142.101562 199.292969 C 142.296875 198.75 142.492188 198.195312 142.683594 197.636719 C 142.695312 197.601562 142.71875 197.570312 142.75 197.546875 L 143.203125 197.191406 C 143.347656 197.078125 143.554688 197.21875 143.503906 197.398438 C 141.910156 202.625 140.289062 208.15625 138.5625 214.230469 C 138.523438 214.277344 138.484375 214.3125 138.445312 214.359375 C 138.152344 214.46875 138.046875 214.890625 138.425781 215.136719 C 138.464844 215.164062 138.519531 215.167969 138.566406 215.15625 C 143.890625 213.847656 148.757812 211.484375 153.035156 208.136719 " fill-opacity="1" fill-rule="nonzero"/></g><path fill="#ffffff" d="M 117.917969 203.277344 C 118.179688 202.835938 118.445312 202.394531 118.714844 201.953125 L 118.863281 202.066406 Z M 118.128906 201.675781 C 117.730469 202.328125 117.34375 202.984375 116.957031 203.632812 C 116.910156 203.71875 116.796875 203.738281 116.71875 203.675781 L 116.601562 203.585938 C 116.535156 203.535156 116.519531 203.445312 116.558594 203.375 C 116.941406 202.722656 117.332031 202.066406 117.726562 201.410156 C 117.777344 201.328125 117.890625 201.308594 117.96875 201.367188 L 118.089844 201.464844 C 118.15625 201.515625 118.171875 201.605469 118.128906 201.675781 Z M 116.070312 202.9375 C 116.019531 203.023438 115.90625 203.042969 115.828125 202.984375 L 115.792969 202.953125 C 115.726562 202.902344 115.710938 202.8125 115.753906 202.742188 C 115.832031 202.613281 115.910156 202.480469 115.988281 202.347656 L 116.707031 201.167969 C 116.78125 201.042969 116.859375 200.917969 116.933594 200.792969 C 116.984375 200.707031 117.097656 200.6875 117.175781 200.746094 L 117.3125 200.855469 L 117.308594 200.863281 C 116.882812 201.554688 116.472656 202.25 116.070312 202.9375 Z M 116.3125 200.074219 L 116.40625 200.144531 C 116.46875 200.195312 116.484375 200.289062 116.445312 200.359375 C 116.347656 200.515625 116.25 200.675781 116.15625 200.832031 L 115.4375 202.011719 C 115.378906 202.113281 115.320312 202.210938 115.261719 202.308594 C 115.210938 202.390625 115.101562 202.414062 115.023438 202.351562 L 114.941406 202.289062 C 114.875 202.238281 114.859375 202.144531 114.902344 202.074219 C 115.296875 201.417969 115.6875 200.765625 116.070312 200.117188 C 116.121094 200.035156 116.234375 200.011719 116.3125 200.074219 Z M 115.53125 199.464844 L 115.539062 199.46875 C 115.605469 199.519531 115.621094 199.613281 115.578125 199.679688 C 115.195312 200.328125 114.804688 200.984375 114.410156 201.640625 C 114.359375 201.726562 114.246094 201.746094 114.167969 201.6875 C 114.105469 201.636719 114.089844 201.546875 114.128906 201.476562 C 114.511719 200.828125 114.898438 200.175781 115.289062 199.511719 C 115.339844 199.425781 115.453125 199.402344 115.53125 199.464844 Z M 114.683594 198.800781 L 114.761719 198.863281 C 114.824219 198.910156 114.839844 199.003906 114.800781 199.074219 C 114.410156 199.738281 114.023438 200.390625 113.640625 201.039062 C 113.589844 201.125 113.476562 201.144531 113.398438 201.082031 L 113.25 200.96875 C 113.183594 200.914062 113.167969 200.824219 113.210938 200.753906 C 113.613281 200.109375 114.023438 199.472656 114.445312 198.839844 C 114.496094 198.757812 114.609375 198.742188 114.683594 198.800781 Z M 113.800781 198.113281 L 113.914062 198.203125 C 113.980469 198.253906 113.996094 198.347656 113.949219 198.417969 C 113.53125 199.050781 113.121094 199.6875 112.71875 200.324219 C 112.667969 200.40625 112.558594 200.425781 112.480469 200.367188 L 112.429688 200.324219 C 112.363281 200.273438 112.347656 200.183594 112.390625 200.113281 C 112.785156 199.453125 113.179688 198.800781 113.5625 198.15625 C 113.613281 198.074219 113.726562 198.054688 113.800781 198.113281 Z M 112.957031 197.453125 L 113.03125 197.511719 C 113.097656 197.5625 113.113281 197.652344 113.070312 197.722656 C 112.6875 198.367188 112.296875 199.019531 111.898438 199.679688 C 111.847656 199.761719 111.734375 199.785156 111.660156 199.722656 L 111.5625 199.652344 C 111.5 199.597656 111.480469 199.507812 111.527344 199.4375 C 111.925781 198.792969 112.320312 198.148438 112.71875 197.496094 C 112.769531 197.414062 112.882812 197.394531 112.957031 197.453125 Z M 112.085938 196.773438 L 112.1875 196.851562 C 112.253906 196.902344 112.269531 196.996094 112.226562 197.066406 C 111.832031 197.714844 111.429688 198.363281 111.035156 199.007812 C 110.984375 199.089844 110.871094 199.109375 110.792969 199.050781 L 110.710938 198.984375 C 110.648438 198.933594 110.632812 198.84375 110.671875 198.773438 C 111.066406 198.117188 111.457031 197.464844 111.847656 196.816406 C 111.898438 196.730469 112.007812 196.710938 112.085938 196.773438 Z M 111.167969 196.054688 L 111.316406 196.171875 C 111.378906 196.21875 111.398438 196.3125 111.355469 196.382812 C 110.96875 197.03125 110.574219 197.683594 110.183594 198.339844 C 110.132812 198.421875 110.019531 198.441406 109.941406 198.382812 L 109.769531 198.25 C 109.703125 198.199219 109.6875 198.105469 109.730469 198.035156 C 110.128906 197.394531 110.527344 196.746094 110.929688 196.097656 C 110.980469 196.015625 111.09375 195.996094 111.167969 196.054688 Z M 110.398438 195.453125 C 110.464844 195.507812 110.480469 195.597656 110.4375 195.667969 C 110.039062 196.316406 109.636719 196.964844 109.238281 197.605469 C 109.1875 197.6875 109.078125 197.707031 109 197.648438 L 108.886719 197.558594 C 108.820312 197.507812 108.804688 197.417969 108.847656 197.347656 C 108.976562 197.132812 109.105469 196.917969 109.230469 196.703125 C 109.492188 196.269531 109.753906 195.828125 110.019531 195.390625 C 110.070312 195.304688 110.179688 195.285156 110.257812 195.34375 Z M 109.488281 194.742188 C 109.554688 194.792969 109.570312 194.882812 109.527344 194.953125 C 109.242188 195.429688 108.960938 195.902344 108.679688 196.371094 C 108.570312 196.550781 108.464844 196.730469 108.355469 196.910156 C 108.304688 196.996094 108.191406 197.015625 108.117188 196.957031 L 107.929688 196.8125 L 107.941406 196.792969 C 108.355469 196.105469 108.769531 195.417969 109.183594 194.734375 C 109.234375 194.652344 109.34375 194.628906 109.421875 194.691406 Z M 108.652344 194.089844 C 108.714844 194.140625 108.734375 194.230469 108.691406 194.300781 C 108.296875 194.949219 107.90625 195.601562 107.511719 196.253906 C 107.464844 196.339844 107.351562 196.359375 107.273438 196.300781 L 107.167969 196.214844 C 107.101562 196.164062 107.085938 196.074219 107.128906 196.003906 L 107.257812 195.785156 C 107.640625 195.222656 107.992188 194.644531 108.332031 194.070312 C 108.378906 193.988281 108.492188 193.964844 108.570312 194.027344 Z M 107.800781 193.421875 C 107.863281 193.472656 107.882812 193.5625 107.839844 193.632812 C 107.484375 194.238281 107.117188 194.84375 106.714844 195.441406 L 106.636719 195.570312 C 106.585938 195.652344 106.476562 195.675781 106.398438 195.613281 L 106.296875 195.535156 C 106.230469 195.484375 106.214844 195.390625 106.257812 195.320312 C 106.628906 194.710938 106.996094 194.101562 107.363281 193.5 C 107.390625 193.457031 107.414062 193.414062 107.441406 193.375 C 107.492188 193.292969 107.605469 193.269531 107.679688 193.332031 Z M 106.878906 192.707031 L 106.910156 192.730469 C 106.925781 192.808594 106.933594 192.863281 106.949219 192.941406 C 106.558594 193.585938 106.160156 194.238281 105.765625 194.890625 C 105.714844 194.972656 105.601562 194.992188 105.523438 194.933594 L 105.515625 194.925781 C 105.449219 194.875 105.433594 194.785156 105.476562 194.714844 C 105.867188 194.058594 106.253906 193.402344 106.640625 192.75 C 106.691406 192.664062 106.804688 192.644531 106.878906 192.707031 Z M 105.933594 191.96875 L 106.109375 192.101562 C 106.175781 192.152344 106.191406 192.242188 106.148438 192.3125 C 105.765625 192.96875 105.375 193.621094 104.984375 194.277344 C 104.933594 194.363281 104.820312 194.382812 104.746094 194.324219 L 104.5625 194.179688 C 104.496094 194.128906 104.480469 194.039062 104.519531 193.96875 C 104.921875 193.296875 105.308594 192.648438 105.695312 192.011719 C 105.746094 191.925781 105.859375 191.90625 105.933594 191.96875 Z M 116.519531 206.183594 C 116.625 206.171875 116.722656 206.117188 116.789062 206.03125 L 119.746094 202.246094 C 119.78125 202.199219 119.804688 202.148438 119.820312 202.09375 C 119.859375 201.945312 119.804688 201.78125 119.675781 201.679688 L 105.578125 190.664062 C 105.507812 190.609375 105.40625 190.621094 105.347656 190.691406 L 102.242188 194.667969 C 102.175781 194.753906 102.144531 194.859375 102.160156 194.96875 C 102.171875 195.074219 102.226562 195.167969 102.3125 195.234375 L 116.222656 206.101562 C 116.304688 206.167969 116.414062 206.199219 116.519531 206.183594 " fill-opacity="1" fill-rule="nonzero"/><g clip-path="url(#d12b60f5ba)"><path fill="#ffffff" d="M 102.066406 195 L 102.074219 195.007812 C 102.183594 195.089844 102.199219 195.246094 102.109375 195.351562 C 102.0625 195.40625 102.011719 195.460938 101.964844 195.515625 C 101.761719 195.75 101.40625 195.460938 101.597656 195.214844 L 101.730469 195.042969 C 101.8125 194.9375 101.960938 194.917969 102.066406 195 Z M 108.378906 199.929688 L 108.679688 200.167969 C 108.828125 200.285156 108.839844 200.449219 108.742188 200.550781 C 106.140625 203.269531 103.496094 205.9375 100.902344 208.554688 C 100.496094 208.964844 100.089844 209.378906 99.679688 209.792969 C 99.574219 209.898438 99.410156 209.917969 99.285156 209.839844 C 99.230469 209.808594 99.175781 209.773438 99.121094 209.738281 C 98.949219 209.632812 98.921875 209.390625 99.0625 209.246094 C 99.210938 209.09375 99.355469 208.941406 99.503906 208.789062 L 100.726562 207.535156 C 102.292969 205.875 103.835938 204.285156 105.589844 202.519531 C 105.996094 202.101562 106.398438 201.679688 106.804688 201.261719 C 107.234375 200.8125 107.652344 200.378906 108.058594 199.953125 C 108.144531 199.863281 108.28125 199.855469 108.378906 199.929688 Z M 109.605469 200.890625 L 109.707031 200.96875 C 109.816406 201.054688 109.828125 201.21875 109.730469 201.320312 C 107.910156 203.207031 106.101562 205.089844 104.320312 206.945312 C 103.1875 208.121094 102.046875 209.308594 100.894531 210.503906 C 100.796875 210.609375 100.636719 210.632812 100.507812 210.5625 C 100.484375 210.546875 100.460938 210.535156 100.433594 210.519531 C 100.25 210.417969 100.214844 210.167969 100.363281 210.015625 C 100.699219 209.679688 101.03125 209.34375 101.359375 209.011719 C 103.984375 206.363281 106.652344 203.664062 109.285156 200.914062 C 109.371094 200.824219 109.507812 200.8125 109.605469 200.890625 Z M 110.59375 201.660156 L 110.839844 201.855469 C 110.953125 201.941406 110.964844 202.105469 110.867188 202.207031 L 107.128906 206.066406 C 106.140625 207.191406 105.089844 208.230469 104.074219 209.234375 C 103.433594 209.863281 102.785156 210.507812 102.144531 211.179688 C 102.046875 211.28125 101.894531 211.308594 101.769531 211.242188 C 101.742188 211.230469 101.71875 211.214844 101.691406 211.203125 C 101.5 211.105469 101.460938 210.851562 101.605469 210.695312 C 102.675781 209.585938 103.734375 208.484375 104.785156 207.390625 C 106.59375 205.507812 108.429688 203.597656 110.273438 201.683594 C 110.359375 201.597656 110.496094 201.585938 110.59375 201.660156 Z M 111.730469 202.550781 L 111.957031 202.726562 C 112.070312 202.8125 112.082031 202.976562 111.984375 203.082031 C 111.664062 203.410156 111.347656 203.738281 111.035156 204.066406 L 109.792969 205.355469 C 109.398438 205.765625 109.007812 206.171875 108.621094 206.574219 C 106.898438 208.339844 105.191406 210.117188 103.523438 211.851562 C 103.429688 211.953125 103.28125 211.980469 103.15625 211.921875 C 103.101562 211.894531 103.042969 211.867188 102.988281 211.84375 C 102.789062 211.75 102.738281 211.488281 102.890625 211.328125 C 103.4375 210.769531 103.984375 210.226562 104.527344 209.691406 C 105.550781 208.679688 106.613281 207.636719 107.605469 206.503906 L 111.410156 202.570312 C 111.496094 202.484375 111.632812 202.472656 111.730469 202.550781 Z M 112.84375 203.421875 L 113.066406 203.589844 C 113.175781 203.679688 113.1875 203.84375 113.089844 203.945312 C 111.699219 205.378906 110.304688 206.804688 108.941406 208.207031 C 107.582031 209.597656 106.207031 211.007812 104.828125 212.429688 C 104.734375 212.523438 104.597656 212.550781 104.476562 212.5 C 104.457031 212.492188 104.4375 212.484375 104.417969 212.476562 C 104.210938 212.390625 104.15625 212.125 104.3125 211.960938 C 105.875 210.335938 107.472656 208.671875 109.082031 207.023438 C 109.472656 206.617188 109.863281 206.210938 110.257812 205.804688 L 111.5 204.511719 C 111.839844 204.160156 112.183594 203.800781 112.527344 203.445312 C 112.613281 203.355469 112.75 203.347656 112.84375 203.421875 Z M 113.953125 204.285156 L 114.152344 204.441406 C 114.261719 204.527344 114.273438 204.691406 114.175781 204.792969 C 113.113281 205.914062 112.054688 207.027344 111.011719 208.132812 C 109.480469 209.75 107.929688 211.386719 106.359375 213.027344 C 106.273438 213.117188 106.136719 213.152344 106.019531 213.105469 C 105.9375 213.078125 105.859375 213.046875 105.78125 213.019531 C 105.5625 212.9375 105.5 212.660156 105.660156 212.496094 C 106.914062 211.207031 108.164062 209.921875 109.402344 208.65625 C 110.796875 207.226562 112.214844 205.769531 113.636719 204.308594 C 113.71875 204.21875 113.855469 204.210938 113.953125 204.285156 Z M 115.039062 205.132812 L 115.402344 205.417969 C 115.511719 205.503906 115.523438 205.667969 115.425781 205.769531 C 112.824219 208.480469 110.226562 211.144531 107.691406 213.722656 C 107.648438 213.683594 107.597656 213.648438 107.535156 213.628906 C 107.476562 213.609375 107.417969 213.589844 107.363281 213.574219 C 107.140625 213.5 107.066406 213.21875 107.230469 213.046875 C 108.664062 211.550781 110.078125 210.054688 111.480469 208.574219 C 112.546875 207.445312 113.628906 206.304688 114.71875 205.160156 C 114.804688 205.070312 114.941406 205.058594 115.039062 205.132812 Z M 116.289062 206.113281 L 116.453125 206.238281 C 116.5625 206.324219 116.578125 206.488281 116.480469 206.589844 C 116.171875 206.917969 115.859375 207.246094 115.550781 207.578125 C 115.480469 207.648438 115.375 207.671875 115.28125 207.632812 C 115.210938 207.601562 115.140625 207.574219 115.074219 207.550781 C 114.910156 207.492188 114.863281 207.285156 114.984375 207.164062 C 115.3125 206.820312 115.640625 206.476562 115.972656 206.136719 C 116.054688 206.046875 116.195312 206.035156 116.289062 206.113281 Z M 117.613281 207.144531 C 117.722656 207.230469 117.734375 207.398438 117.636719 207.5 C 117.320312 207.824219 117.007812 208.148438 116.695312 208.472656 C 116.597656 208.574219 116.433594 208.570312 116.34375 208.460938 C 116.285156 208.382812 116.214844 208.308594 116.140625 208.230469 C 116.046875 208.140625 116.042969 207.992188 116.132812 207.898438 C 116.429688 207.585938 116.726562 207.269531 117.019531 206.957031 C 117.144531 206.949219 117.21875 206.941406 117.339844 206.933594 Z M 101.753906 193.882812 C 101.648438 193.898438 101.550781 193.953125 101.488281 194.039062 L 92.957031 205.09375 C 92.855469 205.226562 92.871094 205.410156 92.988281 205.523438 C 93.03125 205.5625 93.074219 205.601562 93.113281 205.640625 C 93.25 205.769531 93.46875 205.75 93.585938 205.601562 L 94.605469 204.277344 C 94.613281 204.265625 94.621094 204.257812 94.632812 204.25 C 97.507812 201.558594 100.15625 198.601562 102.632812 195.730469 C 102.714844 195.632812 102.859375 195.621094 102.960938 195.699219 L 103.175781 195.867188 C 103.28125 195.949219 103.296875 196.109375 103.207031 196.210938 C 99.921875 199.96875 96.96875 202.988281 93.949219 205.675781 C 93.902344 205.722656 93.855469 205.769531 93.808594 205.816406 C 93.675781 205.945312 93.683594 206.160156 93.820312 206.28125 L 93.824219 206.285156 C 93.949219 206.398438 94.140625 206.394531 94.257812 206.277344 C 94.304688 206.230469 94.347656 206.1875 94.390625 206.144531 C 97.433594 203.4375 100.417969 200.386719 103.734375 196.589844 C 103.816406 196.496094 103.960938 196.480469 104.058594 196.558594 L 104.246094 196.703125 C 104.382812 196.808594 104.394531 196.972656 104.300781 197.074219 C 101.074219 200.570312 97.992188 203.757812 94.925781 206.765625 C 94.789062 206.898438 94.800781 207.121094 94.949219 207.242188 L 94.953125 207.246094 C 95.078125 207.347656 95.261719 207.339844 95.375 207.226562 C 98.46875 204.191406 101.578125 200.976562 104.835938 197.441406 C 104.921875 197.351562 105.0625 197.339844 105.160156 197.414062 L 105.34375 197.558594 C 105.453125 197.644531 105.464844 197.808594 105.367188 197.910156 C 104.417969 198.90625 103.472656 199.921875 102.558594 200.910156 C 100.496094 203.136719 98.363281 205.4375 96.089844 207.535156 L 96.003906 207.625 C 95.871094 207.761719 95.886719 207.988281 96.039062 208.101562 L 96.042969 208.105469 C 96.171875 208.203125 96.351562 208.191406 96.464844 208.074219 L 96.539062 208 C 98.816406 205.894531 100.960938 203.582031 103.03125 201.347656 C 103.96875 200.335938 104.933594 199.296875 105.910156 198.277344 C 105.996094 198.1875 106.132812 198.175781 106.230469 198.253906 L 106.410156 198.394531 C 106.523438 198.480469 106.535156 198.644531 106.4375 198.746094 C 106.324219 198.867188 106.210938 198.984375 106.097656 199.105469 C 105.003906 200.21875 103.890625 201.398438 102.820312 202.535156 C 101.113281 204.339844 99.351562 206.207031 97.53125 207.957031 L 97.082031 208.414062 C 96.945312 208.554688 96.964844 208.785156 97.128906 208.898438 L 97.132812 208.902344 C 97.261719 208.992188 97.433594 208.976562 97.542969 208.863281 L 97.984375 208.414062 C 99.808594 206.664062 101.578125 204.789062 103.289062 202.976562 C 104.359375 201.839844 105.464844 200.667969 106.5625 199.554688 C 106.699219 199.40625 106.839844 199.257812 106.980469 199.113281 C 107.0625 199.023438 107.203125 199.011719 107.296875 199.085938 L 107.488281 199.238281 C 107.601562 199.324219 107.613281 199.488281 107.515625 199.589844 C 107.132812 199.988281 106.742188 200.394531 106.339844 200.816406 C 105.933594 201.234375 105.53125 201.652344 105.128906 202.070312 C 103.375 203.832031 101.828125 205.429688 100.257812 207.089844 L 99.042969 208.339844 C 98.824219 208.5625 98.605469 208.789062 98.386719 209.015625 C 98.273438 209.039062 98.1875 209.054688 98.070312 209.082031 C 97.820312 209 97.523438 209.179688 97.539062 209.535156 C 97.542969 209.632812 97.601562 209.71875 97.679688 209.769531 C 100.644531 211.75 103.875 213.304688 107.289062 214.394531 C 107.5 214.464844 107.726562 214.347656 107.796875 214.132812 C 107.796875 214.132812 107.796875 214.128906 107.796875 214.128906 L 107.800781 214.128906 C 107.988281 214.1875 108.191406 214.136719 108.328125 213.996094 C 109.671875 212.628906 111.035156 211.238281 112.402344 209.828125 C 112.527344 209.699219 112.742188 209.746094 112.804688 209.914062 C 112.832031 209.988281 112.867188 210.0625 112.90625 210.140625 C 112.957031 210.226562 112.941406 210.339844 112.871094 210.414062 C 111.667969 211.683594 110.445312 212.957031 109.214844 214.226562 C 109.109375 214.339844 109.160156 214.523438 109.308594 214.5625 C 109.398438 214.585938 109.488281 214.609375 109.578125 214.632812 C 109.648438 214.652344 109.722656 214.628906 109.773438 214.578125 C 111.003906 213.308594 112.21875 212.035156 113.425781 210.765625 C 113.476562 210.8125 113.53125 210.859375 113.589844 210.902344 C 113.65625 210.957031 113.726562 211.007812 113.800781 211.054688 C 113.925781 211.136719 113.941406 211.316406 113.835938 211.425781 C 112.789062 212.503906 111.757812 213.558594 110.742188 214.59375 C 110.628906 214.707031 110.6875 214.898438 110.839844 214.933594 C 110.933594 214.953125 111.027344 214.972656 111.117188 214.992188 C 111.183594 215.007812 111.253906 214.984375 111.300781 214.9375 C 112.648438 213.542969 114.4375 211.65625 114.464844 211.617188 C 114.566406 211.46875 114.59375 211.320312 114.574219 211.171875 C 114.539062 211.054688 114.496094 210.9375 114.4375 210.828125 C 114.320312 210.648438 113.953125 210.34375 113.941406 210.332031 C 113.929688 210.328125 113.523438 209.984375 113.496094 209.71875 C 113.492188 209.652344 113.511719 209.59375 113.546875 209.542969 C 113.550781 209.496094 113.566406 209.449219 113.597656 209.410156 L 114.417969 208.359375 C 114.472656 208.289062 114.558594 208.257812 114.648438 208.269531 C 114.8125 208.296875 115.074219 208.394531 115.367188 208.625 C 115.667969 208.859375 115.992188 209.320312 116.042969 209.363281 C 116.714844 209.9375 117.734375 208.324219 118.210938 207.832031 C 118.28125 207.761719 118.390625 207.753906 118.46875 207.8125 C 118.550781 207.878906 118.566406 207.996094 118.503906 208.078125 L 117.121094 209.917969 C 117.117188 209.921875 117.109375 209.929688 117.101562 209.9375 C 115.953125 211.121094 114.050781 213.21875 113.007812 214.375 C 112.683594 214.734375 112.882812 215.308594 113.359375 215.390625 C 113.589844 215.429688 113.777344 215.460938 113.824219 215.46875 C 113.898438 215.476562 113.972656 215.449219 114.015625 215.390625 L 119.496094 208.097656 C 119.53125 208.050781 119.554688 208.003906 119.566406 207.953125 C 119.605469 207.800781 119.554688 207.636719 119.421875 207.539062 L 102.054688 193.96875 C 101.96875 193.902344 101.863281 193.871094 101.753906 193.882812 " fill-opacity="1" fill-rule="nonzero"/></g><path fill="#ffffff" d="M 108.539062 177.632812 C 108.375 177.753906 107.847656 178.585938 107.96875 179.535156 C 108.066406 180.328125 109.136719 182.09375 110.230469 183.351562 L 110.332031 182.519531 C 110.34375 182.40625 110.402344 182.304688 110.496094 182.242188 C 110.585938 182.175781 110.703125 182.148438 110.8125 182.171875 L 113.289062 182.683594 C 115.011719 182.964844 116.027344 182.710938 116.421875 181.898438 C 116.5 181.734375 116.742188 181.230469 116.09375 180.722656 C 116.066406 180.703125 116.046875 180.6875 116.039062 180.679688 C 115.914062 180.5625 115.878906 180.375 115.949219 180.214844 C 116.023438 180.058594 116.191406 179.964844 116.363281 179.988281 C 116.386719 179.988281 118.53125 180.246094 119.445312 180.246094 C 119.636719 180.246094 119.703125 180.234375 119.710938 180.230469 C 120.808594 179.996094 121.382812 179.496094 121.425781 178.738281 C 121.4375 178.488281 121.394531 178.199219 121.296875 177.886719 C 121.257812 177.765625 121.28125 177.632812 121.355469 177.527344 C 121.429688 177.425781 121.550781 177.363281 121.679688 177.363281 C 122.410156 177.359375 123.234375 176.636719 123.285156 175.484375 C 123.328125 174.472656 123.179688 174.285156 122.816406 173.835938 C 122.757812 173.765625 122.699219 173.691406 122.632812 173.605469 C 122.515625 173.453125 122.523438 173.234375 122.65625 173.089844 C 122.660156 173.082031 123.503906 172.132812 123.398438 171.007812 C 123.300781 169.945312 122.539062 168.890625 121.859375 168.253906 C 121.613281 168.296875 121.367188 168.320312 121.125 168.320312 C 119.496094 168.320312 118.390625 167.292969 117.753906 166.429688 C 117.511719 166.105469 117.417969 165.738281 117.476562 165.363281 C 117.554688 164.875 117.902344 164.390625 118.453125 164.003906 L 118.738281 163.792969 C 115.128906 164.027344 113.1875 164.332031 112.898438 164.535156 C 112.59375 164.816406 111.996094 165.707031 112.023438 166.316406 C 112.035156 166.546875 112.140625 166.652344 112.21875 166.710938 C 112.382812 166.835938 112.425781 167.0625 112.320312 167.242188 C 112.214844 167.417969 111.992188 167.484375 111.804688 167.398438 C 111.617188 167.308594 111.363281 167.261719 111.09375 167.261719 C 110.492188 167.261719 109.730469 167.511719 109.398438 168.210938 C 109.03125 168.976562 108.535156 170.019531 109.980469 171.703125 L 110.074219 171.765625 C 110.226562 171.875 110.289062 172.074219 110.214844 172.25 C 110.144531 172.425781 109.960938 172.527344 109.777344 172.496094 C 109.753906 172.492188 109.730469 172.488281 109.707031 172.488281 C 109.164062 172.488281 108.160156 173.101562 107.996094 173.53125 C 107.992188 173.542969 107.984375 173.554688 107.980469 173.566406 C 107.949219 173.628906 107.257812 175.113281 108.632812 176.957031 C 108.738281 177.042969 108.792969 177.179688 108.773438 177.316406 C 108.757812 177.457031 108.667969 177.578125 108.539062 177.632812 Z M 110.527344 184.660156 C 110.421875 184.660156 110.320312 184.621094 110.246094 184.546875 C 108.949219 183.292969 107.324219 180.875 107.167969 179.636719 C 107.050781 178.703125 107.414062 177.726562 107.828125 177.21875 C 106.425781 175.15625 107.148438 173.441406 107.25 173.226562 C 107.484375 172.636719 108.308594 172.0625 109.039062 171.8125 C 107.675781 169.949219 108.3125 168.609375 108.667969 167.867188 C 109.164062 166.824219 110.246094 166.453125 111.09375 166.453125 C 111.136719 166.453125 111.183594 166.457031 111.226562 166.457031 C 111.222656 166.421875 111.222656 166.390625 111.21875 166.351562 C 111.175781 165.421875 111.945312 164.316406 112.363281 163.933594 C 112.835938 163.503906 115.417969 163.15625 120.03125 162.90625 C 120.210938 162.898438 120.371094 163.003906 120.429688 163.171875 C 120.492188 163.339844 120.4375 163.527344 120.292969 163.632812 L 118.929688 164.65625 C 118.550781 164.921875 118.316406 165.222656 118.273438 165.492188 C 118.246094 165.648438 118.289062 165.800781 118.398438 165.949219 C 118.929688 166.664062 119.832031 167.515625 121.125 167.515625 C 121.371094 167.515625 121.628906 167.484375 121.886719 167.421875 C 122.015625 167.394531 122.148438 167.429688 122.246094 167.511719 C 123.066406 168.230469 124.074219 169.554688 124.203125 170.9375 C 124.300781 172.011719 123.777344 172.921875 123.464844 173.359375 C 123.902344 173.902344 124.144531 174.285156 124.089844 175.519531 C 124.035156 176.777344 123.21875 177.835938 122.179688 178.101562 C 122.226562 178.339844 122.242188 178.566406 122.230469 178.78125 C 122.167969 179.914062 121.332031 180.707031 119.878906 181.019531 C 119.78125 181.039062 119.640625 181.050781 119.445312 181.050781 C 118.890625 181.050781 117.941406 180.964844 117.222656 180.890625 C 117.394531 181.316406 117.371094 181.78125 117.148438 182.25 C 116.714844 183.144531 115.820312 183.601562 114.492188 183.601562 C 114.089844 183.601562 113.648438 183.5625 113.152344 183.480469 C 113.144531 183.476562 113.140625 183.476562 113.132812 183.476562 L 111.078125 183.050781 L 110.925781 184.304688 C 110.90625 184.457031 110.804688 184.585938 110.660156 184.636719 C 110.617188 184.652344 110.570312 184.660156 110.527344 184.660156 " fill-opacity="1" fill-rule="nonzero"/><path fill="#ffffff" d="M 122.953125 173.765625 C 121.890625 173.765625 120.863281 173.453125 119.980469 172.863281 L 111.75 167.367188 L 112.199219 166.699219 L 120.429688 172.191406 C 121.179688 172.691406 122.050781 172.957031 122.953125 172.957031 L 122.953125 173.765625 " fill-opacity="1" fill-rule="nonzero"/><path fill="#ffffff" d="M 122.804688 167.101562 C 122.214844 167.375 121.652344 167.515625 121.125 167.515625 C 119.832031 167.515625 118.929688 166.664062 118.398438 165.949219 C 118.289062 165.800781 118.246094 165.648438 118.273438 165.492188 C 118.277344 165.460938 118.285156 165.429688 118.296875 165.394531 C 118.597656 165.476562 118.914062 165.738281 119.199219 165.980469 C 119.527344 166.253906 119.839844 166.515625 120.152344 166.515625 C 120.222656 166.515625 120.289062 166.503906 120.355469 166.476562 C 121.996094 165.828125 122.433594 165.136719 122.507812 164.671875 C 122.566406 164.320312 122.433594 163.976562 122.144531 163.734375 C 122.121094 163.710938 122.089844 163.695312 122.058594 163.6875 L 120.765625 163.28125 L 122.914062 161.667969 C 123.242188 161.53125 123.664062 161.457031 124.132812 161.457031 C 124.492188 161.457031 124.859375 161.5 125.195312 161.582031 L 130.105469 163.828125 C 127.871094 164.464844 126.15625 165.046875 122.804688 167.101562 Z M 118.929688 164.65625 L 120.289062 163.636719 L 121.867188 164.132812 C 121.96875 164.230469 122.066406 164.382812 122.03125 164.59375 C 121.996094 164.820312 121.742188 165.410156 120.175781 166.027344 C 120.066406 166.074219 119.730469 165.792969 119.511719 165.609375 C 119.234375 165.375 118.914062 165.109375 118.5625 164.972656 C 118.660156 164.863281 118.785156 164.757812 118.929688 164.65625 Z M 131.4375 163.550781 L 125.496094 160.835938 C 125.476562 160.824219 125.453125 160.816406 125.429688 160.808594 C 125.019531 160.707031 124.570312 160.652344 124.132812 160.652344 C 123.53125 160.652344 122.984375 160.753906 122.546875 160.949219 C 122.519531 160.960938 122.492188 160.976562 122.46875 160.996094 L 118.453125 164.003906 C 117.902344 164.390625 117.554688 164.875 117.476562 165.363281 C 117.417969 165.738281 117.511719 166.105469 117.753906 166.429688 C 118.390625 167.292969 119.496094 168.320312 121.125 168.320312 C 121.777344 168.320312 122.464844 168.152344 123.167969 167.820312 C 123.179688 167.816406 123.191406 167.808594 123.207031 167.800781 C 126.800781 165.59375 128.464844 165.125 130.988281 164.414062 L 131.378906 164.304688 C 131.542969 164.257812 131.660156 164.117188 131.671875 163.949219 C 131.683594 163.78125 131.589844 163.621094 131.4375 163.550781 " fill-opacity="1" fill-rule="nonzero"/><path fill="#ffffff" d="M 118.507812 176.769531 C 117.890625 177.058594 117.597656 178.335938 117.769531 178.9375 C 117.851562 179.222656 118.183594 179.320312 118.4375 179.414062 C 118.945312 179.597656 119.648438 179.75 120.175781 179.570312 C 120.632812 179.417969 120.933594 178.886719 121.03125 178.4375 C 121.109375 178.085938 121.117188 177.546875 120.808594 177.304688 C 120.554688 177.105469 120.171875 176.980469 119.871094 176.871094 C 119.460938 176.722656 118.996094 176.613281 118.566406 176.746094 C 118.269531 176.835938 118.394531 177.304688 118.691406 177.210938 C 119.226562 177.046875 119.871094 177.363281 120.339844 177.601562 C 120.402344 177.632812 120.5 177.667969 120.554688 177.714844 C 120.578125 177.734375 120.589844 177.761719 120.558594 177.71875 C 120.503906 177.648438 120.589844 177.988281 120.589844 177.972656 C 120.617188 178.351562 120.4375 178.898438 120.078125 179.082031 C 119.710938 179.265625 119.132812 179.121094 118.757812 179.007812 C 118.621094 178.96875 118.488281 178.921875 118.359375 178.859375 C 118.316406 178.839844 118.261719 178.820312 118.226562 178.792969 C 118.148438 178.722656 118.246094 178.875 118.230469 178.773438 C 118.175781 178.347656 118.308594 177.394531 118.75 177.1875 C 119.03125 177.054688 118.789062 176.640625 118.507812 176.769531 " fill-opacity="1" fill-rule="nonzero"/><path fill="#ffffff" d="M 114.390625 179.800781 C 113.726562 179.84375 113.410156 180.484375 113.347656 181.082031 C 113.277344 181.769531 113.632812 182.085938 114.277344 182.242188 C 114.851562 182.382812 115.519531 182.4375 115.796875 181.816406 C 115.988281 181.382812 116.019531 180.855469 116.003906 180.386719 C 116 180.277344 115.929688 180.1875 115.828125 180.152344 C 115.371094 180 114.878906 179.820312 114.390625 179.800781 C 114.082031 179.785156 114.082031 180.269531 114.390625 180.28125 C 114.828125 180.300781 115.285156 180.484375 115.699219 180.621094 C 115.640625 180.542969 115.582031 180.464844 115.519531 180.386719 C 115.527344 180.648438 115.515625 180.917969 115.472656 181.175781 C 115.445312 181.347656 115.414062 181.625 115.28125 181.753906 C 115.160156 181.875 114.972656 181.851562 114.808594 181.839844 C 114.457031 181.816406 113.839844 181.746094 113.820312 181.3125 C 113.800781 180.953125 113.949219 180.3125 114.390625 180.28125 C 114.703125 180.261719 114.703125 179.78125 114.390625 179.800781 " fill-opacity="1" fill-rule="nonzero"/><path fill="#ffffff" d="M 109.84375 172.097656 L 116.59375 175.585938 L 121.679688 177.765625 " fill-opacity="1" fill-rule="nonzero"/><path fill="#ffffff" d="M 121.523438 178.136719 L 116.433594 175.957031 C 116.425781 175.953125 116.417969 175.949219 116.410156 175.945312 L 109.65625 172.457031 L 110.027344 171.738281 L 116.765625 175.222656 L 121.839844 177.394531 L 121.523438 178.136719 " fill-opacity="1" fill-rule="nonzero"/><path fill="#ffffff" d="M 120.875 170.640625 C 120.839844 170.640625 120.792969 170.644531 120.769531 170.667969 C 120.679688 170.742188 120.523438 170.914062 120.28125 171.292969 C 120.191406 171.4375 120.167969 171.605469 120.207031 171.769531 C 120.246094 171.9375 120.347656 172.074219 120.496094 172.164062 C 121.675781 172.871094 122.046875 172.953125 122.144531 172.957031 C 122.390625 172.761719 122.523438 172.496094 122.546875 172.171875 C 122.566406 171.8125 122.4375 171.523438 122.382812 171.472656 C 122.136719 171.230469 121.300781 170.640625 120.875 170.640625 Z M 122.15625 173.441406 C 122.039062 173.441406 121.6875 173.441406 120.246094 172.578125 C 119.988281 172.421875 119.804688 172.175781 119.734375 171.882812 C 119.664062 171.589844 119.714844 171.289062 119.875 171.035156 C 120.09375 170.6875 120.289062 170.4375 120.457031 170.296875 C 120.566406 170.203125 120.707031 170.15625 120.875 170.15625 C 121.523438 170.15625 122.503906 170.910156 122.71875 171.125 C 122.890625 171.292969 123.058594 171.726562 123.027344 172.203125 C 123.007812 172.535156 122.882812 173.003906 122.410156 173.363281 C 122.339844 173.417969 122.253906 173.441406 122.15625 173.441406 " fill-opacity="1" fill-rule="nonzero"/><path fill="#ffffff" d="M 120.828125 174.105469 C 120.746094 174.105469 120.683594 174.121094 120.652344 174.144531 C 120.566406 174.21875 120.40625 174.390625 120.167969 174.769531 C 120.015625 175.011719 119.890625 175.410156 119.953125 175.675781 C 119.976562 175.761719 120.011719 175.816406 120.070312 175.851562 C 120.660156 176.207031 121.46875 176.527344 121.769531 176.527344 C 121.777344 176.527344 121.785156 176.527344 121.789062 176.527344 C 122.25 176.203125 122.386719 175.726562 122.429688 175.46875 C 122.488281 175.101562 122.417969 174.828125 122.378906 174.777344 C 122.179688 174.585938 121.316406 174.105469 120.828125 174.105469 Z M 121.769531 177.011719 C 121.332031 177.011719 120.417969 176.625 119.820312 176.269531 C 119.652344 176.164062 119.535156 176 119.484375 175.789062 C 119.382812 175.371094 119.550781 174.847656 119.757812 174.515625 C 119.976562 174.164062 120.175781 173.917969 120.34375 173.773438 C 120.464844 173.671875 120.625 173.621094 120.828125 173.621094 C 121.484375 173.621094 122.464844 174.1875 122.71875 174.4375 C 122.917969 174.628906 122.953125 175.066406 122.925781 175.382812 C 122.871094 176.027344 122.546875 176.597656 122.042969 176.941406 C 121.972656 176.988281 121.882812 177.011719 121.769531 177.011719 " fill-opacity="1" fill-rule="nonzero"/><path fill="#ffffff" d="M 116.316406 180.386719 L 108.375 177.265625 " fill-opacity="1" fill-rule="nonzero"/><path fill="#ffffff" d="M 116.167969 180.761719 L 108.226562 177.640625 L 108.523438 176.890625 L 116.464844 180.011719 L 116.167969 180.761719 " fill-opacity="1" fill-rule="nonzero"/><path fill="#ffffff" d="M 112.929688 167.414062 C 112.875 166.953125 112.796875 166.496094 112.703125 166.039062 C 112.636719 165.738281 112.179688 165.894531 112.242188 166.195312 C 112.328125 166.609375 112.394531 167.023438 112.449219 167.445312 C 112.484375 167.753906 112.96875 167.722656 112.929688 167.414062 " fill-opacity="1" fill-rule="nonzero"/><path fill="#ffffff" d="M 113.636719 168.058594 C 113.554688 167.492188 113.464844 166.925781 113.363281 166.363281 C 113.3125 166.058594 112.828125 166.085938 112.882812 166.394531 C 112.980469 166.957031 113.070312 167.523438 113.152344 168.089844 C 113.199219 168.394531 113.679688 168.367188 113.636719 168.058594 " fill-opacity="1" fill-rule="nonzero"/><path fill="#ffffff" d="M 114.371094 168.335938 C 114.242188 167.855469 114.144531 167.367188 114.074219 166.871094 C 114.03125 166.5625 113.546875 166.59375 113.589844 166.902344 C 113.667969 167.4375 113.773438 167.96875 113.914062 168.492188 C 113.992188 168.792969 114.453125 168.636719 114.371094 168.335938 " fill-opacity="1" fill-rule="nonzero"/><path fill="#ffffff" d="M 115 168.839844 C 114.886719 168.367188 114.792969 167.894531 114.71875 167.414062 C 114.671875 167.109375 114.1875 167.136719 114.234375 167.445312 C 114.316406 167.964844 114.417969 168.484375 114.539062 168.996094 C 114.609375 169.300781 115.070312 169.140625 115 168.839844 " fill-opacity="1" fill-rule="nonzero"/><path fill="#ffffff" d="M 115.703125 169.367188 C 115.59375 168.886719 115.5 168.402344 115.421875 167.917969 C 115.375 167.613281 114.890625 167.640625 114.941406 167.949219 C 115.023438 168.476562 115.125 169 115.246094 169.519531 C 115.316406 169.824219 115.773438 169.667969 115.703125 169.367188 " fill-opacity="1" fill-rule="nonzero"/><path fill="#ffffff" d="M 116.398438 169.789062 C 116.328125 169.316406 116.234375 168.84375 116.121094 168.378906 C 116.046875 168.078125 115.589844 168.234375 115.664062 168.535156 C 115.765625 168.960938 115.851562 169.386719 115.917969 169.820312 C 115.960938 170.128906 116.445312 170.097656 116.398438 169.789062 " fill-opacity="1" fill-rule="nonzero"/><path fill="#ffffff" d="M 117.019531 170.074219 C 116.957031 169.71875 116.886719 169.367188 116.800781 169.019531 C 116.730469 168.71875 116.269531 168.875 116.34375 169.175781 C 116.417969 169.484375 116.480469 169.792969 116.535156 170.105469 C 116.585938 170.410156 117.070312 170.378906 117.019531 170.074219 " fill-opacity="1" fill-rule="nonzero"/><path fill="#ffffff" d="M 117.761719 170.492188 C 117.679688 170.15625 117.617188 169.816406 117.570312 169.46875 C 117.53125 169.164062 117.046875 169.191406 117.089844 169.5 C 117.140625 169.886719 117.210938 170.269531 117.300781 170.648438 C 117.375 170.953125 117.832031 170.792969 117.761719 170.492188 " fill-opacity="1" fill-rule="nonzero"/><path fill="#ffffff" d="M 118.589844 171.183594 C 118.523438 170.761719 118.425781 170.351562 118.289062 169.949219 C 118.191406 169.652344 117.730469 169.804688 117.832031 170.101562 C 117.953125 170.464844 118.046875 170.835938 118.109375 171.210938 C 118.15625 171.519531 118.640625 171.488281 118.589844 171.183594 " fill-opacity="1" fill-rule="nonzero"/><path fill="#ffffff" d="M 119.324219 171.804688 C 119.261719 171.414062 119.179688 171.023438 119.082031 170.636719 C 119.003906 170.335938 118.542969 170.492188 118.621094 170.792969 C 118.710938 171.136719 118.785156 171.484375 118.839844 171.835938 C 118.890625 172.140625 119.375 172.113281 119.324219 171.804688 " fill-opacity="1" fill-rule="nonzero"/><path fill="#ffffff" d="M 121.660156 168.089844 C 121.65625 168.421875 121.621094 168.746094 121.558594 169.074219 C 121.5 169.378906 121.976562 169.472656 122.035156 169.167969 C 122.105469 168.800781 122.140625 168.429688 122.144531 168.058594 C 122.148438 167.746094 121.664062 167.777344 121.660156 168.089844 " fill-opacity="1" fill-rule="nonzero"/><path fill="#ffffff" d="M 122.332031 168.570312 C 122.296875 168.996094 122.265625 169.417969 122.230469 169.839844 C 122.203125 170.148438 122.679688 170.242188 122.703125 169.933594 C 122.738281 169.511719 122.773438 169.085938 122.808594 168.664062 C 122.832031 168.355469 122.359375 168.261719 122.332031 168.570312 " fill-opacity="1" fill-rule="nonzero"/><path fill="#ffffff" d="M 122.890625 169.4375 C 122.875 169.828125 122.847656 170.21875 122.808594 170.605469 C 122.777344 170.914062 123.253906 171.007812 123.285156 170.699219 C 123.328125 170.269531 123.355469 169.839844 123.375 169.40625 C 123.386719 169.097656 122.902344 169.128906 122.890625 169.4375 " fill-opacity="1" fill-rule="nonzero"/><path fill="#ffffff" d="M 110.554688 172.148438 C 110.390625 171.726562 110.265625 171.296875 110.175781 170.855469 C 110.113281 170.550781 109.65625 170.707031 109.71875 171.007812 C 109.804688 171.453125 109.929688 171.882812 110.09375 172.304688 C 110.207031 172.59375 110.664062 172.441406 110.554688 172.148438 " fill-opacity="1" fill-rule="nonzero"/><path fill="#ffffff" d="M 111.550781 172.792969 C 111.414062 172.320312 111.289062 171.84375 111.183594 171.363281 C 111.117188 171.058594 110.65625 171.214844 110.722656 171.515625 C 110.832031 171.996094 110.953125 172.472656 111.09375 172.945312 C 111.179688 173.246094 111.640625 173.089844 111.550781 172.792969 " fill-opacity="1" fill-rule="nonzero"/><path fill="#ffffff" d="M 112.523438 173.234375 C 112.417969 172.839844 112.273438 172.433594 112.214844 172.027344 C 112.167969 171.722656 111.6875 171.75 111.730469 172.058594 C 111.796875 172.507812 111.949219 172.953125 112.0625 173.386719 C 112.140625 173.691406 112.597656 173.535156 112.523438 173.234375 " fill-opacity="1" fill-rule="nonzero"/><path fill="#ffffff" d="M 113.460938 173.699219 C 113.351562 173.285156 113.242188 172.867188 113.132812 172.453125 C 113.054688 172.148438 112.597656 172.304688 112.675781 172.605469 C 112.785156 173.019531 112.894531 173.4375 113.003906 173.855469 C 113.082031 174.15625 113.539062 174 113.460938 173.699219 " fill-opacity="1" fill-rule="nonzero"/><path fill="#ffffff" d="M 114.375 174.160156 C 114.226562 173.746094 114.09375 173.324219 113.976562 172.894531 C 113.898438 172.59375 113.4375 172.75 113.519531 173.050781 C 113.632812 173.476562 113.765625 173.898438 113.914062 174.316406 C 114.019531 174.609375 114.476562 174.457031 114.375 174.160156 " fill-opacity="1" fill-rule="nonzero"/><path fill="#ffffff" d="M 115.636719 175.816406 C 115.527344 175.5 115.40625 175.1875 115.273438 174.882812 C 115.257812 174.847656 115.238281 174.820312 115.214844 174.800781 C 115.234375 174.753906 115.238281 174.703125 115.222656 174.644531 C 115.136719 174.332031 115.050781 174.015625 114.964844 173.703125 C 114.882812 173.402344 114.421875 173.558594 114.503906 173.855469 C 114.589844 174.171875 114.679688 174.484375 114.765625 174.796875 C 114.773438 174.832031 114.785156 174.855469 114.804688 174.878906 C 114.789062 174.921875 114.789062 174.976562 114.8125 175.035156 C 114.949219 175.34375 115.070312 175.652344 115.175781 175.96875 C 115.277344 176.265625 115.734375 176.113281 115.636719 175.816406 " fill-opacity="1" fill-rule="nonzero"/><path fill="#ffffff" d="M 114.152344 179.421875 C 114.019531 179.117188 113.902344 178.8125 113.796875 178.5 C 113.699219 178.203125 113.242188 178.355469 113.339844 178.652344 C 113.445312 178.964844 113.5625 179.273438 113.691406 179.574219 C 113.816406 179.859375 114.273438 179.707031 114.152344 179.421875 " fill-opacity="1" fill-rule="nonzero"/><path fill="#ffffff" d="M 115.066406 179.605469 C 114.867188 179.214844 114.691406 178.8125 114.542969 178.398438 C 114.4375 178.105469 113.980469 178.257812 114.085938 178.550781 C 114.25 179.007812 114.445312 179.445312 114.667969 179.875 C 114.808594 180.152344 115.210938 179.878906 115.066406 179.605469 " fill-opacity="1" fill-rule="nonzero"/><path fill="#ffffff" d="M 116.0625 180.105469 C 115.839844 179.644531 115.617188 179.183594 115.390625 178.71875 C 115.257812 178.441406 114.796875 178.59375 114.933594 178.875 C 115.15625 179.335938 115.382812 179.800781 115.605469 180.261719 C 115.738281 180.539062 116.199219 180.386719 116.0625 180.105469 " fill-opacity="1" fill-rule="nonzero"/><path fill="#ffffff" d="M 116.867188 180.1875 L 116.441406 179.121094 C 116.324219 178.832031 115.867188 178.988281 115.984375 179.277344 L 116.410156 180.34375 C 116.523438 180.628906 116.984375 180.476562 116.867188 180.1875 " fill-opacity="1" fill-rule="nonzero"/><path fill="#ffffff" d="M 117.679688 180.289062 C 117.570312 180.03125 117.457031 179.777344 117.347656 179.527344 C 117.222656 179.242188 116.765625 179.394531 116.890625 179.679688 C 117 179.933594 117.109375 180.1875 117.21875 180.441406 C 117.34375 180.726562 117.804688 180.574219 117.679688 180.289062 " fill-opacity="1" fill-rule="nonzero"/><path fill="#ffffff" d="M 108.539062 179.484375 C 108.316406 179.164062 108.085938 178.851562 107.847656 178.542969 C 107.660156 178.292969 107.257812 178.5625 107.449219 178.8125 C 107.683594 179.121094 107.914062 179.433594 108.140625 179.753906 C 108.320312 180.007812 108.71875 179.738281 108.539062 179.484375 " fill-opacity="1" fill-rule="nonzero"/><path fill="#ffffff" d="M 109.082031 180.582031 C 108.703125 180.316406 108.335938 180.042969 107.972656 179.757812 C 107.730469 179.5625 107.414062 179.929688 107.65625 180.125 C 108.019531 180.410156 108.390625 180.683594 108.765625 180.949219 C 109.015625 181.128906 109.335938 180.761719 109.082031 180.582031 " fill-opacity="1" fill-rule="nonzero"/><path fill="#ffffff" d="M 109.59375 181.378906 C 109.222656 181.257812 108.851562 181.140625 108.480469 181.019531 C 108.1875 180.925781 108.097656 181.402344 108.390625 181.496094 C 108.761719 181.613281 109.128906 181.734375 109.5 181.851562 C 109.796875 181.949219 109.886719 181.472656 109.59375 181.378906 " fill-opacity="1" fill-rule="nonzero"/><path fill="#ffffff" d="M 109.894531 182.164062 C 109.671875 182.121094 109.464844 182.050781 109.261719 181.953125 C 108.984375 181.816406 108.773438 182.25 109.054688 182.386719 C 109.289062 182.503906 109.542969 182.589844 109.804688 182.636719 C 110.109375 182.695312 110.203125 182.21875 109.894531 182.164062 " fill-opacity="1" fill-rule="nonzero"/><path fill="#ffffff" d="M 116.289062 175.976562 C 116.222656 175.769531 116.167969 175.5625 116.128906 175.355469 C 116.105469 175.226562 116.011719 175.117188 115.871094 175.128906 C 115.753906 175.136719 115.621094 175.253906 115.644531 175.386719 C 115.691406 175.636719 115.75 175.886719 115.828125 176.128906 C 115.925781 176.425781 116.382812 176.273438 116.289062 175.976562 " fill-opacity="1" fill-rule="nonzero"/><path fill="#ffffff" d="M 116.863281 176.160156 C 116.828125 175.964844 116.78125 175.777344 116.707031 175.59375 C 116.660156 175.472656 116.527344 175.398438 116.402344 175.441406 C 116.28125 175.480469 116.203125 175.625 116.25 175.746094 C 116.304688 175.890625 116.351562 176.039062 116.378906 176.191406 C 116.402344 176.316406 116.496094 176.425781 116.636719 176.414062 C 116.753906 176.40625 116.886719 176.289062 116.863281 176.160156 " fill-opacity="1" fill-rule="nonzero"/><path fill="#ffffff" d="M 120.640625 166.953125 C 120.535156 167.152344 120.425781 167.347656 120.320312 167.546875 C 120.167969 167.816406 120.605469 168.027344 120.753906 167.753906 C 120.863281 167.558594 120.96875 167.359375 121.078125 167.164062 C 121.226562 166.890625 120.789062 166.679688 120.640625 166.953125 " fill-opacity="1" fill-rule="nonzero"/><path fill="#ffffff" d="M 121.792969 166.847656 C 121.703125 166.769531 121.527344 166.765625 121.453125 166.871094 C 121.304688 167.085938 121.175781 167.308594 121.074219 167.546875 C 120.949219 167.832031 121.382812 168.042969 121.507812 167.753906 C 121.59375 167.558594 121.695312 167.367188 121.820312 167.1875 C 121.894531 167.078125 121.898438 166.9375 121.792969 166.847656 " fill-opacity="1" fill-rule="nonzero"/><path fill="#ffffff" d="M 122.65625 166.355469 C 122.546875 166.304688 122.375 166.347656 122.332031 166.46875 C 122.246094 166.714844 122.136719 166.953125 121.992188 167.171875 C 121.921875 167.277344 121.910156 167.417969 122.019531 167.511719 C 122.109375 167.589844 122.289062 167.59375 122.359375 167.484375 C 122.527344 167.230469 122.667969 166.96875 122.769531 166.679688 C 122.8125 166.554688 122.78125 166.417969 122.65625 166.355469 " fill-opacity="1" fill-rule="nonzero"/><path fill="#ffffff" d="M 123.273438 166.066406 L 122.871094 167.007812 C 122.75 167.292969 123.183594 167.503906 123.308594 167.21875 C 123.441406 166.902344 123.578125 166.589844 123.710938 166.277344 C 123.832031 165.992188 123.398438 165.78125 123.273438 166.066406 " fill-opacity="1" fill-rule="nonzero"/><path fill="#ffffff" d="M 124.226562 165.589844 C 124.175781 165.808594 124.109375 166.019531 124.027344 166.226562 C 123.910156 166.515625 124.34375 166.726562 124.460938 166.4375 C 124.5625 166.191406 124.644531 165.941406 124.703125 165.683594 C 124.773438 165.378906 124.296875 165.285156 124.226562 165.589844 " fill-opacity="1" fill-rule="nonzero"/><path fill="#ffffff" d="M 125.316406 164.96875 C 125.175781 164.941406 125.074219 165.035156 125.035156 165.160156 C 124.953125 165.410156 124.871094 165.660156 124.789062 165.910156 C 124.75 166.035156 124.863281 166.171875 124.980469 166.195312 C 125.121094 166.222656 125.222656 166.128906 125.265625 166.003906 C 125.34375 165.753906 125.425781 165.503906 125.507812 165.253906 C 125.550781 165.128906 125.433594 164.992188 125.316406 164.96875 " fill-opacity="1" fill-rule="nonzero"/><path fill="#ffffff" d="M 126.046875 164.777344 C 125.933594 165.039062 125.816406 165.300781 125.691406 165.554688 C 125.554688 165.835938 125.988281 166.042969 126.125 165.765625 C 126.25 165.507812 126.371094 165.25 126.480469 164.988281 C 126.601562 164.703125 126.167969 164.492188 126.046875 164.777344 " fill-opacity="1" fill-rule="nonzero"/><path fill="#ffffff" d="M 138.988281 181.773438 L 135.972656 185.511719 C 135.960938 185.527344 135.949219 185.542969 135.9375 185.558594 C 135.78125 185.832031 135.574219 186.136719 135.34375 186.441406 L 135.34375 185.933594 C 135.34375 185.621094 134.859375 185.652344 134.859375 185.964844 L 134.859375 187.011719 C 134.859375 187.019531 134.859375 187.027344 134.863281 187.035156 C 134.761719 187.148438 134.664062 187.261719 134.5625 187.367188 L 134.5625 186.496094 C 134.5625 186.183594 134.082031 186.21875 134.082031 186.527344 L 134.082031 187.839844 C 134.054688 187.863281 134.027344 187.886719 134.003906 187.90625 L 134 187.910156 C 133.882812 188.007812 133.703125 187.925781 133.703125 187.769531 L 133.703125 187.355469 C 133.703125 187.042969 133.21875 187.078125 133.21875 187.386719 L 133.21875 188.472656 C 133.21875 188.527344 133.195312 188.582031 133.152344 188.617188 C 133.117188 188.648438 133.078125 188.675781 133.042969 188.710938 C 132.917969 188.808594 132.734375 188.722656 132.734375 188.566406 L 132.734375 188.027344 C 132.734375 187.714844 132.253906 187.75 132.253906 188.058594 L 132.253906 189.273438 C 132.253906 189.328125 132.226562 189.378906 132.183594 189.414062 C 132.136719 189.453125 132.09375 189.492188 132.046875 189.53125 C 131.921875 189.628906 131.742188 189.542969 131.742188 189.386719 L 131.742188 188.859375 C 131.742188 188.550781 131.257812 188.582031 131.257812 188.890625 L 131.257812 190.054688 C 131.257812 190.128906 131.222656 190.203125 131.164062 190.253906 L 131.136719 190.273438 C 130.972656 190.410156 130.71875 190.292969 130.71875 190.078125 L 130.71875 189.101562 C 130.71875 188.792969 130.238281 188.824219 130.238281 189.132812 L 130.238281 191.007812 C 130.226562 191.015625 130.214844 191.027344 130.203125 191.035156 C 130.203125 191.035156 130.203125 191.039062 130.199219 191.039062 C 129.988281 191.210938 129.671875 191.054688 129.671875 190.78125 L 129.671875 189.453125 C 129.671875 189.140625 129.191406 189.171875 129.191406 189.484375 L 129.191406 191.660156 C 129.191406 191.6875 129.195312 191.710938 129.203125 191.734375 C 129.164062 191.757812 129.128906 191.78125 129.089844 191.800781 C 128.941406 191.894531 128.746094 191.785156 128.746094 191.609375 L 128.746094 190.570312 C 128.746094 190.257812 128.265625 190.289062 128.265625 190.601562 L 128.265625 192.183594 C 128.265625 192.214844 128.269531 192.242188 128.277344 192.265625 C 128.226562 192.292969 128.171875 192.320312 128.121094 192.347656 C 127.96875 192.425781 127.792969 192.316406 127.792969 192.148438 L 127.792969 191.039062 C 127.792969 190.726562 127.308594 190.757812 127.308594 191.070312 L 127.308594 192.652344 C 127.308594 192.675781 127.3125 192.695312 127.316406 192.714844 C 127.265625 192.734375 127.214844 192.757812 127.164062 192.777344 C 127.015625 192.839844 126.851562 192.734375 126.851562 192.570312 L 126.851562 191.519531 C 126.851562 191.210938 126.367188 191.242188 126.367188 191.550781 L 126.367188 193.058594 C 126.367188 193.078125 126.371094 193.097656 126.375 193.113281 C 126.328125 193.132812 126.28125 193.152344 126.234375 193.171875 C 126.089844 193.238281 125.921875 193.125 125.921875 192.964844 L 125.921875 192.191406 C 125.921875 191.878906 125.441406 191.914062 125.441406 192.222656 L 125.441406 193.40625 C 125.441406 193.445312 125.449219 193.476562 125.460938 193.503906 C 125.394531 193.535156 125.324219 193.5625 125.257812 193.59375 C 125.109375 193.65625 124.945312 193.546875 124.945312 193.386719 L 124.945312 192.597656 C 124.945312 192.285156 124.460938 192.316406 124.460938 192.625 L 124.460938 193.996094 C 124.460938 194.007812 124.460938 194.011719 124.464844 194.023438 C 124.386719 194.070312 124.3125 194.117188 124.238281 194.167969 C 124.09375 194.265625 123.894531 194.164062 123.894531 193.988281 L 123.894531 193.078125 C 123.894531 192.765625 123.414062 192.800781 123.414062 193.109375 L 123.414062 194.6875 C 123.414062 194.753906 123.382812 194.816406 123.335938 194.855469 C 123.265625 194.917969 123.199219 194.972656 123.132812 195.03125 C 122.992188 195.160156 122.765625 195.0625 122.765625 194.871094 L 122.765625 192.8125 C 122.765625 192.5 122.285156 192.53125 122.285156 192.84375 L 122.285156 195.851562 C 122.285156 195.875 122.285156 195.894531 122.292969 195.914062 C 122.140625 196.082031 121.980469 196.265625 121.808594 196.460938 C 121.671875 196.613281 121.421875 196.519531 121.421875 196.316406 L 121.421875 192.785156 C 121.421875 192.472656 120.941406 192.503906 120.941406 192.816406 L 120.941406 197.355469 C 120.941406 197.410156 120.921875 197.460938 120.886719 197.5 C 120.734375 197.671875 120.574219 197.851562 120.410156 198.035156 C 120.277344 198.1875 120.027344 198.09375 120.027344 197.890625 L 120.027344 193.722656 C 120.027344 193.414062 119.542969 193.445312 119.542969 193.753906 L 119.542969 198.925781 C 119.542969 198.980469 119.523438 199.035156 119.488281 199.074219 C 119.351562 199.226562 119.210938 199.386719 119.066406 199.546875 C 118.933594 199.699219 118.683594 199.601562 118.683594 199.402344 L 118.683594 194.746094 C 118.683594 194.433594 118.199219 194.46875 118.199219 194.777344 L 118.199219 199.703125 C 118.199219 199.886719 117.988281 199.988281 117.84375 199.875 L 117.476562 199.582031 C 117.421875 199.542969 117.390625 199.476562 117.390625 199.410156 L 117.390625 194.851562 C 117.390625 194.539062 116.910156 194.574219 116.910156 194.882812 L 116.910156 198.679688 C 116.910156 198.863281 116.695312 198.964844 116.554688 198.851562 L 116.078125 198.472656 C 116.023438 198.429688 115.996094 198.367188 115.996094 198.300781 L 115.996094 194.394531 C 115.996094 194.085938 115.511719 194.117188 115.511719 194.425781 L 115.511719 197.566406 C 115.511719 197.75 115.300781 197.855469 115.15625 197.738281 L 114.894531 197.53125 C 114.84375 197.492188 114.8125 197.429688 114.8125 197.359375 L 114.8125 193.832031 C 114.8125 193.519531 114.328125 193.554688 114.328125 193.863281 L 114.328125 196.628906 C 114.328125 196.8125 114.117188 196.914062 113.972656 196.800781 L 113.660156 196.550781 C 113.609375 196.507812 113.578125 196.445312 113.578125 196.378906 L 113.578125 193.886719 C 113.578125 193.574219 113.09375 193.605469 113.09375 193.917969 L 113.09375 195.644531 C 113.09375 195.828125 112.882812 195.933594 112.738281 195.816406 L 112.574219 195.6875 C 112.523438 195.644531 112.492188 195.582031 112.492188 195.515625 L 112.492188 193.148438 C 112.492188 192.835938 112.007812 192.867188 112.007812 193.179688 L 112.007812 194.78125 C 112.007812 194.964844 111.796875 195.070312 111.652344 194.953125 L 111.367188 194.726562 C 111.3125 194.683594 111.28125 194.621094 111.28125 194.554688 L 111.28125 193.148438 C 111.28125 192.835938 110.800781 192.867188 110.800781 193.179688 L 110.800781 193.820312 C 110.800781 194.007812 110.585938 194.109375 110.445312 193.996094 L 110.167969 193.773438 C 110.113281 193.734375 110.082031 193.667969 110.082031 193.601562 L 110.082031 192.753906 C 110.082031 192.441406 109.601562 192.472656 109.601562 192.78125 L 109.601562 192.871094 C 109.601562 193.054688 109.386719 193.15625 109.246094 193.042969 L 107.835938 191.921875 C 109.8125 188.976562 110.855469 186.414062 110.925781 184.292969 L 111.078125 183.050781 L 113.132812 183.476562 C 113.140625 183.476562 113.144531 183.476562 113.152344 183.480469 C 113.648438 183.5625 114.089844 183.601562 114.492188 183.601562 C 115.820312 183.601562 116.714844 183.144531 117.148438 182.25 C 117.371094 181.78125 117.394531 181.316406 117.222656 180.890625 C 117.941406 180.964844 118.890625 181.050781 119.445312 181.050781 C 119.640625 181.050781 119.78125 181.039062 119.878906 181.019531 C 121.332031 180.707031 122.167969 179.914062 122.230469 178.78125 C 122.242188 178.566406 122.226562 178.339844 122.179688 178.101562 C 123.21875 177.835938 124.035156 176.777344 124.089844 175.519531 C 124.144531 174.285156 123.902344 173.902344 123.464844 173.359375 C 123.777344 172.921875 124.300781 172.011719 124.203125 170.9375 C 124.0625 169.398438 122.894531 168.082031 122.25 167.515625 L 124.019531 167.050781 C 124.039062 167.046875 124.058594 167.039062 124.078125 167.03125 C 125.5625 166.382812 127.4375 165.539062 128.070312 165.164062 C 128.539062 165.050781 131.359375 164.363281 132.859375 163.859375 C 133.5625 163.625 134.136719 163.503906 134.566406 163.503906 C 135.128906 163.503906 135.390625 163.699219 135.621094 164.019531 C 135.835938 164.3125 136.539062 165.371094 136.605469 166.804688 C 136.617188 167.015625 136.78125 167.195312 136.992188 167.199219 C 137.449219 167.214844 138.085938 167.597656 138.417969 168.304688 C 138.644531 168.789062 139.230469 170.871094 138.46875 171.710938 C 138.371094 171.820312 138.335938 171.972656 138.386719 172.113281 C 138.433594 172.25 138.554688 172.355469 138.699219 172.378906 C 138.707031 172.378906 139.527344 172.527344 139.738281 173.269531 C 140.390625 175.566406 139.363281 176.644531 139.320312 176.683594 C 139.226562 176.777344 139.183594 176.910156 139.207031 177.039062 C 139.226562 177.171875 139.3125 177.28125 139.429688 177.335938 C 139.640625 177.4375 139.761719 177.554688 139.816406 177.710938 C 139.824219 177.730469 140.457031 179.730469 138.988281 181.773438 Z M 140.578125 177.449219 C 140.496094 177.21875 140.367188 177.027344 140.183594 176.871094 C 140.554688 176.28125 141.074219 175.019531 140.511719 173.046875 C 140.3125 172.335938 139.796875 171.960938 139.390625 171.769531 C 140.105469 170.28125 139.160156 167.988281 139.148438 167.960938 C 138.789062 167.195312 138.097656 166.613281 137.386719 166.445312 C 137.234375 164.996094 136.566406 163.945312 136.273438 163.542969 C 135.984375 163.148438 135.53125 162.699219 134.566406 162.699219 C 134.042969 162.699219 133.398438 162.828125 132.601562 163.09375 C 131.933594 163.320312 130.972656 163.585938 130.089844 163.820312 L 130.105469 163.828125 C 127.871094 164.464844 126.15625 165.046875 122.804688 167.101562 C 122.214844 167.375 121.652344 167.515625 121.125 167.515625 C 121.089844 167.515625 121.058594 167.511719 121.019531 167.511719 C 121.046875 167.5625 121.078125 167.605469 121.125 167.644531 C 121.382812 167.847656 121.53125 167.96875 121.535156 167.972656 C 121.539062 167.972656 121.542969 167.976562 121.546875 167.980469 C 122.097656 168.394531 123.277344 169.683594 123.398438 171.007812 C 123.503906 172.132812 122.660156 173.082031 122.65625 173.089844 C 122.523438 173.234375 122.515625 173.453125 122.632812 173.605469 C 122.699219 173.691406 122.757812 173.765625 122.816406 173.835938 C 123.179688 174.285156 123.328125 174.472656 123.285156 175.484375 C 123.234375 176.636719 122.410156 177.359375 121.679688 177.363281 C 121.550781 177.363281 121.429688 177.425781 121.355469 177.527344 C 121.28125 177.632812 121.257812 177.765625 121.296875 177.886719 C 121.394531 178.199219 121.4375 178.488281 121.425781 178.738281 C 121.382812 179.496094 120.808594 179.996094 119.710938 180.230469 C 119.703125 180.234375 119.636719 180.246094 119.445312 180.246094 C 118.53125 180.246094 116.386719 179.988281 116.363281 179.988281 C 116.191406 179.964844 116.023438 180.058594 115.949219 180.214844 C 115.878906 180.375 115.914062 180.5625 116.039062 180.679688 C 116.046875 180.6875 116.066406 180.703125 116.09375 180.722656 C 116.742188 181.230469 116.5 181.734375 116.421875 181.898438 C 116.027344 182.710938 115.011719 182.964844 113.289062 182.683594 L 110.8125 182.171875 C 110.703125 182.148438 110.585938 182.175781 110.496094 182.242188 C 110.402344 182.304688 110.34375 182.40625 110.332031 182.519531 L 110.128906 184.183594 C 110.125 184.203125 110.121094 184.222656 110.121094 184.242188 C 110.058594 186.285156 108.996094 188.820312 106.957031 191.773438 C 106.839844 191.949219 106.875 192.1875 107.039062 192.316406 L 118.183594 201.175781 C 118.257812 201.234375 118.347656 201.265625 118.433594 201.265625 C 118.546875 201.265625 118.65625 201.21875 118.734375 201.128906 C 120.75 198.867188 122.25 197.179688 123.195312 196.109375 C 123.78125 195.445312 124.847656 194.644531 125.578125 194.332031 C 126.292969 194.023438 127.15625 193.65625 127.871094 193.355469 C 128.753906 192.984375 130 192.238281 130.710938 191.660156 C 131.828125 190.753906 133.410156 189.457031 134.519531 188.523438 C 135.203125 187.953125 136.117188 186.847656 136.621094 185.992188 L 139.621094 182.269531 C 139.625 182.265625 139.628906 182.261719 139.636719 182.253906 C 141.351562 179.878906 140.613281 177.554688 140.578125 177.449219 " fill-opacity="1" fill-rule="nonzero"/><path fill="#ffffff" d="M 137.136719 194.296875 C 136.730469 194.617188 136.226562 194.789062 135.710938 194.789062 L 133.742188 194.789062 C 133.429688 194.789062 133.464844 195.269531 133.773438 195.269531 L 135.320312 195.269531 C 135.507812 195.269531 135.589844 195.507812 135.441406 195.621094 C 135.242188 195.777344 134.996094 195.863281 134.742188 195.863281 L 130.730469 195.863281 C 130.417969 195.863281 130.453125 196.347656 130.761719 196.347656 L 133.945312 196.347656 C 134.132812 196.347656 134.214844 196.582031 134.066406 196.695312 L 133.972656 196.769531 C 133.789062 196.914062 133.5625 196.992188 133.328125 196.992188 L 127.636719 196.992188 C 127.570312 196.992188 127.507812 196.960938 127.464844 196.910156 C 127.253906 196.660156 127.050781 196.429688 126.871094 196.246094 C 126.867188 196.242188 126.859375 196.234375 126.851562 196.230469 L 126.792969 196.171875 C 126.640625 196.035156 126.742188 195.78125 126.945312 195.78125 L 129.472656 195.78125 C 129.785156 195.78125 129.753906 195.300781 129.441406 195.300781 L 125.933594 195.300781 C 125.878906 195.300781 125.824219 195.277344 125.78125 195.238281 L 125.308594 194.800781 C 125.191406 194.695312 125.222656 194.507812 125.363281 194.433594 C 125.4375 194.394531 125.507812 194.363281 125.578125 194.332031 C 125.621094 194.3125 125.667969 194.292969 125.710938 194.273438 C 125.71875 194.277344 125.730469 194.277344 125.738281 194.277344 L 129.957031 194.277344 C 130.269531 194.277344 130.234375 193.792969 129.925781 193.792969 L 127.945312 193.792969 C 127.699219 193.792969 127.632812 193.457031 127.855469 193.359375 L 127.871094 193.355469 C 128.753906 192.984375 130 192.238281 130.710938 191.660156 C 131.828125 190.757812 133.410156 189.457031 134.519531 188.523438 C 135.203125 187.953125 136.117188 186.847656 136.621094 185.992188 L 136.984375 185.539062 C 136.941406 186.089844 136.988281 186.417969 137.125 186.621094 L 140.085938 191.269531 C 140.261719 191.542969 140.199219 191.90625 139.945312 192.105469 Z M 132 198.039062 L 128.460938 198.039062 C 128.386719 198.039062 128.320312 198.007812 128.277344 197.949219 C 128.253906 197.910156 128.222656 197.875 128.195312 197.835938 C 128.085938 197.6875 128.191406 197.476562 128.375 197.476562 L 132.5 197.476562 C 132.6875 197.476562 132.769531 197.710938 132.621094 197.824219 C 132.445312 197.964844 132.226562 198.039062 132 198.039062 Z M 129.703125 200.105469 L 129.460938 199.730469 L 129.832031 199.730469 C 129.945312 199.730469 129.996094 199.878906 129.90625 199.949219 Z M 130.1875 199.25 L 129.269531 199.25 C 129.195312 199.25 129.125 199.210938 129.082031 199.148438 L 128.902344 198.871094 C 128.804688 198.722656 128.914062 198.523438 129.089844 198.523438 L 131.160156 198.523438 C 131.347656 198.523438 131.425781 198.757812 131.28125 198.875 C 130.96875 199.117188 130.585938 199.25 130.1875 199.25 Z M 141.269531 191.628906 L 137.804688 186.1875 C 137.765625 186.101562 137.707031 185.738281 138.007812 184.214844 C 138.035156 184.074219 138 183.921875 137.898438 183.824219 C 137.71875 183.65625 137.445312 183.683594 137.300781 183.863281 L 135.972656 185.511719 C 135.960938 185.527344 135.949219 185.542969 135.9375 185.558594 C 135.488281 186.335938 134.621094 187.390625 134.003906 187.90625 C 132.894531 188.835938 131.316406 190.132812 130.203125 191.035156 C 129.554688 191.5625 128.367188 192.269531 127.558594 192.613281 C 126.839844 192.914062 125.976562 193.28125 125.257812 193.59375 C 124.945312 193.726562 124.578125 193.9375 124.195312 194.199219 C 124.09375 194.265625 124.027344 194.378906 124.019531 194.5 C 124.011719 194.625 124.058594 194.742188 124.148438 194.828125 L 126.296875 196.8125 C 126.8125 197.34375 127.550781 198.273438 127.949219 198.886719 L 129.269531 200.910156 C 129.332031 201.007812 129.429688 201.070312 129.539062 201.089844 C 129.5625 201.09375 129.585938 201.09375 129.605469 201.09375 C 129.695312 201.09375 129.785156 201.066406 129.855469 201.007812 L 141.179688 192.164062 C 141.34375 192.035156 141.382812 191.804688 141.269531 191.628906 " fill-opacity="1" fill-rule="nonzero"/><g fill="#ffffff" fill-opacity="1"><g transform="translate(162.023973, 202.958672)"><g><path d="M 0.925781 -26.972656 L 0.925781 -26.488281 C 2.589844 -26.488281 3.847656 -26.046875 4.734375 -24.566406 L 4.734375 -2.480469 C 4.734375 -0.519531 3.882812 -0.480469 2.109375 -0.480469 L 2.109375 0 L 7.84375 0 L 7.84375 -0.480469 C 6.105469 -0.480469 5.214844 -0.519531 5.214844 -2.480469 L 5.214844 -23.898438 L 22.347656 0 L 22.828125 0 L 22.789062 -24.675781 C 22.863281 -26.453125 23.714844 -26.488281 25.417969 -26.488281 L 25.417969 -26.972656 L 19.71875 -26.972656 L 19.71875 -26.488281 C 21.457031 -26.488281 22.308594 -26.453125 22.308594 -24.492188 L 22.347656 -6.992188 L 8.027344 -26.972656 Z M 0.925781 -26.972656 "/></g></g></g><g fill="#ffffff" fill-opacity="1"><g transform="translate(188.365169, 202.958672)"><g><path d="M 10.878906 0.445312 C 16.722656 0.445312 18.792969 -3.8125 18.90625 -8.101562 L 18.425781 -8.101562 C 18.425781 -6.214844 17.425781 -1.589844 12.320312 -1.589844 C 7.472656 -1.589844 5.179688 -5.328125 5.179688 -10.507812 C 5.179688 -10.839844 5.179688 -11.171875 5.214844 -11.507812 L 18.425781 -11.507812 C 18.425781 -15.429688 15.796875 -18.683594 11.320312 -18.683594 C 5.144531 -18.683594 1.480469 -13.910156 1.480469 -9.027344 C 1.480469 -3.550781 4.660156 0.445312 10.878906 0.445312 Z M 5.289062 -11.988281 C 5.773438 -15.574219 7.992188 -17.945312 10.953125 -17.945312 C 14.835938 -17.945312 15.316406 -14.6875 15.316406 -11.988281 Z M 5.289062 -11.988281 "/></g></g></g><g fill="#ffffff" fill-opacity="1"><g transform="translate(208.195056, 202.958672)"><g><path d="M 0.371094 -0.480469 L 0.371094 0 L 5.476562 0 L 5.476562 -0.480469 C 4.179688 -0.480469 3.664062 -0.925781 4.21875 -1.886719 L 8.546875 -7.769531 L 11.765625 -1.996094 C 12.320312 -0.886719 11.691406 -0.480469 10.136719 -0.480469 L 10.136719 0 L 18.832031 0 L 18.832031 -0.480469 C 16.980469 -0.480469 16.242188 -0.886719 15.613281 -1.996094 L 10.730469 -10.691406 L 15.28125 -16.90625 C 15.835938 -17.722656 16.832031 -17.757812 18.128906 -17.757812 L 18.128906 -18.238281 L 13.28125 -18.238281 L 13.28125 -17.757812 C 14.464844 -17.757812 15.207031 -17.5 14.726562 -16.832031 L 10.46875 -11.136719 L 7.472656 -16.539062 C 6.992188 -17.535156 7.660156 -17.757812 8.953125 -17.757812 L 8.953125 -18.238281 L 1 -18.238281 L 1 -17.757812 C 2.367188 -17.757812 3.070312 -17.535156 3.664062 -16.5 L 8.289062 -8.214844 L 3.699219 -2.035156 C 2.996094 -0.925781 1.703125 -0.480469 0.371094 -0.480469 Z M 0.371094 -0.480469 "/></g></g></g><g fill="#ffffff" fill-opacity="1"><g transform="translate(227.396009, 202.958672)"><g><path d="M 0.738281 -18.238281 L 0.738281 -17.757812 C 2.480469 -17.757812 3.367188 -17.460938 3.367188 -15.722656 L 3.367188 -4.402344 C 3.367188 -0.332031 5.84375 0.445312 9.027344 0.445312 C 12.46875 0.445312 13.835938 -0.960938 14.835938 -2.40625 L 14.835938 0 L 21.605469 0 L 21.605469 -0.480469 C 19.496094 -0.480469 18.535156 -0.8125 18.535156 -3.292969 L 18.535156 -18.238281 L 12.210938 -18.238281 L 12.210938 -17.757812 C 14.207031 -17.757812 14.835938 -17.460938 14.835938 -15.761719 L 14.835938 -3.550781 C 14.132812 -1.996094 12.765625 -0.519531 10.433594 -0.519531 C 7.695312 -0.519531 7.066406 -2.21875 7.066406 -4.476562 L 7.066406 -18.238281 Z M 0.738281 -18.238281 "/></g></g></g><g fill="#ffffff" fill-opacity="1"><g transform="translate(249.371674, 202.958672)"><g><path d="M 1.960938 0 C 1.960938 -0.480469 2.183594 -0.8125 2.589844 -0.886719 C 4.070312 -1.183594 4.847656 0.445312 8.398438 0.445312 C 12.136719 0.445312 14.652344 -1.777344 14.6875 -4.847656 C 14.6875 -11.839844 4.847656 -9.953125 4.921875 -15.390625 C 4.921875 -16.945312 6.03125 -17.980469 7.695312 -17.980469 C 10.839844 -17.980469 12.691406 -15.355469 12.691406 -12.210938 L 13.207031 -12.210938 L 13.171875 -18.238281 L 12.691406 -18.238281 C 12.691406 -17.757812 12.503906 -17.316406 11.988281 -17.316406 C 10.839844 -17.316406 9.730469 -18.683594 7.324219 -18.683594 C 3.847656 -18.683594 1.554688 -16.648438 1.554688 -13.429688 C 1.589844 -6.84375 11.320312 -9.0625 11.320312 -3.292969 C 11.320312 -1.554688 10.101562 -0.296875 7.585938 -0.296875 C 5.328125 -0.296875 1.960938 -1.925781 1.960938 -7.660156 L 1.480469 -7.660156 L 1.480469 0 Z M 1.960938 0 "/></g></g></g><g fill="#ffffff" fill-opacity="1"><g transform="translate(265.160685, 202.958672)"><g/></g></g></svg>